<svg xmlns="http://www.w3.org/2000/svg" xmlns:xlink="http://www.w3.org/1999/xlink" contentStyleType="text/css" height="272px" preserveAspectRatio="none" style="width:375px;height:272px;background:#FFFFFF;" version="1.1" viewBox="0 0 375 272" width="375px" zoomAndPan="magnify"><defs/><g><ellipse cx="187.9627" cy="20" fill="#222222" rx="10" ry="10" style="stroke:#222222;stroke-width:1;"/><rect fill="#555555" height="6" rx="2.5" ry="2.5" style="stroke:#555555;stroke-width:1;" width="353.9255" x="11" y="50"/><rect fill="#F1F1F1" height="36.3441" rx="12.5" ry="12.5" style="stroke:#181818;stroke-width:0.5;" width="79.2804" x="23" y="76"/><text fill="#000000" font-family="sans-serif" font-size="12" lengthAdjust="spacing" textLength="59.2804" x="33" y="98.8281">Build linux</text><rect fill="#F1F1F1" height="36.3441" rx="12.5" ry="12.5" style="stroke:#181818;stroke-width:0.5;" width="91.2445" x="130.2804" y="76"/><text fill="#000000" font-family="sans-serif" font-size="12" lengthAdjust="spacing" textLength="71.2445" x="140.2804" y="98.8281">Build MacOS</text><rect fill="#F1F1F1" height="36.3441" rx="12.5" ry="12.5" style="stroke:#181818;stroke-width:0.5;" width="103.4006" x="249.5249" y="76"/><text fill="#000000" font-family="sans-serif" font-size="12" lengthAdjust="spacing" textLength="83.4006" x="259.5249" y="98.8281">Build Windows</text><polygon fill="#F1F1F1" points="187.9627,122.3441,199.9627,134.3441,187.9627,146.3441,175.9627,134.3441,187.9627,122.3441" style="stroke:#181818;stroke-width:0.5;"/><rect fill="#F1F1F1" height="52.6882" rx="12.5" ry="12.5" style="stroke:#181818;stroke-width:0.5;" width="216.7414" x="79.592" y="166.3441"/><text fill="#000000" font-family="sans-serif" font-size="12" lengthAdjust="spacing" textLength="124.0689" x="89.592" y="189.1722">Create GitHub release</text><text fill="#000000" font-family="sans-serif" font-size="12" lengthAdjust="spacing" textLength="196.7414" x="89.592" y="205.5163">With the builded artificats included</text><ellipse cx="187.9627" cy="250.0323" fill="none" rx="11" ry="11" style="stroke:#222222;stroke-width:1;"/><ellipse cx="187.9627" cy="250.0323" fill="#222222" rx="6" ry="6" style="stroke:#222222;stroke-width:1;"/><line style="stroke:#181818;stroke-width:1;" x1="62.6402" x2="62.6402" y1="56" y2="76"/><polygon fill="#181818" points="58.6402,66,62.6402,76,66.6402,66,62.6402,70" style="stroke:#181818;stroke-width:1;"/><line style="stroke:#181818;stroke-width:1;" x1="175.9026" x2="175.9026" y1="56" y2="76"/><polygon fill="#181818" points="171.9026,66,175.9026,76,179.9026,66,175.9026,70" style="stroke:#181818;stroke-width:1;"/><line style="stroke:#181818;stroke-width:1;" x1="301.2252" x2="301.2252" y1="56" y2="76"/><polygon fill="#181818" points="297.2252,66,301.2252,76,305.2252,66,301.2252,70" style="stroke:#181818;stroke-width:1;"/><line style="stroke:#181818;stroke-width:1;" x1="62.6402" x2="62.6402" y1="112.3441" y2="134.3441"/><line style="stroke:#181818;stroke-width:1;" x1="62.6402" x2="175.9627" y1="134.3441" y2="134.3441"/><polygon fill="#181818" points="165.9627,130.3441,175.9627,134.3441,165.9627,138.3441,169.9627,134.3441" style="stroke:#181818;stroke-width:1;"/><line style="stroke:#181818;stroke-width:1;" x1="175.9026" x2="175.9026" y1="112.3441" y2="134.3441"/><line style="stroke:#181818;stroke-width:1;" x1="175.9026" x2="175.9627" y1="134.3441" y2="134.3441"/><polygon fill="#181818" points="165.9627,130.3441,175.9627,134.3441,165.9627,138.3441,169.9627,134.3441" style="stroke:#181818;stroke-width:1;"/><line style="stroke:#181818;stroke-width:1;" x1="301.2252" x2="301.2252" y1="112.3441" y2="134.3441"/><line style="stroke:#181818;stroke-width:1;" x1="301.2252" x2="199.9627" y1="134.3441" y2="134.3441"/><polygon fill="#181818" points="209.9627,130.3441,199.9627,134.3441,209.9627,138.3441,205.9627,134.3441" style="stroke:#181818;stroke-width:1;"/><line style="stroke:#181818;stroke-width:1;" x1="187.9627" x2="187.9627" y1="30" y2="50"/><polygon fill="#181818" points="183.9627,40,187.9627,50,191.9627,40,187.9627,44" style="stroke:#181818;stroke-width:1;"/><line style="stroke:#181818;stroke-width:1;" x1="187.9627" x2="187.9627" y1="146.3441" y2="166.3441"/><polygon fill="#181818" points="183.9627,156.3441,187.9627,166.3441,191.9627,156.3441,187.9627,160.3441" style="stroke:#181818;stroke-width:1;"/><line style="stroke:#181818;stroke-width:1;" x1="187.9627" x2="187.9627" y1="219.0323" y2="239.0323"/><polygon fill="#181818" points="183.9627,229.0323,187.9627,239.0323,191.9627,229.0323,187.9627,233.0323" style="stroke:#181818;stroke-width:1;"/><!--SRC=[ROwn3i8m30LtVyNxZcQ30HR4mD3PJTpM8ZWeSLG-dyB2mdgdawuvLwUvr3i1mw5hJiXg_HM-4BomsazTE5vl_zMebihM0eabFAGkGiEn2hlWf7xk4wfauIOqgg_mLJ1zGadO5tJMoDwW5dFVMQ3cvVa6]--></g></svg>