<svg xmlns="http://www.w3.org/2000/svg" xmlns:xlink="http://www.w3.org/1999/xlink" contentStyleType="text/css" height="599px" preserveAspectRatio="none" style="width:671px;height:599px;background:#FFFFFF;" version="1.1" viewBox="0 0 671 599" width="671px" zoomAndPan="magnify"><defs/><g><ellipse cx="335.6358" cy="20" fill="#222222" rx="10" ry="10" style="stroke:#222222;stroke-width:1;"/><line style="stroke:#181818;stroke-width:1.5;" x1="114.4846" x2="556.787" y1="50" y2="50"/><rect fill="none" height="256.4444" style="stroke:#000000;stroke-width:1.5;" width="206.9692" x="11" y="60"/><path d="M119.2936,60 L119.2936,72.0679 L109.2936,82.0679 L11,82.0679 " fill="none" style="stroke:#000000;stroke-width:1.5;"/><text fill="#000000" font-family="sans-serif" font-size="14" lengthAdjust="spacing" textLength="72.8837" x="14" y="75.9659">Build Linux</text><text fill="#000000" font-family="sans-serif" font-size="14" font-weight="bold" lengthAdjust="spacing" textLength="21.7699" x="90.5237" y="75.9659">job</text><rect fill="#F1F1F1" height="36.3441" rx="12.5" ry="12.5" style="stroke:#181818;stroke-width:0.5;" width="165.093" x="31.9381" y="99.0679"/><text fill="#000000" font-family="sans-serif" font-size="12" lengthAdjust="spacing" textLength="145.093" x="41.9381" y="121.896">Run actions/checkout@v4</text><rect fill="#F1F1F1" height="36.3441" rx="12.5" ry="12.5" style="stroke:#181818;stroke-width:0.5;" width="186.9692" x="21" y="155.412"/><text fill="#000000" font-family="sans-serif" font-size="12" lengthAdjust="spacing" textLength="166.9692" x="31" y="178.2401">Run actions/setup-dotnet@v4</text><rect fill="#F1F1F1" height="36.3441" rx="12.5" ry="12.5" style="stroke:#181818;stroke-width:0.5;" width="157.233" x="35.8681" y="211.7561"/><text fill="#000000" font-family="sans-serif" font-size="12" lengthAdjust="spacing" textLength="137.233" x="45.8681" y="234.5842">Publish project for Linux</text><rect fill="#F1F1F1" height="36.3441" rx="12.5" ry="12.5" style="stroke:#181818;stroke-width:0.5;" width="103.8086" x="62.5803" y="268.1003"/><text fill="#000000" font-family="sans-serif" font-size="12" lengthAdjust="spacing" textLength="83.8086" x="72.5803" y="290.9283">Upload artifact</text><rect fill="none" height="256.4444" style="stroke:#000000;stroke-width:1.5;" width="206.9692" x="232.1512" y="60"/><path d="M350.6788,60 L350.6788,72.0679 L340.6788,82.0679 L232.1512,82.0679 " fill="none" style="stroke:#000000;stroke-width:1.5;"/><text fill="#000000" font-family="sans-serif" font-size="14" lengthAdjust="spacing" textLength="83.1177" x="235.1512" y="75.9659">Build MacOS</text><text fill="#000000" font-family="sans-serif" font-size="14" font-weight="bold" lengthAdjust="spacing" textLength="21.7699" x="321.9089" y="75.9659">job</text><rect fill="#F1F1F1" height="36.3441" rx="12.5" ry="12.5" style="stroke:#181818;stroke-width:0.5;" width="165.093" x="253.0893" y="99.0679"/><text fill="#000000" font-family="sans-serif" font-size="12" lengthAdjust="spacing" textLength="145.093" x="263.0893" y="121.896">Run actions/checkout@v4</text><rect fill="#F1F1F1" height="36.3441" rx="12.5" ry="12.5" style="stroke:#181818;stroke-width:0.5;" width="186.9692" x="242.1512" y="155.412"/><text fill="#000000" font-family="sans-serif" font-size="12" lengthAdjust="spacing" textLength="166.9692" x="252.1512" y="178.2401">Run actions/setup-dotnet@v4</text><rect fill="#F1F1F1" height="36.3441" rx="12.5" ry="12.5" style="stroke:#181818;stroke-width:0.5;" width="166.0051" x="252.6333" y="211.7561"/><text fill="#000000" font-family="sans-serif" font-size="12" lengthAdjust="spacing" textLength="146.0051" x="262.6333" y="234.5842">Publish project for MacOS</text><rect fill="#F1F1F1" height="36.3441" rx="12.5" ry="12.5" style="stroke:#181818;stroke-width:0.5;" width="103.8086" x="283.7315" y="268.1003"/><text fill="#000000" font-family="sans-serif" font-size="12" lengthAdjust="spacing" textLength="83.8086" x="293.7315" y="290.9283">Upload artifact</text><rect fill="none" height="256.4444" style="stroke:#000000;stroke-width:1.5;" width="206.9692" x="453.3025" y="60"/><path d="M586.012,60 L586.012,72.0679 L576.012,82.0679 L453.3025,82.0679 " fill="none" style="stroke:#000000;stroke-width:1.5;"/><text fill="#000000" font-family="sans-serif" font-size="14" lengthAdjust="spacing" textLength="97.2996" x="456.3025" y="75.9659">Build Windows</text><text fill="#000000" font-family="sans-serif" font-size="14" font-weight="bold" lengthAdjust="spacing" textLength="21.7699" x="557.2421" y="75.9659">job</text><rect fill="#F1F1F1" height="36.3441" rx="12.5" ry="12.5" style="stroke:#181818;stroke-width:0.5;" width="165.093" x="474.2405" y="99.0679"/><text fill="#000000" font-family="sans-serif" font-size="12" lengthAdjust="spacing" textLength="145.093" x="484.2405" y="121.896">Run actions/checkout@v4</text><rect fill="#F1F1F1" height="36.3441" rx="12.5" ry="12.5" style="stroke:#181818;stroke-width:0.5;" width="186.9692" x="463.3025" y="155.412"/><text fill="#000000" font-family="sans-serif" font-size="12" lengthAdjust="spacing" textLength="166.9692" x="473.3025" y="178.2401">Run actions/setup-dotnet@v4</text><rect fill="#F1F1F1" height="36.3441" rx="12.5" ry="12.5" style="stroke:#181818;stroke-width:0.5;" width="178.1612" x="467.7065" y="211.7561"/><text fill="#000000" font-family="sans-serif" font-size="12" lengthAdjust="spacing" textLength="158.1612" x="477.7065" y="234.5842">Publish project for Windows</text><rect fill="#F1F1F1" height="36.3441" rx="12.5" ry="12.5" style="stroke:#181818;stroke-width:0.5;" width="103.8086" x="504.8827" y="268.1003"/><text fill="#000000" font-family="sans-serif" font-size="12" lengthAdjust="spacing" textLength="83.8086" x="514.8827" y="290.9283">Upload artifact</text><line style="stroke:#181818;stroke-width:1.5;" x1="114.4846" x2="556.787" y1="336.4444" y2="336.4444"/><rect fill="none" height="200.1003" style="stroke:#000000;stroke-width:1.5;" width="215.3333" x="227.9692" y="346.4444"/><path d="M313.9469,346.4444 L313.9469,358.5123 L303.9469,368.5123 L227.9692,368.5123 " fill="none" style="stroke:#000000;stroke-width:1.5;"/><text fill="#000000" font-family="sans-serif" font-size="14" lengthAdjust="spacing" textLength="50.5678" x="230.9692" y="362.4103">Release</text><text fill="#000000" font-family="sans-serif" font-size="14" font-weight="bold" lengthAdjust="spacing" textLength="21.7699" x="285.1769" y="362.4103">job</text><rect fill="#F1F1F1" height="36.3441" rx="12.5" ry="12.5" style="stroke:#181818;stroke-width:0.5;" width="126.2728" x="272.4994" y="385.5123"/><text fill="#000000" font-family="sans-serif" font-size="12" lengthAdjust="spacing" textLength="106.2728" x="282.4994" y="408.3404">Download artifacts</text><rect fill="#F1F1F1" height="36.3441" rx="12.5" ry="12.5" style="stroke:#181818;stroke-width:0.5;" width="195.3333" x="237.9692" y="441.8564"/><text fill="#000000" font-family="sans-serif" font-size="12" lengthAdjust="spacing" textLength="175.3333" x="247.9692" y="464.6845">Move artifacts to root directory</text><rect fill="#F1F1F1" height="36.3441" rx="12.5" ry="12.5" style="stroke:#181818;stroke-width:0.5;" width="101.0966" x="285.0875" y="498.2005"/><text fill="#000000" font-family="sans-serif" font-size="12" lengthAdjust="spacing" textLength="81.0966" x="295.0875" y="521.0286">Create release</text><ellipse cx="335.6358" cy="577.5446" fill="none" rx="11" ry="11" style="stroke:#222222;stroke-width:1;"/><ellipse cx="335.6358" cy="577.5446" fill="#222222" rx="6" ry="6" style="stroke:#222222;stroke-width:1;"/><line style="stroke:#181818;stroke-width:1;" x1="114.4846" x2="114.4846" y1="135.412" y2="155.412"/><polygon fill="#181818" points="110.4846,145.412,114.4846,155.412,118.4846,145.412,114.4846,149.412" style="stroke:#181818;stroke-width:1;"/><line style="stroke:#181818;stroke-width:1;" x1="114.4846" x2="114.4846" y1="191.7561" y2="211.7561"/><polygon fill="#181818" points="110.4846,201.7561,114.4846,211.7561,118.4846,201.7561,114.4846,205.7561" style="stroke:#181818;stroke-width:1;"/><line style="stroke:#181818;stroke-width:1;" x1="114.4846" x2="114.4846" y1="248.1003" y2="268.1003"/><polygon fill="#181818" points="110.4846,258.1003,114.4846,268.1003,118.4846,258.1003,114.4846,262.1003" style="stroke:#181818;stroke-width:1;"/><line style="stroke:#181818;stroke-width:1;" x1="335.6358" x2="335.6358" y1="135.412" y2="155.412"/><polygon fill="#181818" points="331.6358,145.412,335.6358,155.412,339.6358,145.412,335.6358,149.412" style="stroke:#181818;stroke-width:1;"/><line style="stroke:#181818;stroke-width:1;" x1="335.6358" x2="335.6358" y1="191.7561" y2="211.7561"/><polygon fill="#181818" points="331.6358,201.7561,335.6358,211.7561,339.6358,201.7561,335.6358,205.7561" style="stroke:#181818;stroke-width:1;"/><line style="stroke:#181818;stroke-width:1;" x1="335.6358" x2="335.6358" y1="248.1003" y2="268.1003"/><polygon fill="#181818" points="331.6358,258.1003,335.6358,268.1003,339.6358,258.1003,335.6358,262.1003" style="stroke:#181818;stroke-width:1;"/><line style="stroke:#181818;stroke-width:1;" x1="556.787" x2="556.787" y1="135.412" y2="155.412"/><polygon fill="#181818" points="552.787,145.412,556.787,155.412,560.787,145.412,556.787,149.412" style="stroke:#181818;stroke-width:1;"/><line style="stroke:#181818;stroke-width:1;" x1="556.787" x2="556.787" y1="191.7561" y2="211.7561"/><polygon fill="#181818" points="552.787,201.7561,556.787,211.7561,560.787,201.7561,556.787,205.7561" style="stroke:#181818;stroke-width:1;"/><line style="stroke:#181818;stroke-width:1;" x1="556.787" x2="556.787" y1="248.1003" y2="268.1003"/><polygon fill="#181818" points="552.787,258.1003,556.787,268.1003,560.787,258.1003,556.787,262.1003" style="stroke:#181818;stroke-width:1;"/><line style="stroke:#181818;stroke-width:1;" x1="114.4846" x2="114.4846" y1="51.5" y2="99.0679"/><polygon fill="#181818" points="110.4846,89.0679,114.4846,99.0679,118.4846,89.0679,114.4846,93.0679" style="stroke:#181818;stroke-width:1;"/><line style="stroke:#181818;stroke-width:1;" x1="335.6358" x2="335.6358" y1="51.5" y2="99.0679"/><polygon fill="#181818" points="331.6358,89.0679,335.6358,99.0679,339.6358,89.0679,335.6358,93.0679" style="stroke:#181818;stroke-width:1;"/><line style="stroke:#181818;stroke-width:1;" x1="556.787" x2="556.787" y1="51.5" y2="99.0679"/><polygon fill="#181818" points="552.787,89.0679,556.787,99.0679,560.787,89.0679,556.787,93.0679" style="stroke:#181818;stroke-width:1;"/><line style="stroke:#181818;stroke-width:1;" x1="114.4846" x2="114.4846" y1="304.4444" y2="336.4444"/><polygon fill="#181818" points="110.4846,326.4444,114.4846,336.4444,118.4846,326.4444,114.4846,330.4444" style="stroke:#181818;stroke-width:1;"/><line style="stroke:#181818;stroke-width:1;" x1="335.6358" x2="335.6358" y1="304.4444" y2="336.4444"/><polygon fill="#181818" points="331.6358,326.4444,335.6358,336.4444,339.6358,326.4444,335.6358,330.4444" style="stroke:#181818;stroke-width:1;"/><line style="stroke:#181818;stroke-width:1;" x1="556.787" x2="556.787" y1="304.4444" y2="336.4444"/><polygon fill="#181818" points="552.787,326.4444,556.787,336.4444,560.787,326.4444,556.787,330.4444" style="stroke:#181818;stroke-width:1;"/><line style="stroke:#181818;stroke-width:1;" x1="335.6358" x2="335.6358" y1="30" y2="50"/><polygon fill="#181818" points="331.6358,40,335.6358,50,339.6358,40,335.6358,44" style="stroke:#181818;stroke-width:1;"/><line style="stroke:#181818;stroke-width:1;" x1="335.6358" x2="335.6358" y1="421.8564" y2="441.8564"/><polygon fill="#181818" points="331.6358,431.8564,335.6358,441.8564,339.6358,431.8564,335.6358,435.8564" style="stroke:#181818;stroke-width:1;"/><line style="stroke:#181818;stroke-width:1;" x1="335.6358" x2="335.6358" y1="478.2005" y2="498.2005"/><polygon fill="#181818" points="331.6358,488.2005,335.6358,498.2005,339.6358,488.2005,335.6358,492.2005" style="stroke:#181818;stroke-width:1;"/><line style="stroke:#181818;stroke-width:1;" x1="335.6358" x2="335.6358" y1="337.9444" y2="385.5123"/><polygon fill="#181818" points="331.6358,375.5123,335.6358,385.5123,339.6358,375.5123,335.6358,379.5123" style="stroke:#181818;stroke-width:1;"/><line style="stroke:#181818;stroke-width:1;" x1="335.6358" x2="335.6358" y1="534.5446" y2="566.5446"/><polygon fill="#181818" points="331.6358,556.5446,335.6358,566.5446,339.6358,556.5446,335.6358,560.5446" style="stroke:#181818;stroke-width:1;"/><!--SRC=[lP8zYm8n48Rx_HLJBnmsLciZUgMYA79rJCPpD6H2Cl43kVz-MRFWdGWMWjCbUNZVXo5HL90gUajIGHwVZoJ43aQ9h849kNI2kjxnkgxXScNQQHR9WT8j6NjwYthFIOQ7_k0n4L6I_p0i3k-eULfRYblmWNUe1JOSIkaVPkKjAmEjsYOdbfUVOWtgMv5xw3vLUhPyj_krz7NtBtA6Z_7TzbtjStzq1iglkPalqAAAUEVSVFBH_Sleufif7_1s2S8Gc0KCXQp3uTnXuu1A44997rHvUSB-5m00]--></g></svg>