<svg xmlns="http://www.w3.org/2000/svg" xmlns:xlink="http://www.w3.org/1999/xlink" contentStyleType="text/css" data-diagram-type="DESCRIPTION" height="339px" preserveAspectRatio="none" style="width:654px;height:339px;background:#FFFFFF;" version="1.1" viewBox="0 0 654 339" width="654px" zoomAndPan="magnify"><defs/><g><!--cluster Github--><g id="cluster_Github"><polygon fill="none" points="16,85.4,26,75.4,144,75.4,144,150.6,134,160.6,16,160.6,16,85.4" style="stroke:#181818;stroke-width:1;"/><line style="stroke:#181818;stroke-width:1;" x1="134" x2="144" y1="85.4" y2="75.4"/><line style="stroke:#181818;stroke-width:1;" x1="16" x2="134" y1="85.4" y2="85.4"/><line style="stroke:#181818;stroke-width:1;" x1="134" x2="134" y1="85.4" y2="160.6"/><text fill="#000000" font-family="sans-serif" font-size="14" font-weight="bold" lengthAdjust="spacing" textLength="52.9375" x="49.5313" y="101.3951">Github</text></g><!--cluster Azure--><g id="cluster_Azure"><polygon fill="none" points="168,28.85,178,18.85,402,18.85,402,312.65,392,322.65,168,322.65,168,28.85" style="stroke:#181818;stroke-width:1;"/><line style="stroke:#181818;stroke-width:1;" x1="392" x2="402" y1="28.85" y2="18.85"/><line style="stroke:#181818;stroke-width:1;" x1="168" x2="392" y1="28.85" y2="28.85"/><line style="stroke:#181818;stroke-width:1;" x1="392" x2="392" y1="28.85" y2="322.65"/><text fill="#000000" font-family="sans-serif" font-size="14" font-weight="bold" lengthAdjust="spacing" textLength="45.3496" x="258.3252" y="44.8451">Azure</text></g><!--cluster App container--><g id="cluster_App container"><polygon fill="none" points="192,76.85,202,66.85,378,66.85,378,288.65,368,298.65,192,298.65,192,76.85" style="stroke:#181818;stroke-width:1;"/><line style="stroke:#181818;stroke-width:1;" x1="368" x2="378" y1="76.85" y2="66.85"/><line style="stroke:#181818;stroke-width:1;" x1="192" x2="368" y1="76.85" y2="76.85"/><line style="stroke:#181818;stroke-width:1;" x1="368" x2="368" y1="76.85" y2="298.65"/><text fill="#000000" font-family="sans-serif" font-size="14" font-weight="bold" lengthAdjust="spacing" textLength="110.9404" x="225.5298" y="92.8451">App container</text></g><!--cluster layout1--><g id="cluster_layout1"><path d="M454.5,6 L514.8906,6 A3.75,3.75 0 0 1 517.3906,8.5 L524.3906,28.2969 L644.5,28.2969 A2.5,2.5 0 0 1 647,30.7969 L647,322.5 A2.5,2.5 0 0 1 644.5,325 L454.5,325 A2.5,2.5 0 0 1 452,322.5 L452,8.5 A2.5,2.5 0 0 1 454.5,6 " fill="none" style="stroke:none;stroke-width:1.5;"/><line style="stroke:none;stroke-width:1.5;" x1="452" x2="524.3906" y1="28.2969" y2="28.2969"/></g><!--cluster Client1--><g id="cluster_Client1"><polygon fill="none" points="484,83,494,73,615,73,615,153,605,163,484,163,484,83" style="stroke:#181818;stroke-width:1;"/><line style="stroke:#181818;stroke-width:1;" x1="605" x2="615" y1="83" y2="73"/><line style="stroke:#181818;stroke-width:1;" x1="484" x2="605" y1="83" y2="83"/><line style="stroke:#181818;stroke-width:1;" x1="605" x2="605" y1="83" y2="163"/><text fill="#000000" font-family="sans-serif" font-size="14" font-weight="bold" lengthAdjust="spacing" textLength="55.7676" x="517.6162" y="98.9951">Client1</text></g><!--cluster Client2--><g id="cluster_Client2"><polygon fill="none" points="484,213,494,203,615,203,615,283,605,293,484,293,484,213" style="stroke:#181818;stroke-width:1;"/><line style="stroke:#181818;stroke-width:1;" x1="605" x2="615" y1="213" y2="203"/><line style="stroke:#181818;stroke-width:1;" x1="484" x2="605" y1="213" y2="213"/><line style="stroke:#181818;stroke-width:1;" x1="605" x2="605" y1="213" y2="293"/><text fill="#000000" font-family="sans-serif" font-size="14" font-weight="bold" lengthAdjust="spacing" textLength="55.7676" x="517.6162" y="228.9951">Client2</text></g><g id="elem_Oauth"><ellipse cx="85.9992" cy="129.9996" fill="#F1F1F1" rx="42.0292" ry="14.5996" style="stroke:#181818;stroke-width:0.5;"/><text fill="#000000" font-family="sans-serif" font-size="14" lengthAdjust="spacing" textLength="42.834" x="61.5822" y="133.7472">Oauth</text></g><!--entity sqlite--><g id="elem_sqlite"><path d="M255.97,247.35 C255.97,237.35 285.0013,237.35 285.0013,237.35 C285.0013,237.35 314.0325,237.35 314.0325,247.35 L314.0325,272.6469 C314.0325,282.6469 285.0013,282.6469 285.0013,282.6469 C285.0013,282.6469 255.97,282.6469 255.97,272.6469 L255.97,247.35 " fill="#F1F1F1" style="stroke:#181818;stroke-width:0.5;"/><path d="M255.97,247.35 C255.97,257.35 285.0013,257.35 285.0013,257.35 C285.0013,257.35 314.0325,257.35 314.0325,247.35 " fill="none" style="stroke:#181818;stroke-width:0.5;"/><text fill="#000000" font-family="sans-serif" font-size="14" lengthAdjust="spacing" textLength="38.0625" x="265.97" y="274.3451">sqlite</text></g><!--entity Webserver--><g id="elem_Webserver"><rect fill="#F1F1F1" height="46.2969" rx="2.5" ry="2.5" style="stroke:#181818;stroke-width:0.5;" width="115.6602" x="227.17" y="106.85"/><rect fill="#F1F1F1" height="10" style="stroke:#181818;stroke-width:0.5;" width="15" x="322.8302" y="111.85"/><rect fill="#F1F1F1" height="2" style="stroke:#181818;stroke-width:0.5;" width="4" x="320.8302" y="113.85"/><rect fill="#F1F1F1" height="2" style="stroke:#181818;stroke-width:0.5;" width="4" x="320.8302" y="117.85"/><text fill="#000000" font-family="sans-serif" font-size="14" lengthAdjust="spacing" textLength="75.6602" x="242.17" y="139.8451">Webserver</text></g><!--entity Browser1--><g id="elem_Browser1"><ellipse cx="517" cy="130" fill="#F1F1F1" rx="8" ry="8" style="stroke:#181818;stroke-width:0.5;"/><text fill="#000000" font-family="sans-serif" font-size="14" lengthAdjust="spacing" textLength="65.9463" x="484.0269" y="159.9951">Browser1</text></g><!--entity Browser2--><g id="elem_Browser2"><ellipse cx="517" cy="260" fill="#F1F1F1" rx="8" ry="8" style="stroke:#181818;stroke-width:0.5;"/><text fill="#000000" font-family="sans-serif" font-size="14" lengthAdjust="spacing" textLength="65.9463" x="484.0269" y="289.9951">Browser2</text></g><!--entity http--><g id="elem_http"><ellipse cx="427" cy="130" fill="#F1F1F1" rx="8" ry="8" style="stroke:#181818;stroke-width:0.5;"/><text fill="#000000" font-family="sans-serif" font-size="14" lengthAdjust="spacing" textLength="28.7383" x="412.6309" y="159.9951">http</text></g><!--link Oauth to Webserver--><g id="link_Oauth_Webserver"><path d="M128.37,130 C161.2,130 194.04,130 226.87,130 " fill="none" id="Oauth-Webserver" style="stroke:#181818;stroke-width:1;"/></g><!--link Webserver to sqlite--><g id="link_Webserver_sqlite"><path d="M285,153.59 C285,177.13 285,207.77 285,231.06 " fill="none" id="Webserver-to-sqlite" style="stroke:#181818;stroke-width:1;"/><polygon fill="#181818" points="285,237.06,289,228.06,285,232.06,281,228.06,285,237.06" style="stroke:#181818;stroke-width:1;"/></g><!--link Client1 to Client2--><!--reverse link http to Browser1--><g id="link_http_Browser1"><path d="M442.49,130 C466.18,130 483.87,130 507.57,130 " fill="none" id="http-backto-Browser1" style="stroke:#181818;stroke-width:1;stroke-dasharray:7.0,7.0;"/><polygon fill="#181818" points="436.49,130,445.49,134,441.49,130,445.49,126,436.49,130" style="stroke:#181818;stroke-width:1;"/></g><!--reverse link http to Browser2--><g id="link_http_Browser2"><path d="M436.36,144.3089 C452.7,167.5589 494.96,227.65 511.19,250.74 " fill="none" id="http-backto-Browser2" style="stroke:#181818;stroke-width:1;stroke-dasharray:7.0,7.0;"/><polygon fill="#181818" points="432.91,139.4,434.8123,149.0634,435.785,143.4908,441.3576,144.4634,432.91,139.4" style="stroke:#181818;stroke-width:1;"/></g><!--link Webserver to http--><g id="link_Webserver_http"><path d="M343.24,130 C368,130 392.76,130 417.51,130 " fill="none" id="Webserver-http" style="stroke:#181818;stroke-width:1;"/></g><!--SRC=[RL2nQiCm4Dtz5KUcP731deMX3JGT2bqA7KA6StIDHLn9FPrRqf9_hsnirGHhqF3UktVlNZWRwv7n0pmUptWYfPxnuZgfAlZD06h7cdZhMiVmocX359ELdedw4xlEwYNstLbPmeCGavEBfyT5nJMpJXEiTaQQhbuD6G3MBzX9iqdi_K_7D94Zv3qSeoKQIpnH_TCeM6CW29-j4KhuO0avxD-e3iHVn8V49GZol9eFNcE4iIXeXvuAKAgTDpO5shOc7bJCewmtyC3kEreNezkjl5oMbsdvw0hv_ibeJVOGyusZMTGt8ZxhFr1t_xjkW3ARtJUC_040]--></g></svg>