<svg xmlns="http://www.w3.org/2000/svg" xmlns:xlink="http://www.w3.org/1999/xlink" contentStyleType="text/css" height="559px" preserveAspectRatio="none" style="width:228px;height:559px;background:#FFFFFF;" version="1.1" viewBox="0 0 228 559" width="228px" zoomAndPan="magnify"><defs/><g><ellipse cx="114.4846" cy="20" fill="#222222" rx="10" ry="10" style="stroke:#222222;stroke-width:1;"/><rect fill="none" height="256.4444" style="stroke:#000000;stroke-width:1.5;" width="206.9692" x="11" y="40"/><path d="M79.9958,40 L79.9958,52.0679 L69.9958,62.0679 L11,62.0679 " fill="none" style="stroke:#000000;stroke-width:1.5;"/><text fill="#000000" font-family="sans-serif" font-size="14" lengthAdjust="spacing" textLength="33.5859" x="14" y="55.9659">Build</text><text fill="#000000" font-family="sans-serif" font-size="14" font-weight="bold" lengthAdjust="spacing" textLength="21.7699" x="51.2258" y="55.9659">job</text><rect fill="#F1F1F1" height="36.3441" rx="12.5" ry="12.5" style="stroke:#181818;stroke-width:0.5;" width="165.093" x="31.9381" y="79.0679"/><text fill="#000000" font-family="sans-serif" font-size="12" lengthAdjust="spacing" textLength="145.093" x="41.9381" y="101.896">Run actions/checkout@v4</text><rect fill="#F1F1F1" height="36.3441" rx="12.5" ry="12.5" style="stroke:#181818;stroke-width:0.5;" width="186.9692" x="21" y="135.412"/><text fill="#000000" font-family="sans-serif" font-size="12" lengthAdjust="spacing" textLength="166.9692" x="31" y="158.2401">Run actions/setup-dotnet@v4</text><rect fill="#F1F1F1" height="36.3441" rx="12.5" ry="12.5" style="stroke:#181818;stroke-width:0.5;" width="104.0846" x="62.4423" y="191.7561"/><text fill="#000000" font-family="sans-serif" font-size="12" lengthAdjust="spacing" textLength="84.0846" x="72.4423" y="214.5842">Publish project</text><rect fill="#F1F1F1" height="36.3441" rx="12.5" ry="12.5" style="stroke:#181818;stroke-width:0.5;" width="103.8086" x="62.5803" y="248.1003"/><text fill="#000000" font-family="sans-serif" font-size="12" lengthAdjust="spacing" textLength="83.8086" x="72.5803" y="270.9283">Upload artifact</text><rect fill="none" height="200.1003" style="stroke:#000000;stroke-width:1.5;" width="140.5247" x="44.2222" y="306.4444"/><path d="M125.5799,306.4444 L125.5799,318.5123 L115.5799,328.5123 L44.2222,328.5123 " fill="none" style="stroke:#000000;stroke-width:1.5;"/><text fill="#000000" font-family="sans-serif" font-size="14" lengthAdjust="spacing" textLength="45.9478" x="47.2222" y="322.4103">Deploy</text><text fill="#000000" font-family="sans-serif" font-size="14" font-weight="bold" lengthAdjust="spacing" textLength="21.7699" x="96.81" y="322.4103">job</text><rect fill="#F1F1F1" height="36.3441" rx="12.5" ry="12.5" style="stroke:#181818;stroke-width:0.5;" width="120.5247" x="54.2222" y="345.5123"/><text fill="#000000" font-family="sans-serif" font-size="12" lengthAdjust="spacing" textLength="100.5247" x="64.2222" y="368.3404">Download artifact</text><rect fill="#F1F1F1" height="36.3441" rx="12.5" ry="12.5" style="stroke:#181818;stroke-width:0.5;" width="101.7206" x="63.6243" y="401.8564"/><text fill="#000000" font-family="sans-serif" font-size="12" lengthAdjust="spacing" textLength="81.7206" x="73.6243" y="424.6845">Login to Azure</text><rect fill="#F1F1F1" height="36.3441" rx="12.5" ry="12.5" style="stroke:#181818;stroke-width:0.5;" width="109.6647" x="59.6523" y="458.2005"/><text fill="#000000" font-family="sans-serif" font-size="12" lengthAdjust="spacing" textLength="89.6647" x="69.6523" y="481.0286">Deploy to Azure</text><ellipse cx="114.4846" cy="537.5446" fill="none" rx="11" ry="11" style="stroke:#222222;stroke-width:1;"/><ellipse cx="114.4846" cy="537.5446" fill="#222222" rx="6" ry="6" style="stroke:#222222;stroke-width:1;"/><line style="stroke:#181818;stroke-width:1;" x1="114.4846" x2="114.4846" y1="115.412" y2="135.412"/><polygon fill="#181818" points="110.4846,125.412,114.4846,135.412,118.4846,125.412,114.4846,129.412" style="stroke:#181818;stroke-width:1;"/><line style="stroke:#181818;stroke-width:1;" x1="114.4846" x2="114.4846" y1="171.7561" y2="191.7561"/><polygon fill="#181818" points="110.4846,181.7561,114.4846,191.7561,118.4846,181.7561,114.4846,185.7561" style="stroke:#181818;stroke-width:1;"/><line style="stroke:#181818;stroke-width:1;" x1="114.4846" x2="114.4846" y1="228.1003" y2="248.1003"/><polygon fill="#181818" points="110.4846,238.1003,114.4846,248.1003,118.4846,238.1003,114.4846,242.1003" style="stroke:#181818;stroke-width:1;"/><line style="stroke:#181818;stroke-width:1;" x1="114.4846" x2="114.4846" y1="30" y2="79.0679"/><polygon fill="#181818" points="110.4846,69.0679,114.4846,79.0679,118.4846,69.0679,114.4846,73.0679" style="stroke:#181818;stroke-width:1;"/><line style="stroke:#181818;stroke-width:1;" x1="114.4846" x2="114.4846" y1="381.8564" y2="401.8564"/><polygon fill="#181818" points="110.4846,391.8564,114.4846,401.8564,118.4846,391.8564,114.4846,395.8564" style="stroke:#181818;stroke-width:1;"/><line style="stroke:#181818;stroke-width:1;" x1="114.4846" x2="114.4846" y1="438.2005" y2="458.2005"/><polygon fill="#181818" points="110.4846,448.2005,114.4846,458.2005,118.4846,448.2005,114.4846,452.2005" style="stroke:#181818;stroke-width:1;"/><line style="stroke:#181818;stroke-width:1;" x1="114.4846" x2="114.4846" y1="284.4444" y2="345.5123"/><polygon fill="#181818" points="110.4846,335.5123,114.4846,345.5123,118.4846,335.5123,114.4846,339.5123" style="stroke:#181818;stroke-width:1;"/><line style="stroke:#181818;stroke-width:1;" x1="114.4846" x2="114.4846" y1="494.5446" y2="526.5446"/><polygon fill="#181818" points="110.4846,516.5446,114.4846,526.5446,118.4846,516.5446,114.4846,520.5446" style="stroke:#181818;stroke-width:1;"/><!--SRC=[POw_2i8m48VtFiND0N5nqaMbeuC8Fa2Qd3Orv49oKLJwxYOIiDGRRlY- -_EBB0CtFZV3XXpiax4QX1Ye4mBU3UHQdv83gOgFIzMZkb7YxNsr-RSHEVc59dOucJYcpfhOWmyqeE9ApzwIr51UNsIXuoH7Yza-vq5QUhZPqfSVw6eSCC7kbG9MM4_ywDX49ly1]--></g></svg>