<svg xmlns="http://www.w3.org/2000/svg" xmlns:xlink="http://www.w3.org/1999/xlink" contentStyleType="text/css" height="195px" preserveAspectRatio="none" style="width:131px;height:195px;background:#FFFFFF;" version="1.1" viewBox="0 0 131 195" width="131px" zoomAndPan="magnify"><defs/><g><ellipse cx="65.8323" cy="20" fill="#222222" rx="10" ry="10" style="stroke:#222222;stroke-width:1;"/><rect fill="#F1F1F1" height="36.3441" rx="12.5" ry="12.5" style="stroke:#181818;stroke-width:0.5;" width="48.7882" x="41.4382" y="50"/><text fill="#000000" font-family="sans-serif" font-size="12" lengthAdjust="spacing" textLength="28.7882" x="51.4382" y="72.8281">Build</text><rect fill="#F1F1F1" height="36.3441" rx="12.5" ry="12.5" style="stroke:#181818;stroke-width:0.5;" width="109.6647" x="11" y="106.3441"/><text fill="#000000" font-family="sans-serif" font-size="12" lengthAdjust="spacing" textLength="89.6647" x="21" y="129.1722">Deploy to Azure</text><ellipse cx="65.8323" cy="173.6882" fill="none" rx="11" ry="11" style="stroke:#222222;stroke-width:1;"/><ellipse cx="65.8323" cy="173.6882" fill="#222222" rx="6" ry="6" style="stroke:#222222;stroke-width:1;"/><line style="stroke:#181818;stroke-width:1;" x1="65.8323" x2="65.8323" y1="30" y2="50"/><polygon fill="#181818" points="61.8323,40,65.8323,50,69.8323,40,65.8323,44" style="stroke:#181818;stroke-width:1;"/><line style="stroke:#181818;stroke-width:1;" x1="65.8323" x2="65.8323" y1="86.3441" y2="106.3441"/><polygon fill="#181818" points="61.8323,96.3441,65.8323,106.3441,69.8323,96.3441,65.8323,100.3441" style="stroke:#181818;stroke-width:1;"/><line style="stroke:#181818;stroke-width:1;" x1="65.8323" x2="65.8323" y1="142.6882" y2="162.6882"/><polygon fill="#181818" points="61.8323,152.6882,65.8323,162.6882,69.8323,152.6882,65.8323,156.6882" style="stroke:#181818;stroke-width:1;"/><!--SRC=[Aov9B2hXid8gpSn9iUQoSaajoCclL2Z9Lt2iAYrAjUOgBial0000]--></g></svg>