<svg xmlns="http://www.w3.org/2000/svg" xmlns:xlink="http://www.w3.org/1999/xlink" contentStyleType="text/css" height="353px" preserveAspectRatio="none" style="width:630px;height:353px;background:#FFFFFF;" version="1.1" viewBox="0 0 630 353" width="630px" zoomAndPan="magnify"><defs/><g><!--cluster Github--><g id="cluster_Github"><polygon fill="none" points="16,89.852,26,79.852,139,79.852,139,162.352,129,172.352,16,172.352,16,89.852" style="stroke:#181818;stroke-width:1;"/><line style="stroke:#181818;stroke-width:1;" x1="129" x2="139" y1="89.852" y2="79.852"/><line style="stroke:#181818;stroke-width:1;" x1="16" x2="129" y1="89.852" y2="89.852"/><line style="stroke:#181818;stroke-width:1;" x1="129" x2="129" y1="89.852" y2="172.352"/><text fill="#000000" font-family="sans-serif" font-size="14" font-weight="bold" lengthAdjust="spacing" textLength="47.4458" x="49.7771" y="107.8179">Github</text></g><!--cluster Azure--><g id="cluster_Azure"><polygon fill="none" points="163,31.072,173,21.072,385,21.072,385,326.632,375,336.632,163,336.632,163,31.072" style="stroke:#181818;stroke-width:1;"/><line style="stroke:#181818;stroke-width:1;" x1="375" x2="385" y1="31.072" y2="21.072"/><line style="stroke:#181818;stroke-width:1;" x1="163" x2="375" y1="31.072" y2="31.072"/><line style="stroke:#181818;stroke-width:1;" x1="375" x2="375" y1="31.072" y2="336.632"/><text fill="#000000" font-family="sans-serif" font-size="14" font-weight="bold" lengthAdjust="spacing" textLength="40.3058" x="249.8471" y="49.0379">Azure</text></g><!--cluster App container--><g id="cluster_App container"><polygon fill="none" points="187,82.072,197,72.072,361,72.072,361,302.632,351,312.632,187,312.632,187,82.072" style="stroke:#181818;stroke-width:1;"/><line style="stroke:#181818;stroke-width:1;" x1="351" x2="361" y1="82.072" y2="72.072"/><line style="stroke:#181818;stroke-width:1;" x1="187" x2="351" y1="82.072" y2="82.072"/><line style="stroke:#181818;stroke-width:1;" x1="351" x2="351" y1="82.072" y2="312.632"/><text fill="#000000" font-family="sans-serif" font-size="14" font-weight="bold" lengthAdjust="spacing" textLength="98.4616" x="220.7692" y="100.0379">App container</text></g><!--cluster layout1--><g id="cluster_layout1"><path d="M437.5,6.602 L490.9858,6.602 A3.75,3.75 0 0 1 493.4858,9.102 L500.4858,31.6699 L620.5,31.6699 A2.5,2.5 0 0 1 623,34.1699 L623,335.102 A2.5,2.5 0 0 1 620.5,337.602 L437.5,337.602 A2.5,2.5 0 0 1 435,335.102 L435,9.102 A2.5,2.5 0 0 1 437.5,6.602 " fill="none" style="stroke:none;stroke-width:1.5;"/><line style="stroke:none;stroke-width:1.5;" x1="435" x2="500.4858" y1="31.6699" y2="31.6699"/></g><!--cluster Client1--><g id="cluster_Client1"><polygon fill="none" points="467,89.602,477,79.602,591,79.602,591,162.602,581,172.602,467,172.602,467,89.602" style="stroke:#181818;stroke-width:1;"/><line style="stroke:#181818;stroke-width:1;" x1="581" x2="591" y1="89.602" y2="79.602"/><line style="stroke:#181818;stroke-width:1;" x1="467" x2="581" y1="89.602" y2="89.602"/><line style="stroke:#181818;stroke-width:1;" x1="581" x2="581" y1="89.602" y2="172.602"/><text fill="#000000" font-family="sans-serif" font-size="14" font-weight="bold" lengthAdjust="spacing" textLength="48.8878" x="500.5561" y="107.5679">Client1</text></g><!--cluster Client2--><g id="cluster_Client2"><polygon fill="none" points="467,222.602,477,212.602,591,212.602,591,295.602,581,305.602,467,305.602,467,222.602" style="stroke:#181818;stroke-width:1;"/><line style="stroke:#181818;stroke-width:1;" x1="581" x2="591" y1="222.602" y2="212.602"/><line style="stroke:#181818;stroke-width:1;" x1="467" x2="581" y1="222.602" y2="222.602"/><line style="stroke:#181818;stroke-width:1;" x1="581" x2="581" y1="222.602" y2="305.602"/><text fill="#000000" font-family="sans-serif" font-size="14" font-weight="bold" lengthAdjust="spacing" textLength="48.8878" x="500.5561" y="240.5679">Client2</text></g><g id="elem_Oauth"><ellipse cx="82.0001" cy="139.5971" fill="#F1F1F1" rx="41.3101" ry="16.7451" style="stroke:#181818;stroke-width:0.5;"/><text fill="#000000" font-family="sans-serif" font-size="14" lengthAdjust="spacing" textLength="41.1458" x="58.4272" y="144.33">Oauth</text></g><!--entity sqlite--><g id="elem_sqlite"><path d="M246.26,258.572 C246.26,248.572 274.0049,248.572 274.0049,248.572 C274.0049,248.572 301.7499,248.572 301.7499,258.572 L301.7499,286.6399 C301.7499,296.6399 274.0049,296.6399 274.0049,296.6399 C274.0049,296.6399 246.26,296.6399 246.26,286.6399 L246.26,258.572 " fill="#F1F1F1" style="stroke:#181818;stroke-width:0.5;"/><path d="M246.26,258.572 C246.26,268.572 274.0049,268.572 274.0049,268.572 C274.0049,268.572 301.7499,268.572 301.7499,258.572 " fill="none" style="stroke:#181818;stroke-width:0.5;"/><text fill="#000000" font-family="sans-serif" font-size="14" lengthAdjust="spacing" textLength="35.4899" x="256.26" y="287.5379">sqlite</text></g><!--entity Webserver--><g id="elem_Webserver"><rect fill="#F1F1F1" height="49.0679" rx="2.5" ry="2.5" style="stroke:#181818;stroke-width:0.5;" width="110.6997" x="218.65" y="115.072"/><rect fill="#F1F1F1" height="10" style="stroke:#181818;stroke-width:0.5;" width="15" x="309.3497" y="120.072"/><rect fill="#F1F1F1" height="2" style="stroke:#181818;stroke-width:0.5;" width="4" x="307.3497" y="122.072"/><rect fill="#F1F1F1" height="2" style="stroke:#181818;stroke-width:0.5;" width="4" x="307.3497" y="126.072"/><text fill="#000000" font-family="sans-serif" font-size="14" lengthAdjust="spacing" textLength="70.6997" x="233.65" y="150.0379">Webserver</text></g><!--entity Browser1--><g id="elem_Browser1"><ellipse cx="500" cy="139.602" fill="#F1F1F1" rx="8" ry="8" style="stroke:#181818;stroke-width:0.5;"/><text fill="#000000" font-family="sans-serif" font-size="14" lengthAdjust="spacing" textLength="62.7478" x="468.6261" y="171.5679">Browser1</text></g><!--entity Browser2--><g id="elem_Browser2"><ellipse cx="500" cy="272.602" fill="#F1F1F1" rx="8" ry="8" style="stroke:#181818;stroke-width:0.5;"/><text fill="#000000" font-family="sans-serif" font-size="14" lengthAdjust="spacing" textLength="62.7478" x="468.6261" y="304.5679">Browser2</text></g><!--entity http--><g id="elem_http"><ellipse cx="410" cy="139.602" fill="#F1F1F1" rx="8" ry="8" style="stroke:#181818;stroke-width:0.5;"/><text fill="#000000" font-family="sans-serif" font-size="14" lengthAdjust="spacing" textLength="27.3699" x="396.315" y="171.5679">http</text></g><!--link Oauth to Webserver--><g id="link_Oauth_Webserver"><path d="M123.62,139.602 C155.15,139.602 186.67,139.602 218.2,139.602 " fill="none" id="Oauth-Webserver" style="stroke:#181818;stroke-width:1;"/></g><!--link Webserver to sqlite--><g id="link_Webserver_sqlite"><path d="M274,164.632 C274,188.412 274,218.592 274,242.172 " fill="none" id="Webserver-to-sqlite" style="stroke:#181818;stroke-width:1;"/><polygon fill="#181818" points="274,248.172,278,239.172,274,243.172,270,239.172,274,248.172" style="stroke:#181818;stroke-width:1;"/></g><!--link Client1 to Client2--><!--reverse link http to Browser1--><g id="link_http_Browser1"><path d="M425.49,139.602 C449.18,139.602 466.87,139.602 490.57,139.602 " fill="none" id="http-backto-Browser1" style="stroke:#181818;stroke-width:1;stroke-dasharray:7.0,7.0;"/><polygon fill="#181818" points="419.49,139.602,428.49,143.602,424.49,139.602,428.49,135.602,419.49,139.602" style="stroke:#181818;stroke-width:1;"/></g><!--reverse link http to Browser2--><g id="link_http_Browser2"><path d="M419.0268,153.7379 C435.1868,177.2679 478.21,239.892 494.37,263.412 " fill="none" id="http-backto-Browser2" style="stroke:#181818;stroke-width:1;stroke-dasharray:7.0,7.0;"/><polygon fill="#181818" points="415.63,148.792,417.4279,158.4754,418.4606,152.9136,424.0224,153.9463,415.63,148.792" style="stroke:#181818;stroke-width:1;"/></g><!--link Webserver to http--><g id="link_Webserver_http"><path d="M329.78,139.602 C353.39,139.602 376.99,139.602 400.6,139.602 " fill="none" id="Webserver-http" style="stroke:#181818;stroke-width:1;"/></g><!--SRC=[RL2nQiCm4Dtz5KUcP731deMX3JGT2bqA7KA6StIDHLn9FPrRqf9_hsnirGHhqF3UktVlNZWRwv7n0pmUptWYfPxnuZgfAlZD06h7cdZhMiVmocX359ELdedw4xlEwYNstLbPmeCGavEBfyT5nJMpJXEiTaQQhbuD6G3MBzX9iqdi_K_7D94Zv3qSeoKQIpnH_TCeM6CW29-j4KhuO0avxD-e3iHVn8V49GZol9eFNcE4iIXeXvuAKAgTDpO5shOc7bJCewmtyC3kEreNezkjl5oMbsdvw0hv_ibeJVOGyusZMTGt8ZxhFr1t_xjkW3ARtJUC_040]--></g></svg>