<svg xmlns="http://www.w3.org/2000/svg" xmlns:xlink="http://www.w3.org/1999/xlink" contentStyleType="text/css" data-diagram-type="DESCRIPTION" height="339px" preserveAspectRatio="none" style="width:602px;height:339px;background:#FFFFFF;" version="1.1" viewBox="0 0 602 339" width="602px" zoomAndPan="magnify"><defs/><g><!--cluster Azure--><g id="cluster_Azure"><polygon fill="none" points="156.06,28.85,166.06,18.85,350.06,18.85,350.06,312.65,340.06,322.65,156.06,322.65,156.06,28.85" style="stroke:#181818;stroke-width:1;"/><line style="stroke:#181818;stroke-width:1;" x1="340.06" x2="350.06" y1="28.85" y2="18.85"/><line style="stroke:#181818;stroke-width:1;" x1="156.06" x2="340.06" y1="28.85" y2="28.85"/><line style="stroke:#181818;stroke-width:1;" x1="340.06" x2="340.06" y1="28.85" y2="322.65"/><text fill="#000000" font-family="sans-serif" font-size="14" font-weight="bold" lengthAdjust="spacing" textLength="45.3496" x="226.3852" y="44.8451">Azure</text></g><!--cluster Server--><g id="cluster_Server"><polygon fill="none" points="180.06,76.85,190.06,66.85,326.06,66.85,326.06,288.65,316.06,298.65,180.06,298.65,180.06,76.85" style="stroke:#181818;stroke-width:1;"/><line style="stroke:#181818;stroke-width:1;" x1="316.06" x2="326.06" y1="76.85" y2="66.85"/><line style="stroke:#181818;stroke-width:1;" x1="180.06" x2="316.06" y1="76.85" y2="76.85"/><line style="stroke:#181818;stroke-width:1;" x1="316.06" x2="316.06" y1="76.85" y2="298.65"/><text fill="#000000" font-family="sans-serif" font-size="14" font-weight="bold" lengthAdjust="spacing" textLength="52.0078" x="223.0561" y="92.8451">Server</text></g><!--cluster layout1--><g id="cluster_layout1"><path d="M402.56,6 L462.9506,6 A3.75,3.75 0 0 1 465.4506,8.5 L472.4506,28.2969 L592.56,28.2969 A2.5,2.5 0 0 1 595.06,30.7969 L595.06,322.5 A2.5,2.5 0 0 1 592.56,325 L402.56,325 A2.5,2.5 0 0 1 400.06,322.5 L400.06,8.5 A2.5,2.5 0 0 1 402.56,6 " fill="none" style="stroke:none;stroke-width:1.5;"/><line style="stroke:none;stroke-width:1.5;" x1="400.06" x2="472.4506" y1="28.2969" y2="28.2969"/></g><!--cluster Client1--><g id="cluster_Client1"><polygon fill="none" points="432.06,83,442.06,73,563.06,73,563.06,153,553.06,163,432.06,163,432.06,83" style="stroke:#181818;stroke-width:1;"/><line style="stroke:#181818;stroke-width:1;" x1="553.06" x2="563.06" y1="83" y2="73"/><line style="stroke:#181818;stroke-width:1;" x1="432.06" x2="553.06" y1="83" y2="83"/><line style="stroke:#181818;stroke-width:1;" x1="553.06" x2="553.06" y1="83" y2="163"/><text fill="#000000" font-family="sans-serif" font-size="14" font-weight="bold" lengthAdjust="spacing" textLength="55.7676" x="465.6762" y="98.9951">Client1</text></g><!--cluster Client2--><g id="cluster_Client2"><polygon fill="none" points="432.06,213,442.06,203,563.06,203,563.06,283,553.06,293,432.06,293,432.06,213" style="stroke:#181818;stroke-width:1;"/><line style="stroke:#181818;stroke-width:1;" x1="553.06" x2="563.06" y1="213" y2="203"/><line style="stroke:#181818;stroke-width:1;" x1="432.06" x2="553.06" y1="213" y2="213"/><line style="stroke:#181818;stroke-width:1;" x1="553.06" x2="553.06" y1="213" y2="293"/><text fill="#000000" font-family="sans-serif" font-size="14" font-weight="bold" lengthAdjust="spacing" textLength="55.7676" x="465.6762" y="228.9951">Client2</text></g><!--entity sqlite--><g id="elem_sqlite"><path d="M224.03,247.35 C224.03,237.35 253.0613,237.35 253.0613,237.35 C253.0613,237.35 282.0925,237.35 282.0925,247.35 L282.0925,272.6469 C282.0925,282.6469 253.0613,282.6469 253.0613,282.6469 C253.0613,282.6469 224.03,282.6469 224.03,272.6469 L224.03,247.35 " fill="#F1F1F1" style="stroke:#181818;stroke-width:0.5;"/><path d="M224.03,247.35 C224.03,257.35 253.0613,257.35 253.0613,257.35 C253.0613,257.35 282.0925,257.35 282.0925,247.35 " fill="none" style="stroke:#181818;stroke-width:0.5;"/><text fill="#000000" font-family="sans-serif" font-size="14" lengthAdjust="spacing" textLength="38.0625" x="234.03" y="274.3451">sqlite</text></g><!--entity webserver--><g id="elem_webserver"><rect fill="#F1F1F1" height="46.2969" rx="2.5" ry="2.5" style="stroke:#181818;stroke-width:0.5;" width="113.2676" x="196.43" y="106.85"/><rect fill="#F1F1F1" height="10" style="stroke:#181818;stroke-width:0.5;" width="15" x="289.6976" y="111.85"/><rect fill="#F1F1F1" height="2" style="stroke:#181818;stroke-width:0.5;" width="4" x="287.6976" y="113.85"/><rect fill="#F1F1F1" height="2" style="stroke:#181818;stroke-width:0.5;" width="4" x="287.6976" y="117.85"/><text fill="#000000" font-family="sans-serif" font-size="14" lengthAdjust="spacing" textLength="73.2676" x="211.43" y="139.8451">webserver</text></g><!--entity browser1--><g id="elem_browser1"><ellipse cx="465.06" cy="130" fill="#F1F1F1" rx="8" ry="8" style="stroke:#181818;stroke-width:0.5;"/><text fill="#000000" font-family="sans-serif" font-size="14" lengthAdjust="spacing" textLength="65.2285" x="432.4457" y="159.9951">browser1</text></g><!--entity browser2--><g id="elem_browser2"><ellipse cx="465.06" cy="260" fill="#F1F1F1" rx="8" ry="8" style="stroke:#181818;stroke-width:0.5;"/><text fill="#000000" font-family="sans-serif" font-size="14" lengthAdjust="spacing" textLength="65.2285" x="432.4457" y="289.9951">browser2</text></g><!--entity Github Auth--><g id="elem_Github Auth"><polygon fill="#F1F1F1" points="16,116.85,26,106.85,140.123,106.85,140.123,143.1469,130.123,153.1469,16,153.1469,16,116.85" style="stroke:#181818;stroke-width:0.5;"/><line style="stroke:#181818;stroke-width:0.5;" x1="130.123" x2="140.123" y1="116.85" y2="106.85"/><line style="stroke:#181818;stroke-width:0.5;" x1="16" x2="130.123" y1="116.85" y2="116.85"/><line style="stroke:#181818;stroke-width:0.5;" x1="130.123" x2="130.123" y1="116.85" y2="153.1469"/><text fill="#000000" font-family="sans-serif" font-size="14" lengthAdjust="spacing" textLength="84.123" x="31" y="139.8451">Github Auth</text></g><!--entity http--><g id="elem_http"><ellipse cx="375.06" cy="130" fill="#F1F1F1" rx="8" ry="8" style="stroke:#181818;stroke-width:0.5;"/><text fill="#000000" font-family="sans-serif" font-size="14" lengthAdjust="spacing" textLength="28.7383" x="360.6909" y="159.9951">http</text></g><!--link Github Auth to webserver--><g id="link_Github Auth_webserver"><path d="M140.61,130 C159.06,130 177.51,130 195.96,130 " fill="none" id="Github Auth-webserver" style="stroke:#181818;stroke-width:1;"/></g><!--link webserver to sqlite--><g id="link_webserver_sqlite"><path d="M253.06,153.59 C253.06,177.13 253.06,207.77 253.06,231.06 " fill="none" id="webserver-to-sqlite" style="stroke:#181818;stroke-width:1;"/><polygon fill="#181818" points="253.06,237.06,257.06,228.06,253.06,232.06,249.06,228.06,253.06,237.06" style="stroke:#181818;stroke-width:1;"/></g><!--link Client1 to Client2--><!--reverse link http to browser1--><g id="link_http_browser1"><path d="M390.55,130 C414.24,130 431.94,130 455.63,130 " fill="none" id="http-backto-browser1" style="stroke:#181818;stroke-width:1;stroke-dasharray:7.0,7.0;"/><polygon fill="#181818" points="384.55,130,393.55,134,389.55,130,393.55,126,384.55,130" style="stroke:#181818;stroke-width:1;"/></g><!--reverse link http to browser2--><g id="link_http_browser2"><path d="M384.42,144.3089 C400.76,167.5589 443.02,227.65 459.25,250.74 " fill="none" id="http-backto-browser2" style="stroke:#181818;stroke-width:1;stroke-dasharray:7.0,7.0;"/><polygon fill="#181818" points="380.97,139.4,382.8723,149.0634,383.845,143.4908,389.4176,144.4634,380.97,139.4" style="stroke:#181818;stroke-width:1;"/></g><!--link webserver to http--><g id="link_webserver_http"><path d="M309.77,130 C328.39,130 347.01,130 365.63,130 " fill="none" id="webserver-http" style="stroke:#181818;stroke-width:1;"/></g><!--SRC=[RP11JyCm38Nl_HLMJt0eKdkEAasJW0EtxJRja12pHWj9SHocWVRVIKjMobGVFpy_FpiSZUiboNVevUjH7b285tdsaTiMlWi0vKaZhRtr15kIBYGnEXuwINyW7vrUwhvvnqiyC19wFlVukAYu5CvhXFB9S1SLh29tPKQhhqXOZga0Vj46wHFfoeRIagMI0I5yMCCuyN-6KC7kX2gCq_j9Co6egdPkS4cnydl0Zj-fGGWx_zCrqTgQT4OzZtHt3uhyALdNsUrMtYpBcsbvTeLgzsoqHhTF-V9eqJ7t81x-Tjo0ffZT1KFp1m00]--></g></svg>