<svg xmlns="http://www.w3.org/2000/svg" xmlns:xlink="http://www.w3.org/1999/xlink" contentStyleType="text/css" height="354px" preserveAspectRatio="none" style="width:401px;height:354px;background:#FFFFFF;" version="1.1" viewBox="0 0 401 354" width="401px" zoomAndPan="magnify"><defs/><g><!--class Author--><g id="elem_Author"><rect fill="#F1F1F1" height="67.0679" id="Author" rx="2.5" ry="2.5" style="stroke:#181818;stroke-width:0.5;" width="95.5657" x="185.08" y="7"/><ellipse cx="208.1844" cy="23" fill="#ADD1B2" rx="11" ry="11" style="stroke:#181818;stroke-width:1;"/><path d="M207.6532,29.9219 Q205.9032,29.9219 204.7626,29.1875 Q203.6376,28.4375 203.0751,27.0938 Q202.5282,25.7344 202.5282,23.9375 Q202.5282,21.9063 203.1844,20.4531 Q203.8407,19 205.1219,18.2188 Q206.4032,17.4375 208.2782,17.4375 Q209.1688,17.4375 209.8407,17.625 Q210.5126,17.7969 211.2001,18.1406 L210.3876,20.1563 Q209.7626,19.8438 209.2157,19.7188 Q208.6844,19.5938 208.2001,19.5938 Q207.0282,19.5938 206.3251,20.125 Q205.6219,20.6563 205.3251,21.6094 Q205.0282,22.5625 205.0282,23.8281 Q205.0282,25.8438 205.7469,26.8125 Q206.4657,27.7656 208.0594,27.7656 Q208.6532,27.7656 209.2782,27.6094 Q209.9032,27.4531 210.7313,27.0781 L210.7313,29.2969 Q209.9969,29.6094 209.2001,29.7656 Q208.4188,29.9219 207.6532,29.9219 Z " fill="#000000"/><text fill="#000000" font-family="sans-serif" font-size="14" lengthAdjust="spacing" textLength="45.5558" x="223.9854" y="28.432">Author</text><line style="stroke:#181818;stroke-width:0.5;" x1="186.08" x2="279.6457" y1="39" y2="39"/><text fill="#000000" font-family="sans-serif" font-size="14" lengthAdjust="spacing" textLength="83.5657" x="191.08" y="57.9659">string avatar</text><line style="stroke:#181818;stroke-width:0.5;" x1="186.08" x2="279.6457" y1="66.0679" y2="66.0679"/></g><!--class Cheep--><g id="elem_Cheep"><rect fill="#F1F1F1" height="48" id="Cheep" rx="2.5" ry="2.5" style="stroke:#181818;stroke-width:0.5;" width="73.9018" x="46.91" y="143.6"/><ellipse cx="61.91" cy="159.6" fill="#ADD1B2" rx="11" ry="11" style="stroke:#181818;stroke-width:1;"/><path d="M61.3788,166.5219 Q59.6288,166.5219 58.4881,165.7875 Q57.3631,165.0375 56.8006,163.6938 Q56.2538,162.3344 56.2538,160.5375 Q56.2538,158.5063 56.91,157.0531 Q57.5663,155.6 58.8475,154.8188 Q60.1288,154.0375 62.0038,154.0375 Q62.8944,154.0375 63.5663,154.225 Q64.2381,154.3969 64.9256,154.7406 L64.1131,156.7563 Q63.4881,156.4438 62.9413,156.3188 Q62.41,156.1938 61.9256,156.1938 Q60.7538,156.1938 60.0506,156.725 Q59.3475,157.2563 59.0506,158.2094 Q58.7538,159.1625 58.7538,160.4281 Q58.7538,162.4438 59.4725,163.4125 Q60.1913,164.3656 61.785,164.3656 Q62.3788,164.3656 63.0038,164.2094 Q63.6288,164.0531 64.4569,163.6781 L64.4569,165.8969 Q63.7225,166.2094 62.9256,166.3656 Q62.1444,166.5219 61.3788,166.5219 Z " fill="#000000"/><text fill="#000000" font-family="sans-serif" font-size="14" lengthAdjust="spacing" textLength="41.9018" x="75.91" y="165.032">Cheep</text><line style="stroke:#181818;stroke-width:0.5;" x1="47.91" x2="119.8118" y1="175.6" y2="175.6"/><line style="stroke:#181818;stroke-width:0.5;" x1="47.91" x2="119.8118" y1="183.6" y2="183.6"/></g><!--class AuthorFollow--><g id="elem_AuthorFollow"><rect fill="#F1F1F1" height="67.0679" id="AuthorFollow" rx="2.5" ry="2.5" style="stroke:#181818;stroke-width:0.5;" width="153.7215" x="156" y="134.07"/><ellipse cx="186.1793" cy="150.07" fill="#ADD1B2" rx="11" ry="11" style="stroke:#181818;stroke-width:1;"/><path d="M185.6481,156.9919 Q183.8981,156.9919 182.7574,156.2575 Q181.6324,155.5075 181.0699,154.1638 Q180.5231,152.8044 180.5231,151.0075 Q180.5231,148.9763 181.1793,147.5231 Q181.8356,146.07 183.1168,145.2888 Q184.3981,144.5075 186.2731,144.5075 Q187.1637,144.5075 187.8356,144.695 Q188.5074,144.8669 189.1949,145.2106 L188.3824,147.2263 Q187.7574,146.9138 187.2106,146.7888 Q186.6793,146.6638 186.1949,146.6638 Q185.0231,146.6638 184.3199,147.195 Q183.6168,147.7263 183.3199,148.6794 Q183.0231,149.6325 183.0231,150.8981 Q183.0231,152.9138 183.7418,153.8825 Q184.4606,154.8356 186.0543,154.8356 Q186.6481,154.8356 187.2731,154.6794 Q187.8981,154.5231 188.7262,154.1481 L188.7262,156.3669 Q187.9918,156.6794 187.1949,156.8356 Q186.4137,156.9919 185.6481,156.9919 Z " fill="#000000"/><text fill="#000000" font-family="sans-serif" font-size="14" lengthAdjust="spacing" textLength="87.9897" x="203.5525" y="155.502">AuthorFollow</text><line style="stroke:#181818;stroke-width:0.5;" x1="157" x2="308.7215" y1="166.07" y2="166.07"/><text fill="#000000" font-family="sans-serif" font-size="14" lengthAdjust="spacing" textLength="141.7215" x="162" y="185.0359">DateTime TimeStamp</text><line style="stroke:#181818;stroke-width:0.5;" x1="157" x2="308.7215" y1="193.1379" y2="193.1379"/></g><!--class CheepRevistion--><g id="elem_CheepRevistion"><rect fill="#F1F1F1" height="86.1358" id="CheepRevistion" rx="2.5" ry="2.5" style="stroke:#181818;stroke-width:0.5;" width="153.7215" x="7" y="261.13"/><ellipse cx="30.999" cy="277.13" fill="#ADD1B2" rx="11" ry="11" style="stroke:#181818;stroke-width:1;"/><path d="M30.4678,284.0519 Q28.7178,284.0519 27.5772,283.3175 Q26.4522,282.5675 25.8897,281.2238 Q25.3428,279.8644 25.3428,278.0675 Q25.3428,276.0363 25.999,274.5831 Q26.6553,273.13 27.9365,272.3488 Q29.2178,271.5675 31.0928,271.5675 Q31.9834,271.5675 32.6553,271.755 Q33.3272,271.9269 34.0147,272.2706 L33.2022,274.2863 Q32.5772,273.9738 32.0303,273.8488 Q31.499,273.7238 31.0147,273.7238 Q29.8428,273.7238 29.1397,274.255 Q28.4365,274.7863 28.1397,275.7394 Q27.8428,276.6925 27.8428,277.9581 Q27.8428,279.9738 28.5615,280.9425 Q29.2803,281.8956 30.874,281.8956 Q31.4678,281.8956 32.0928,281.7394 Q32.7178,281.5831 33.5459,281.2081 L33.5459,283.4269 Q32.8115,283.7394 32.0147,283.8956 Q31.2334,284.0519 30.4678,284.0519 Z " fill="#000000"/><text fill="#000000" font-family="sans-serif" font-size="14" lengthAdjust="spacing" textLength="101.7236" x="46.9988" y="282.562">CheepRevistion</text><line style="stroke:#181818;stroke-width:0.5;" x1="8" x2="159.7215" y1="293.13" y2="293.13"/><text fill="#000000" font-family="sans-serif" font-size="14" lengthAdjust="spacing" textLength="100.4216" x="13" y="312.0959">string Message</text><text fill="#000000" font-family="sans-serif" font-size="14" lengthAdjust="spacing" textLength="141.7215" x="13" y="331.1639">DateTime TimeStamp</text><line style="stroke:#181818;stroke-width:0.5;" x1="8" x2="159.7215" y1="339.2658" y2="339.2658"/></g><!--class CheepLike--><g id="elem_CheepLike"><rect fill="#F1F1F1" height="67.0679" id="CheepLike" rx="2.5" ry="2.5" style="stroke:#181818;stroke-width:0.5;" width="153.7215" x="241" y="270.67"/><ellipse cx="280.0749" cy="286.67" fill="#ADD1B2" rx="11" ry="11" style="stroke:#181818;stroke-width:1;"/><path d="M279.5436,293.5919 Q277.7936,293.5919 276.653,292.8575 Q275.528,292.1075 274.9655,290.7637 Q274.4186,289.4044 274.4186,287.6075 Q274.4186,285.5762 275.0749,284.1231 Q275.7311,282.67 277.0124,281.8887 Q278.2936,281.1075 280.1686,281.1075 Q281.0593,281.1075 281.7311,281.295 Q282.403,281.4669 283.0905,281.8106 L282.278,283.8262 Q281.653,283.5137 281.1061,283.3887 Q280.5749,283.2637 280.0905,283.2637 Q278.9186,283.2637 278.2155,283.795 Q277.5124,284.3262 277.2155,285.2794 Q276.9186,286.2325 276.9186,287.4981 Q276.9186,289.5137 277.6374,290.4825 Q278.3561,291.4356 279.9499,291.4356 Q280.5436,291.4356 281.1686,291.2794 Q281.7936,291.1231 282.6218,290.7481 L282.6218,292.9669 Q281.8874,293.2794 281.0905,293.4356 Q280.3093,293.5919 279.5436,293.5919 Z " fill="#000000"/><text fill="#000000" font-family="sans-serif" font-size="14" lengthAdjust="spacing" textLength="68.2217" x="299.4249" y="292.102">CheepLike</text><line style="stroke:#181818;stroke-width:0.5;" x1="242" x2="393.7215" y1="302.67" y2="302.67"/><text fill="#000000" font-family="sans-serif" font-size="14" lengthAdjust="spacing" textLength="141.7215" x="247" y="321.6359">DateTime TimeStamp</text><line style="stroke:#181818;stroke-width:0.5;" x1="242" x2="393.7215" y1="329.7379" y2="329.7379"/></g><!--link Author to Cheep--><g id="link_Author_Cheep"><path codeLine="1" d="M193.71,74.39 C167.85,96.1 134.58,124.03 111.46,143.43 " fill="none" id="Author-Cheep" style="stroke:#181818;stroke-width:1;"/><text fill="#000000" font-family="sans-serif" font-size="13" lengthAdjust="spacing" textLength="7.436" x="179.1513" y="95.8946">1</text><text fill="#000000" font-family="sans-serif" font-size="13" lengthAdjust="spacing" textLength="34.112" x="80.3236" y="131.6418">many</text></g><!--link Author to AuthorFollow--><g id="link_Author_AuthorFollow"><path codeLine="2" d="M221.15,74.39 C219.26,92.78 219.26,115.61 221.17,133.96 " fill="none" id="Author-AuthorFollow" style="stroke:#181818;stroke-width:1;"/><text fill="#000000" font-family="sans-serif" font-size="13" lengthAdjust="spacing" textLength="7.436" x="211.479" y="95.8946">1</text><text fill="#000000" font-family="sans-serif" font-size="13" lengthAdjust="spacing" textLength="34.112" x="181.2641" y="122.2376">many</text></g><!--link AuthorFollow to Author--><g id="link_AuthorFollow_Author"><path codeLine="3" d="M244.55,133.96 C246.46,115.61 246.46,92.78 244.57,74.39 " fill="none" id="AuthorFollow-Author" style="stroke:#181818;stroke-width:1;"/><text fill="#000000" font-family="sans-serif" font-size="13" lengthAdjust="spacing" textLength="7.436" x="239.284" y="122.2376">1</text><text fill="#000000" font-family="sans-serif" font-size="13" lengthAdjust="spacing" textLength="34.112" x="249.6934" y="95.8946">many</text></g><!--link Cheep to CheepRevistion--><g id="link_Cheep_CheepRevistion"><path codeLine="5" d="M83.86,192.05 C83.86,210.95 83.86,238.03 83.86,260.73 " fill="none" id="Cheep-CheepRevistion" style="stroke:#181818;stroke-width:1;"/><text fill="#000000" font-family="sans-serif" font-size="13" lengthAdjust="spacing" textLength="7.436" x="76.1008" y="213.6483">1</text><text fill="#000000" font-family="sans-serif" font-size="13" lengthAdjust="spacing" textLength="34.112" x="47.1594" y="249.4009">many</text></g><!--link Cheep to CheepLike--><g id="link_Cheep_CheepLike"><path codeLine="6" d="M121.09,190.73 C127.03,194.23 133.1,197.79 138.86,201.13 C179.08,224.49 224.61,250.45 259.68,270.34 " fill="none" id="Cheep-CheepLike" style="stroke:#181818;stroke-width:1;"/><text fill="#000000" font-family="sans-serif" font-size="13" lengthAdjust="spacing" textLength="34.112" x="113.7568" y="192.6707">many</text><text fill="#000000" font-family="sans-serif" font-size="13" lengthAdjust="spacing" textLength="34.112" x="210.8898" y="258.9661">many</text></g><!--link CheepLike to Author--><g id="link_CheepLike_Author"><path codeLine="7" d="M327.81,270.28 C336.61,235.1 345.43,178.41 326.86,134.07 C317.04,110.62 298.06,90.11 279.72,74.4 " fill="none" id="CheepLike-Author" style="stroke:#181818;stroke-width:1;"/><text fill="#000000" font-family="sans-serif" font-size="13" lengthAdjust="spacing" textLength="34.112" x="292.4329" y="258.8943">many</text><text fill="#000000" font-family="sans-serif" font-size="13" lengthAdjust="spacing" textLength="34.112" x="288.7078" y="94.3044">many</text></g><!--SRC=[SomjoSWlKb0oL5BGrLLGoatCgrHISCv8JItWSiGc1H5qoy_9oI_dGkPWLSV51JOAc_51gMMPnIMP-Nam9H0vD5K-cTcfN70MfYAODL2tMYaKbnHbvgKh99ObbYJ2nQ4kj59mIIn93SdCJLK04S4bYRa5N4Ycuv67knPXXMzgSN5YUYgcFAOX0000]--></g></svg>