<svg xmlns="http://www.w3.org/2000/svg" xmlns:xlink="http://www.w3.org/1999/xlink" contentStyleType="text/css" height="557px" preserveAspectRatio="none" style="width:652px;height:557px;background:#FFFFFF;" version="1.1" viewBox="0 0 652 557" width="652px" zoomAndPan="magnify"><defs/><g><!--class IdentityUser--><g id="elem_IdentityUser"><rect codeLine="1" fill="#F1F1F1" height="67.0679" id="IdentityUser" rx="2.5" ry="2.5" style="stroke:#181818;stroke-width:0.5;" width="113.3817" x="269.68" y="7"/><ellipse cx="284.68" cy="23" fill="#ADD1B2" rx="11" ry="11" style="stroke:#181818;stroke-width:1.0;"/><path d="M284.4769,29.7344 Q281.9925,29.7344 280.6644,28.0938 Q279.3519,26.4219 279.3519,23.3125 Q279.3519,20.1875 280.6644,18.5313 Q281.9925,16.875 284.4769,16.875 Q285.1956,16.875 285.8519,17.0313 Q286.4925,17.1875 287.055,17.4844 L287.055,20.2031 Q286.6956,19.8594 286.3988,19.6719 Q286.1019,19.4688 285.8363,19.3438 Q285.5238,19.2031 285.2113,19.1406 Q284.9144,19.0781 284.6019,19.0781 Q283.2738,19.0781 282.5863,20.1406 Q281.8988,21.2344 281.8988,23.3125 Q281.8988,25.4063 282.5863,26.4688 Q283.2738,27.5469 284.6019,27.5469 Q285.2425,27.5469 285.8363,27.2656 Q286.1331,27.1406 286.4144,26.9531 Q286.7113,26.75 287.055,26.4219 L287.055,29.1406 Q286.4769,29.4375 285.8363,29.5938 Q285.1956,29.7344 284.4769,29.7344 Z " fill="#000000"/><text fill="#000000" font-family="sans-serif" font-size="14" lengthAdjust="spacing" textLength="81.3817" x="298.68" y="28.432">IdentityUser</text><line style="stroke:#181818;stroke-width:0.5;" x1="270.68" x2="382.0617" y1="39" y2="39"/><text fill="#000000" font-family="sans-serif" font-size="14" lengthAdjust="spacing" textLength="11.256" x="275.68" y="57.9659">...</text><line style="stroke:#181818;stroke-width:0.5;" x1="270.68" x2="382.0617" y1="66.0679" y2="66.0679"/></g><!--class Author--><g id="elem_Author"><rect codeLine="5" fill="#F1F1F1" height="67.0679" id="Author" rx="2.5" ry="2.5" style="stroke:#181818;stroke-width:0.5;" width="113.3177" x="269.71" y="153.13"/><ellipse cx="300.8028" cy="169.13" fill="#ADD1B2" rx="11" ry="11" style="stroke:#181818;stroke-width:1.0;"/><path d="M300.5997,175.8644 Q298.1153,175.8644 296.7872,174.2238 Q295.4747,172.5519 295.4747,169.4425 Q295.4747,166.3175 296.7872,164.6613 Q298.1153,163.005 300.5997,163.005 Q301.3185,163.005 301.9747,163.1613 Q302.6153,163.3175 303.1778,163.6144 L303.1778,166.3331 Q302.8185,165.9894 302.5216,165.8019 Q302.2247,165.5988 301.9591,165.4738 Q301.6466,165.3331 301.3341,165.2706 Q301.0372,165.2081 300.7247,165.2081 Q299.3966,165.2081 298.7091,166.2706 Q298.0216,167.3644 298.0216,169.4425 Q298.0216,171.5363 298.7091,172.5988 Q299.3966,173.6769 300.7247,173.6769 Q301.3653,173.6769 301.9591,173.3956 Q302.256,173.2706 302.5372,173.0831 Q302.8341,172.88 303.1778,172.5519 L303.1778,175.2706 Q302.5997,175.5675 301.9591,175.7238 Q301.3185,175.8644 300.5997,175.8644 Z " fill="#000000"/><text fill="#000000" font-family="sans-serif" font-size="14" lengthAdjust="spacing" textLength="45.5558" x="318.379" y="174.562">Author</text><line style="stroke:#181818;stroke-width:0.5;" x1="270.71" x2="382.0277" y1="185.13" y2="185.13"/><ellipse cx="280.71" cy="200.164" fill="none" rx="3" ry="3" style="stroke:#038048;stroke-width:1.0;"/><text fill="#000000" font-family="sans-serif" font-size="14" lengthAdjust="spacing" textLength="87.3177" x="289.71" y="204.0959">avatar: string</text><line style="stroke:#181818;stroke-width:0.5;" x1="270.71" x2="382.0277" y1="212.1979" y2="212.1979"/></g><!--class AuthorFollow--><g id="elem_AuthorFollow"><rect codeLine="9" fill="#F1F1F1" height="105.2038" id="AuthorFollow" rx="2.5" ry="2.5" style="stroke:#181818;stroke-width:0.5;" width="168.7435" x="7" y="134.07"/><ellipse cx="43.9392" cy="150.07" fill="#ADD1B2" rx="11" ry="11" style="stroke:#181818;stroke-width:1.0;"/><path d="M43.7361,156.8044 Q41.2517,156.8044 39.9236,155.1638 Q38.6111,153.4919 38.6111,150.3825 Q38.6111,147.2575 39.9236,145.6013 Q41.2517,143.945 43.7361,143.945 Q44.4548,143.945 45.1111,144.1013 Q45.7517,144.2575 46.3142,144.5544 L46.3142,147.2731 Q45.9548,146.9294 45.658,146.7419 Q45.3611,146.5388 45.0955,146.4138 Q44.783,146.2731 44.4705,146.2106 Q44.1736,146.1481 43.8611,146.1481 Q42.533,146.1481 41.8455,147.2106 Q41.158,148.3044 41.158,150.3825 Q41.158,152.4763 41.8455,153.5388 Q42.533,154.6169 43.8611,154.6169 Q44.5017,154.6169 45.0955,154.3356 Q45.3923,154.2106 45.6736,154.0231 Q45.9705,153.82 46.3142,153.4919 L46.3142,156.2106 Q45.7361,156.5075 45.0955,156.6638 Q44.4548,156.8044 43.7361,156.8044 Z " fill="#000000"/><text fill="#000000" font-family="sans-serif" font-size="14" lengthAdjust="spacing" textLength="87.9897" x="62.8146" y="155.502">AuthorFollow</text><line style="stroke:#181818;stroke-width:0.5;" x1="8" x2="174.7435" y1="166.07" y2="166.07"/><ellipse cx="18" cy="181.104" fill="none" rx="3" ry="3" style="stroke:#038048;stroke-width:1.0;"/><text fill="#000000" font-family="sans-serif" font-size="14" lengthAdjust="spacing" textLength="112.8256" x="27" y="185.0359">followerId: string</text><ellipse cx="18" cy="200.1719" fill="none" rx="3" ry="3" style="stroke:#038048;stroke-width:1.0;"/><text fill="#000000" font-family="sans-serif" font-size="14" lengthAdjust="spacing" textLength="114.9396" x="27" y="204.1039">followeeId: string</text><ellipse cx="18" cy="219.2398" fill="none" rx="3" ry="3" style="stroke:#038048;stroke-width:1.0;"/><text fill="#000000" font-family="sans-serif" font-size="14" lengthAdjust="spacing" textLength="142.7435" x="27" y="223.1718">timeStamp: DateTime</text><line style="stroke:#181818;stroke-width:0.5;" x1="8" x2="174.7435" y1="231.2738" y2="231.2738"/></g><!--class Cheep--><g id="elem_Cheep"><rect codeLine="15" fill="#F1F1F1" height="86.1358" id="Cheep" rx="2.5" ry="2.5" style="stroke:#181818;stroke-width:0.5;" width="169.2054" x="293.77" y="299.27"/><ellipse cx="353.1718" cy="315.27" fill="#ADD1B2" rx="11" ry="11" style="stroke:#181818;stroke-width:1.0;"/><path d="M352.9687,322.0044 Q350.4843,322.0044 349.1562,320.3638 Q347.8437,318.6919 347.8437,315.5825 Q347.8437,312.4575 349.1562,310.8013 Q350.4843,309.145 352.9687,309.145 Q353.6874,309.145 354.3437,309.3013 Q354.9843,309.4575 355.5468,309.7544 L355.5468,312.4731 Q355.1874,312.1294 354.8906,311.9419 Q354.5937,311.7388 354.3281,311.6138 Q354.0156,311.4731 353.7031,311.4106 Q353.4062,311.3481 353.0937,311.3481 Q351.7656,311.3481 351.0781,312.4106 Q350.3906,313.5044 350.3906,315.5825 Q350.3906,317.6763 351.0781,318.7388 Q351.7656,319.8169 353.0937,319.8169 Q353.7343,319.8169 354.3281,319.5356 Q354.6249,319.4106 354.9062,319.2231 Q355.2031,319.02 355.5468,318.6919 L355.5468,321.4106 Q354.9687,321.7075 354.3281,321.8638 Q353.6874,322.0044 352.9687,322.0044 Z " fill="#000000"/><text fill="#000000" font-family="sans-serif" font-size="14" lengthAdjust="spacing" textLength="41.9018" x="373.6718" y="320.702">Cheep</text><line style="stroke:#181818;stroke-width:0.5;" x1="294.77" x2="461.9754" y1="331.27" y2="331.27"/><ellipse cx="304.77" cy="346.304" fill="none" rx="3" ry="3" style="stroke:#038048;stroke-width:1.0;"/><text fill="#000000" font-family="sans-serif" font-size="14" lengthAdjust="spacing" textLength="103.6276" x="313.77" y="350.2359">authorId: string</text><ellipse cx="304.77" cy="365.3719" fill="none" rx="3" ry="3" style="stroke:#038048;stroke-width:1.0;"/><text fill="#000000" font-family="sans-serif" font-size="14" lengthAdjust="spacing" textLength="143.2054" x="313.77" y="369.3039">cheepOwnerId: string</text><line style="stroke:#181818;stroke-width:0.5;" x1="294.77" x2="461.9754" y1="377.4058" y2="377.4058"/></g><!--class CheepLike--><g id="elem_CheepLike"><rect codeLine="20" fill="#F1F1F1" height="67.0679" id="CheepLike" rx="2.5" ry="2.5" style="stroke:#181818;stroke-width:0.5;" width="168.7435" x="477" y="153.13"/><ellipse cx="523.0109" cy="169.13" fill="#ADD1B2" rx="11" ry="11" style="stroke:#181818;stroke-width:1.0;"/><path d="M522.8077,175.8644 Q520.3234,175.8644 518.9952,174.2238 Q517.6827,172.5519 517.6827,169.4425 Q517.6827,166.3175 518.9952,164.6613 Q520.3234,163.005 522.8077,163.005 Q523.5265,163.005 524.1827,163.1613 Q524.8234,163.3175 525.3859,163.6144 L525.3859,166.3331 Q525.0265,165.9894 524.7296,165.8019 Q524.4327,165.5988 524.1671,165.4738 Q523.8546,165.3331 523.5421,165.2706 Q523.2452,165.2081 522.9327,165.2081 Q521.6046,165.2081 520.9171,166.2706 Q520.2296,167.3644 520.2296,169.4425 Q520.2296,171.5363 520.9171,172.5988 Q521.6046,173.6769 522.9327,173.6769 Q523.5734,173.6769 524.1671,173.3956 Q524.464,173.2706 524.7452,173.0831 Q525.0421,172.88 525.3859,172.5519 L525.3859,175.2706 Q524.8077,175.5675 524.1671,175.7238 Q523.5265,175.8644 522.8077,175.8644 Z " fill="#000000"/><text fill="#000000" font-family="sans-serif" font-size="14" lengthAdjust="spacing" textLength="68.2217" x="543.5109" y="174.562">CheepLike</text><line style="stroke:#181818;stroke-width:0.5;" x1="478" x2="644.7435" y1="185.13" y2="185.13"/><ellipse cx="488" cy="200.164" fill="none" rx="3" ry="3" style="stroke:#038048;stroke-width:1.0;"/><text fill="#000000" font-family="sans-serif" font-size="14" lengthAdjust="spacing" textLength="142.7435" x="497" y="204.0959">timeStamp: DateTime</text><line style="stroke:#181818;stroke-width:0.5;" x1="478" x2="644.7435" y1="212.1979" y2="212.1979"/></g><!--class CheepRevision--><g id="elem_CheepRevision"><rect codeLine="24" fill="#F1F1F1" height="105.2038" id="CheepRevision" rx="2.5" ry="2.5" style="stroke:#181818;stroke-width:0.5;" width="168.7435" x="294" y="445.41"/><ellipse cx="327.0332" cy="461.41" fill="#ADD1B2" rx="11" ry="11" style="stroke:#181818;stroke-width:1.0;"/><path d="M326.8301,468.1444 Q324.3457,468.1444 323.0176,466.5038 Q321.7051,464.8319 321.7051,461.7225 Q321.7051,458.5975 323.0176,456.9413 Q324.3457,455.285 326.8301,455.285 Q327.5489,455.285 328.2051,455.4413 Q328.8457,455.5975 329.4082,455.8944 L329.4082,458.6131 Q329.0489,458.2694 328.752,458.0819 Q328.4551,457.8788 328.1895,457.7538 Q327.877,457.6131 327.5645,457.5506 Q327.2676,457.4881 326.9551,457.4881 Q325.627,457.4881 324.9395,458.5506 Q324.252,459.6444 324.252,461.7225 Q324.252,463.8163 324.9395,464.8788 Q325.627,465.9569 326.9551,465.9569 Q327.5957,465.9569 328.1895,465.6756 Q328.4864,465.5506 328.7676,465.3631 Q329.0645,465.16 329.4082,464.8319 L329.4082,467.5506 Q328.8301,467.8475 328.1895,468.0038 Q327.5489,468.1444 326.8301,468.1444 Z " fill="#000000"/><text fill="#000000" font-family="sans-serif" font-size="14" lengthAdjust="spacing" textLength="96.6696" x="345.0406" y="466.842">CheepRevision</text><line style="stroke:#181818;stroke-width:0.5;" x1="295" x2="461.7435" y1="477.41" y2="477.41"/><ellipse cx="305" cy="492.444" fill="none" rx="3" ry="3" style="stroke:#038048;stroke-width:1.0;"/><text fill="#000000" font-family="sans-serif" font-size="14" lengthAdjust="spacing" textLength="50.6798" x="314" y="496.3759">id: Guid</text><ellipse cx="305" cy="511.5119" fill="none" rx="3" ry="3" style="stroke:#038048;stroke-width:1.0;"/><text fill="#000000" font-family="sans-serif" font-size="14" lengthAdjust="spacing" textLength="104.5656" x="314" y="515.4439">message: string</text><ellipse cx="305" cy="530.5798" fill="none" rx="3" ry="3" style="stroke:#038048;stroke-width:1.0;"/><text fill="#000000" font-family="sans-serif" font-size="14" lengthAdjust="spacing" textLength="142.7435" x="314" y="534.5118">timeStamp: DateTime</text><line style="stroke:#181818;stroke-width:0.5;" x1="295" x2="461.7435" y1="542.6138" y2="542.6138"/></g><polygon fill="#F1F1F1" points="222.37,174.67,234.37,186.67,222.37,198.67,210.37,186.67,222.37,174.67" style="stroke:#181818;stroke-width:0.5;"/><polygon fill="#F1F1F1" points="430.37,174.67,442.37,186.67,430.37,198.67,418.37,186.67,430.37,174.67" style="stroke:#181818;stroke-width:0.5;"/><!--reverse link IdentityUser to Author--><g id="link_IdentityUser_Author"><path codeLine="30" d="M326.37,92.24 C326.37,115.83 326.37,129.53 326.37,153.09 " fill="none" id="IdentityUser-backto-Author" style="stroke:#181818;stroke-width:1.0;"/><polygon fill="none" points="326.37,74.24,320.37,92.24,332.37,92.24,326.37,74.24" style="stroke:#181818;stroke-width:1.0;"/></g><!--link Author to Cheep--><g id="link_Author_Cheep"><path codeLine="32" d="M337.53,220.63 C345.26,243.48 355.62,274.1 363.97,298.78 " fill="none" id="Author-Cheep" style="stroke:#181818;stroke-width:1.0;"/><text fill="#000000" font-family="sans-serif" font-size="13" lengthAdjust="spacing" textLength="21.84" x="316.7226" y="242.1542">1..1</text><text fill="#000000" font-family="sans-serif" font-size="13" lengthAdjust="spacing" textLength="24.284" x="335.7847" y="287.4365">0..N</text></g><!--link AuthorFollow to follows--><g id="link_AuthorFollow_follows"><path codeLine="35" d="M176.06,186.67 C187.28,186.67 198.49,186.67 209.71,186.67 " fill="none" id="AuthorFollow-follows" style="stroke:#181818;stroke-width:1.0;stroke-dasharray:7.0,7.0;"/></g><!--link follows to Author--><g id="link_follows_Author"><path codeLine="36" d="M231.72,189.61 C244.29,193.18 256.86,195.17 269.43,195.59 " fill="none" id="follows-Author" style="stroke:#181818;stroke-width:1.0;"/><text fill="#000000" font-family="sans-serif" font-size="13" lengthAdjust="spacing" textLength="24.284" x="242.6342" y="193.1622">0..N</text></g><!--link follows to Author--><g id="link_follows_Author"><path codeLine="37" d="M231.72,183.72 C244.29,180.16 256.86,178.16 269.43,177.75 " fill="none" id="follows-Author-1" style="stroke:#181818;stroke-width:1.0;"/><text fill="#000000" font-family="sans-serif" font-size="13" lengthAdjust="spacing" textLength="24.284" x="238.7478" y="163.0778">0..N</text></g><!--link Cheep to CheepRevision--><g id="link_Cheep_CheepRevision"><path codeLine="39" d="M378.37,385.74 C378.37,404.13 378.37,425.83 378.37,445.17 " fill="none" id="Cheep-CheepRevision" style="stroke:#181818;stroke-width:1.0;"/><text fill="#000000" font-family="sans-serif" font-size="13" lengthAdjust="spacing" textLength="21.84" x="355.8891" y="407.312">1..1</text><text fill="#000000" font-family="sans-serif" font-size="13" lengthAdjust="spacing" textLength="24.284" x="352.7022" y="433.4905">1..N</text></g><!--link Cheep to Cheep--><g id="link_Cheep_Cheep"><path codeLine="40" d="M463.3,313.73 C483.25,316.08 497.97,325.62 497.97,342.34 C497.97,359.06 483.25,368.6 463.3,370.95 " fill="none" id="Cheep-Cheep" style="stroke:#181818;stroke-width:1.0;"/><text fill="#000000" font-family="sans-serif" font-size="13" lengthAdjust="spacing" textLength="21.84" x="491.3635" y="307.9278">0..1</text><text fill="#000000" font-family="sans-serif" font-size="13" lengthAdjust="spacing" textLength="21.84" x="491.3635" y="369.3499">0..1</text></g><!--link likes to CheepLike--><g id="link_likes_CheepLike"><path codeLine="43" d="M442.91,186.67 C454.17,186.67 465.43,186.67 476.69,186.67 " fill="none" id="likes-CheepLike" style="stroke:#181818;stroke-width:1.0;stroke-dasharray:7.0,7.0;"/></g><!--link Author to likes--><g id="link_Author_likes"><path codeLine="44" d="M383.25,186.67 C394.78,186.67 406.32,186.67 417.85,186.67 " fill="none" id="Author-likes" style="stroke:#181818;stroke-width:1.0;"/><text fill="#000000" font-family="sans-serif" font-size="13" lengthAdjust="spacing" textLength="24.284" x="386.0795" y="180.9702">0..N</text></g><!--link likes to Cheep--><g id="link_likes_Cheep"><path codeLine="45" d="M427.43,196.37 C420.87,215.74 404.72,263.47 392.73,298.91 " fill="none" id="likes-Cheep" style="stroke:#181818;stroke-width:1.0;"/><text fill="#000000" font-family="sans-serif" font-size="13" lengthAdjust="spacing" textLength="24.284" x="369.1283" y="287.5873">0..N</text></g><!--SRC=[ZL3DQi904BxFKmnx5HTp5H5AYqKe2jO-m99CTJ4_abcLedttRZVPJJO7TGy9C_FDV3zfhfXncL5fjFdvOghn2cYVb19-0L8tVpcPVUKd8tLMHjLJP5FhSZT4BQeyhouU- -qggfTPmFVxDEmRNT2dKSLnYc_AqDQM7S7hdkWOL3YsuNxw3rbVoeWnFl2X3-IFFARRq5cphag_eUtPzvFEcgeWPhMZfpn48Szkut4R640RhqYaJ0JQWPX8kHAD083P79ku6AA8PMYtVsmthGZXZzyPGPDdZpRfQBrl3qBt9W7QhpkTkSsMmNsjl12tTnYSzN6ntJy0]--></g></svg>