<svg xmlns="http://www.w3.org/2000/svg" xmlns:xlink="http://www.w3.org/1999/xlink" contentStyleType="text/css" height="557px" preserveAspectRatio="none" style="width:652px;height:557px;background:#FFFFFF;" version="1.1" viewBox="0 0 652 557" width="652px" zoomAndPan="magnify"><defs/><g><!--class IdentityUser--><g id="elem_IdentityUser"><rect codeLine="1" fill="#F1F1F1" height="67.0679" id="IdentityUser" rx="2.5" ry="2.5" style="stroke:#181818;stroke-width:0.5;" width="113.3817" x="269.68" y="7"/><ellipse cx="284.68" cy="23" fill="#ADD1B2" rx="11" ry="11" style="stroke:#181818;stroke-width:1;"/><path d="M284.1488,29.9219 Q282.3988,29.9219 281.2581,29.1875 Q280.1331,28.4375 279.5706,27.0938 Q279.0238,25.7344 279.0238,23.9375 Q279.0238,21.9063 279.68,20.4531 Q280.3363,19 281.6175,18.2188 Q282.8988,17.4375 284.7738,17.4375 Q285.6644,17.4375 286.3363,17.625 Q287.0081,17.7969 287.6956,18.1406 L286.8831,20.1563 Q286.2581,19.8438 285.7113,19.7188 Q285.18,19.5938 284.6956,19.5938 Q283.5238,19.5938 282.8206,20.125 Q282.1175,20.6563 281.8206,21.6094 Q281.5238,22.5625 281.5238,23.8281 Q281.5238,25.8438 282.2425,26.8125 Q282.9613,27.7656 284.555,27.7656 Q285.1488,27.7656 285.7738,27.6094 Q286.3988,27.4531 287.2269,27.0781 L287.2269,29.2969 Q286.4925,29.6094 285.6956,29.7656 Q284.9144,29.9219 284.1488,29.9219 Z " fill="#000000"/><text fill="#000000" font-family="sans-serif" font-size="14" lengthAdjust="spacing" textLength="81.3817" x="298.68" y="28.432">IdentityUser</text><line style="stroke:#181818;stroke-width:0.5;" x1="270.68" x2="382.0617" y1="39" y2="39"/><text fill="#000000" font-family="sans-serif" font-size="14" lengthAdjust="spacing" textLength="11.256" x="275.68" y="57.9659">...</text><line style="stroke:#181818;stroke-width:0.5;" x1="270.68" x2="382.0617" y1="66.0679" y2="66.0679"/></g><!--class Author--><g id="elem_Author"><rect codeLine="5" fill="#F1F1F1" height="67.0679" id="Author" rx="2.5" ry="2.5" style="stroke:#181818;stroke-width:0.5;" width="113.3177" x="269.71" y="153.13"/><ellipse cx="300.8028" cy="169.13" fill="#ADD1B2" rx="11" ry="11" style="stroke:#181818;stroke-width:1;"/><path d="M300.2716,176.0519 Q298.5216,176.0519 297.381,175.3175 Q296.256,174.5675 295.6935,173.2238 Q295.1466,171.8644 295.1466,170.0675 Q295.1466,168.0363 295.8028,166.5831 Q296.4591,165.13 297.7403,164.3488 Q299.0216,163.5675 300.8966,163.5675 Q301.7872,163.5675 302.4591,163.755 Q303.131,163.9269 303.8185,164.2706 L303.006,166.2863 Q302.381,165.9738 301.8341,165.8488 Q301.3028,165.7238 300.8185,165.7238 Q299.6466,165.7238 298.9435,166.255 Q298.2403,166.7863 297.9435,167.7394 Q297.6466,168.6925 297.6466,169.9581 Q297.6466,171.9738 298.3653,172.9425 Q299.0841,173.8956 300.6778,173.8956 Q301.2716,173.8956 301.8966,173.7394 Q302.5216,173.5831 303.3497,173.2081 L303.3497,175.4269 Q302.6153,175.7394 301.8185,175.8956 Q301.0372,176.0519 300.2716,176.0519 Z " fill="#000000"/><text fill="#000000" font-family="sans-serif" font-size="14" lengthAdjust="spacing" textLength="45.5558" x="318.379" y="174.562">Author</text><line style="stroke:#181818;stroke-width:0.5;" x1="270.71" x2="382.0277" y1="185.13" y2="185.13"/><ellipse cx="280.71" cy="200.164" fill="none" rx="3" ry="3" style="stroke:#038048;stroke-width:1;"/><text fill="#000000" font-family="sans-serif" font-size="14" lengthAdjust="spacing" textLength="87.3177" x="289.71" y="204.0959">avatar: string</text><line style="stroke:#181818;stroke-width:0.5;" x1="270.71" x2="382.0277" y1="212.1979" y2="212.1979"/></g><!--class AuthorFollow--><g id="elem_AuthorFollow"><rect codeLine="9" fill="#F1F1F1" height="105.2038" id="AuthorFollow" rx="2.5" ry="2.5" style="stroke:#181818;stroke-width:0.5;" width="168.7435" x="7" y="134.07"/><ellipse cx="43.9392" cy="150.07" fill="#ADD1B2" rx="11" ry="11" style="stroke:#181818;stroke-width:1;"/><path d="M43.408,156.9919 Q41.658,156.9919 40.5173,156.2575 Q39.3923,155.5075 38.8298,154.1638 Q38.283,152.8044 38.283,151.0075 Q38.283,148.9763 38.9392,147.5231 Q39.5955,146.07 40.8767,145.2888 Q42.158,144.5075 44.033,144.5075 Q44.9236,144.5075 45.5955,144.695 Q46.2673,144.8669 46.9548,145.2106 L46.1423,147.2263 Q45.5173,146.9138 44.9705,146.7888 Q44.4392,146.6638 43.9548,146.6638 Q42.783,146.6638 42.0798,147.195 Q41.3767,147.7263 41.0798,148.6794 Q40.783,149.6325 40.783,150.8981 Q40.783,152.9138 41.5017,153.8825 Q42.2205,154.8356 43.8142,154.8356 Q44.408,154.8356 45.033,154.6794 Q45.658,154.5231 46.4861,154.1481 L46.4861,156.3669 Q45.7517,156.6794 44.9548,156.8356 Q44.1736,156.9919 43.408,156.9919 Z " fill="#000000"/><text fill="#000000" font-family="sans-serif" font-size="14" lengthAdjust="spacing" textLength="87.9897" x="62.8146" y="155.502">AuthorFollow</text><line style="stroke:#181818;stroke-width:0.5;" x1="8" x2="174.7435" y1="166.07" y2="166.07"/><ellipse cx="18" cy="181.104" fill="none" rx="3" ry="3" style="stroke:#038048;stroke-width:1;"/><text fill="#000000" font-family="sans-serif" font-size="14" lengthAdjust="spacing" textLength="112.8256" x="27" y="185.0359">followerId: string</text><ellipse cx="18" cy="200.1719" fill="none" rx="3" ry="3" style="stroke:#038048;stroke-width:1;"/><text fill="#000000" font-family="sans-serif" font-size="14" lengthAdjust="spacing" textLength="114.9396" x="27" y="204.1039">followeeId: string</text><ellipse cx="18" cy="219.2398" fill="none" rx="3" ry="3" style="stroke:#038048;stroke-width:1;"/><text fill="#000000" font-family="sans-serif" font-size="14" lengthAdjust="spacing" textLength="142.7435" x="27" y="223.1718">timeStamp: DateTime</text><line style="stroke:#181818;stroke-width:0.5;" x1="8" x2="174.7435" y1="231.2738" y2="231.2738"/></g><!--class Cheep--><g id="elem_Cheep"><rect codeLine="15" fill="#F1F1F1" height="86.1358" id="Cheep" rx="2.5" ry="2.5" style="stroke:#181818;stroke-width:0.5;" width="169.2054" x="293.77" y="299.27"/><ellipse cx="353.1718" cy="315.27" fill="#ADD1B2" rx="11" ry="11" style="stroke:#181818;stroke-width:1;"/><path d="M352.6406,322.1919 Q350.8906,322.1919 349.7499,321.4575 Q348.6249,320.7075 348.0624,319.3638 Q347.5156,318.0044 347.5156,316.2075 Q347.5156,314.1763 348.1718,312.7231 Q348.8281,311.27 350.1093,310.4888 Q351.3906,309.7075 353.2656,309.7075 Q354.1562,309.7075 354.8281,309.895 Q355.4999,310.0669 356.1874,310.4106 L355.3749,312.4263 Q354.7499,312.1138 354.2031,311.9888 Q353.6718,311.8638 353.1874,311.8638 Q352.0156,311.8638 351.3124,312.395 Q350.6093,312.9263 350.3124,313.8794 Q350.0156,314.8325 350.0156,316.0981 Q350.0156,318.1138 350.7343,319.0825 Q351.4531,320.0356 353.0468,320.0356 Q353.6406,320.0356 354.2656,319.8794 Q354.8906,319.7231 355.7187,319.3481 L355.7187,321.5669 Q354.9843,321.8794 354.1874,322.0356 Q353.4062,322.1919 352.6406,322.1919 Z " fill="#000000"/><text fill="#000000" font-family="sans-serif" font-size="14" lengthAdjust="spacing" textLength="41.9018" x="373.6718" y="320.702">Cheep</text><line style="stroke:#181818;stroke-width:0.5;" x1="294.77" x2="461.9754" y1="331.27" y2="331.27"/><ellipse cx="304.77" cy="346.304" fill="none" rx="3" ry="3" style="stroke:#038048;stroke-width:1;"/><text fill="#000000" font-family="sans-serif" font-size="14" lengthAdjust="spacing" textLength="103.6276" x="313.77" y="350.2359">authorId: string</text><ellipse cx="304.77" cy="365.3719" fill="none" rx="3" ry="3" style="stroke:#038048;stroke-width:1;"/><text fill="#000000" font-family="sans-serif" font-size="14" lengthAdjust="spacing" textLength="143.2054" x="313.77" y="369.3039">cheepOwnerId: string</text><line style="stroke:#181818;stroke-width:0.5;" x1="294.77" x2="461.9754" y1="377.4058" y2="377.4058"/></g><!--class CheepLike--><g id="elem_CheepLike"><rect codeLine="20" fill="#F1F1F1" height="67.0679" id="CheepLike" rx="2.5" ry="2.5" style="stroke:#181818;stroke-width:0.5;" width="168.7435" x="477" y="153.13"/><ellipse cx="523.0109" cy="169.13" fill="#ADD1B2" rx="11" ry="11" style="stroke:#181818;stroke-width:1;"/><path d="M522.4796,176.0519 Q520.7296,176.0519 519.589,175.3175 Q518.464,174.5675 517.9015,173.2238 Q517.3546,171.8644 517.3546,170.0675 Q517.3546,168.0363 518.0109,166.5831 Q518.6671,165.13 519.9484,164.3488 Q521.2296,163.5675 523.1046,163.5675 Q523.9952,163.5675 524.6671,163.755 Q525.339,163.9269 526.0265,164.2706 L525.214,166.2863 Q524.589,165.9738 524.0421,165.8488 Q523.5109,165.7238 523.0265,165.7238 Q521.8546,165.7238 521.1515,166.255 Q520.4484,166.7863 520.1515,167.7394 Q519.8546,168.6925 519.8546,169.9581 Q519.8546,171.9738 520.5734,172.9425 Q521.2921,173.8956 522.8859,173.8956 Q523.4796,173.8956 524.1046,173.7394 Q524.7296,173.5831 525.5577,173.2081 L525.5577,175.4269 Q524.8234,175.7394 524.0265,175.8956 Q523.2452,176.0519 522.4796,176.0519 Z " fill="#000000"/><text fill="#000000" font-family="sans-serif" font-size="14" lengthAdjust="spacing" textLength="68.2217" x="543.5109" y="174.562">CheepLike</text><line style="stroke:#181818;stroke-width:0.5;" x1="478" x2="644.7435" y1="185.13" y2="185.13"/><ellipse cx="488" cy="200.164" fill="none" rx="3" ry="3" style="stroke:#038048;stroke-width:1;"/><text fill="#000000" font-family="sans-serif" font-size="14" lengthAdjust="spacing" textLength="142.7435" x="497" y="204.0959">timeStamp: DateTime</text><line style="stroke:#181818;stroke-width:0.5;" x1="478" x2="644.7435" y1="212.1979" y2="212.1979"/></g><!--class CheepRevision--><g id="elem_CheepRevision"><rect codeLine="24" fill="#F1F1F1" height="105.2038" id="CheepRevision" rx="2.5" ry="2.5" style="stroke:#181818;stroke-width:0.5;" width="168.7435" x="294" y="445.41"/><ellipse cx="327.0332" cy="461.41" fill="#ADD1B2" rx="11" ry="11" style="stroke:#181818;stroke-width:1;"/><path d="M326.502,468.3319 Q324.752,468.3319 323.6114,467.5975 Q322.4864,466.8475 321.9239,465.5038 Q321.377,464.1444 321.377,462.3475 Q321.377,460.3163 322.0332,458.8631 Q322.6895,457.41 323.9707,456.6288 Q325.252,455.8475 327.127,455.8475 Q328.0176,455.8475 328.6895,456.035 Q329.3614,456.2069 330.0489,456.5506 L329.2364,458.5663 Q328.6114,458.2538 328.0645,458.1288 Q327.5332,458.0038 327.0489,458.0038 Q325.877,458.0038 325.1739,458.535 Q324.4707,459.0663 324.1739,460.0194 Q323.877,460.9725 323.877,462.2381 Q323.877,464.2538 324.5957,465.2225 Q325.3145,466.1756 326.9082,466.1756 Q327.502,466.1756 328.127,466.0194 Q328.752,465.8631 329.5801,465.4881 L329.5801,467.7069 Q328.8457,468.0194 328.0489,468.1756 Q327.2676,468.3319 326.502,468.3319 Z " fill="#000000"/><text fill="#000000" font-family="sans-serif" font-size="14" lengthAdjust="spacing" textLength="96.6696" x="345.0406" y="466.842">CheepRevision</text><line style="stroke:#181818;stroke-width:0.5;" x1="295" x2="461.7435" y1="477.41" y2="477.41"/><ellipse cx="305" cy="492.444" fill="none" rx="3" ry="3" style="stroke:#038048;stroke-width:1;"/><text fill="#000000" font-family="sans-serif" font-size="14" lengthAdjust="spacing" textLength="50.6798" x="314" y="496.3759">id: Guid</text><ellipse cx="305" cy="511.5119" fill="none" rx="3" ry="3" style="stroke:#038048;stroke-width:1;"/><text fill="#000000" font-family="sans-serif" font-size="14" lengthAdjust="spacing" textLength="104.5656" x="314" y="515.4439">message: string</text><ellipse cx="305" cy="530.5798" fill="none" rx="3" ry="3" style="stroke:#038048;stroke-width:1;"/><text fill="#000000" font-family="sans-serif" font-size="14" lengthAdjust="spacing" textLength="142.7435" x="314" y="534.5118">timeStamp: DateTime</text><line style="stroke:#181818;stroke-width:0.5;" x1="295" x2="461.7435" y1="542.6138" y2="542.6138"/></g><polygon fill="#F1F1F1" points="222.37,174.67,234.37,186.67,222.37,198.67,210.37,186.67,222.37,174.67" style="stroke:#181818;stroke-width:0.5;"/><polygon fill="#F1F1F1" points="430.37,174.67,442.37,186.67,430.37,198.67,418.37,186.67,430.37,174.67" style="stroke:#181818;stroke-width:0.5;"/><!--reverse link IdentityUser to Author--><g id="link_IdentityUser_Author"><path codeLine="30" d="M326.37,92.24 C326.37,115.83 326.37,129.53 326.37,153.09 " fill="none" id="IdentityUser-backto-Author" style="stroke:#181818;stroke-width:1;"/><polygon fill="none" points="326.37,74.24,320.37,92.24,332.37,92.24,326.37,74.24" style="stroke:#181818;stroke-width:1;"/></g><!--link Author to Cheep--><g id="link_Author_Cheep"><path codeLine="32" d="M337.53,220.63 C345.26,243.48 355.62,274.1 363.97,298.78 " fill="none" id="Author-Cheep" style="stroke:#181818;stroke-width:1;"/><text fill="#000000" font-family="sans-serif" font-size="13" lengthAdjust="spacing" textLength="21.84" x="316.7226" y="242.1542">1..1</text><text fill="#000000" font-family="sans-serif" font-size="13" lengthAdjust="spacing" textLength="24.284" x="335.7847" y="287.4365">0..N</text></g><!--link AuthorFollow to follows--><g id="link_AuthorFollow_follows"><path codeLine="35" d="M176.06,186.67 C187.28,186.67 198.49,186.67 209.71,186.67 " fill="none" id="AuthorFollow-follows" style="stroke:#181818;stroke-width:1;stroke-dasharray:7.0,7.0;"/></g><!--link follows to Author--><g id="link_follows_Author"><path codeLine="36" d="M231.72,189.61 C244.29,193.18 256.86,195.17 269.43,195.59 " fill="none" id="follows-Author" style="stroke:#181818;stroke-width:1;"/><text fill="#000000" font-family="sans-serif" font-size="13" lengthAdjust="spacing" textLength="24.284" x="242.6342" y="193.1622">0..N</text></g><!--link follows to Author--><g id="link_follows_Author"><path codeLine="37" d="M231.72,183.72 C244.29,180.16 256.86,178.16 269.43,177.75 " fill="none" id="follows-Author-1" style="stroke:#181818;stroke-width:1;"/><text fill="#000000" font-family="sans-serif" font-size="13" lengthAdjust="spacing" textLength="24.284" x="238.7478" y="163.0778">0..N</text></g><!--link Cheep to CheepRevision--><g id="link_Cheep_CheepRevision"><path codeLine="39" d="M378.37,385.74 C378.37,404.13 378.37,425.83 378.37,445.17 " fill="none" id="Cheep-CheepRevision" style="stroke:#181818;stroke-width:1;"/><text fill="#000000" font-family="sans-serif" font-size="13" lengthAdjust="spacing" textLength="21.84" x="355.8891" y="407.312">1..1</text><text fill="#000000" font-family="sans-serif" font-size="13" lengthAdjust="spacing" textLength="24.284" x="352.7022" y="433.4905">1..N</text></g><!--link Cheep to Cheep--><g id="link_Cheep_Cheep"><path codeLine="40" d="M463.3,313.73 C483.25,316.08 497.97,325.62 497.97,342.34 C497.97,359.06 483.25,368.6 463.3,370.95 " fill="none" id="Cheep-Cheep" style="stroke:#181818;stroke-width:1;"/><text fill="#000000" font-family="sans-serif" font-size="13" lengthAdjust="spacing" textLength="21.84" x="491.3635" y="307.9278">0..1</text><text fill="#000000" font-family="sans-serif" font-size="13" lengthAdjust="spacing" textLength="21.84" x="491.3635" y="369.3499">0..1</text></g><!--link likes to CheepLike--><g id="link_likes_CheepLike"><path codeLine="43" d="M442.91,186.67 C454.17,186.67 465.43,186.67 476.69,186.67 " fill="none" id="likes-CheepLike" style="stroke:#181818;stroke-width:1;stroke-dasharray:7.0,7.0;"/></g><!--link Author to likes--><g id="link_Author_likes"><path codeLine="44" d="M383.25,186.67 C394.78,186.67 406.32,186.67 417.85,186.67 " fill="none" id="Author-likes" style="stroke:#181818;stroke-width:1;"/><text fill="#000000" font-family="sans-serif" font-size="13" lengthAdjust="spacing" textLength="24.284" x="386.0795" y="180.9702">0..N</text></g><!--link likes to Cheep--><g id="link_likes_Cheep"><path codeLine="45" d="M427.43,196.37 C420.87,215.74 404.72,263.47 392.73,298.91 " fill="none" id="likes-Cheep" style="stroke:#181818;stroke-width:1;"/><text fill="#000000" font-family="sans-serif" font-size="13" lengthAdjust="spacing" textLength="24.284" x="369.1283" y="287.5873">0..N</text></g><!--SRC=[ZL3DQi904BxFKmnx5HTp5H5AYqKe2jO-m99CTJ4_abcLedttRZVPJJO7TGy9C_FDV3zfhfXncL5fjFdvOghn2cYVb19-0L8tVpcPVUKd8tLMHjLJP5FhSZT4BQeyhouU- -qggfTPmFVxDEmRNT2dKSLnYc_AqDQM7S7hdkWOL3YsuNxw3rbVoeWnFl2X3-IFFARRq5cphag_eUtPzvFEcgeWPhMZfpn48Szkut4R640RhqYaJ0JQWPX8kHAD083P79ku6AA8PMYtVsmthGZXZzyPGPDdZpRfQBrl3qBt9W7QhpkTkSsMmNsjl12tTnYSzN6ntJy0]--></g></svg>