<svg xmlns="http://www.w3.org/2000/svg" xmlns:xlink="http://www.w3.org/1999/xlink" contentStyleType="text/css" data-diagram-type="SEQUENCE" height="1232px" preserveAspectRatio="none" style="width:726px;height:1232px;background:#FFFFFF;" version="1.1" viewBox="0 0 726 1232" width="726px" zoomAndPan="magnify"><defs/><g><rect fill="#DDDDDD" height="1220.8359" style="stroke:#181818;stroke-width:0.5;" width="499.6841" x="220.5547" y="6"/><text fill="#000000" font-family="sans-serif" font-size="13" font-weight="bold" lengthAdjust="spacing" textLength="38.9683" x="450.9126" y="18.0669">Chirp</text><rect fill="#FFFFFF" height="1071.8438" style="stroke:#181818;stroke-width:1;" width="10" x="242.2261" y="102.6953"/><rect fill="#FFFFFF" height="102.5313" style="stroke:#181818;stroke-width:1;" width="10" x="493.4512" y="146.9609"/><rect fill="#FFFFFF" height="102.5313" style="stroke:#181818;stroke-width:1;" width="10" x="493.4512" y="293.7578"/><rect fill="#FFFFFF" height="102.5313" style="stroke:#181818;stroke-width:1;" width="10" x="493.4512" y="440.5547"/><rect fill="#FFFFFF" height="102.5313" style="stroke:#181818;stroke-width:1;" width="10" x="493.4512" y="587.3516"/><rect fill="#FFFFFF" height="102.5313" style="stroke:#181818;stroke-width:1;" width="10" x="493.4512" y="734.1484"/><rect fill="#FFFFFF" height="102.5313" style="stroke:#181818;stroke-width:1;" width="10" x="493.4512" y="880.9453"/><rect fill="#FFFFFF" height="102.5313" style="stroke:#181818;stroke-width:1;" width="10" x="493.4512" y="1027.7422"/><rect fill="#FFFFFF" height="29.1328" style="stroke:#181818;stroke-width:1;" width="10" x="670.8384" y="191.2266"/><rect fill="#FFFFFF" height="29.1328" style="stroke:#181818;stroke-width:1;" width="10" x="670.8384" y="338.0234"/><rect fill="#FFFFFF" height="29.1328" style="stroke:#181818;stroke-width:1;" width="10" x="670.8384" y="484.8203"/><rect fill="#FFFFFF" height="29.1328" style="stroke:#181818;stroke-width:1;" width="10" x="670.8384" y="631.6172"/><rect fill="#FFFFFF" height="29.1328" style="stroke:#181818;stroke-width:1;" width="10" x="670.8384" y="778.4141"/><rect fill="#FFFFFF" height="29.1328" style="stroke:#181818;stroke-width:1;" width="10" x="670.8384" y="925.2109"/><rect fill="#FFFFFF" height="29.1328" style="stroke:#181818;stroke-width:1;" width="10" x="670.8384" y="1072.0078"/><line style="stroke:#181818;stroke-width:0.5;stroke-dasharray:5.0,5.0;" x1="32" x2="32" y1="56.4297" y2="1192.5391"/><line style="stroke:#181818;stroke-width:0.5;stroke-dasharray:5.0,5.0;" x1="246.5547" x2="246.5547" y1="56.4297" y2="1192.5391"/><line style="stroke:#181818;stroke-width:0.5;stroke-dasharray:5.0,5.0;" x1="498.3979" x2="498.3979" y1="56.4297" y2="1192.5391"/><line style="stroke:#181818;stroke-width:0.5;stroke-dasharray:5.0,5.0;" x1="675.438" x2="675.438" y1="56.4297" y2="1192.5391"/><rect fill="#E2E2F0" height="30.2969" rx="2.5" ry="2.5" style="stroke:#181818;stroke-width:0.5;" width="54.5303" x="5" y="25.1328"/><text fill="#000000" font-family="sans-serif" font-size="14" lengthAdjust="spacing" textLength="40.5303" x="12" y="45.1279">Client</text><rect fill="#E2E2F0" height="30.2969" rx="2.5" ry="2.5" style="stroke:#181818;stroke-width:0.5;" width="54.5303" x="5" y="1191.5391"/><text fill="#000000" font-family="sans-serif" font-size="14" lengthAdjust="spacing" textLength="40.5303" x="12" y="1211.5342">Client</text><rect fill="#E2E2F0" height="30.2969" rx="2.5" ry="2.5" style="stroke:#181818;stroke-width:0.5;" width="45.3428" x="224.5547" y="25.1328"/><text fill="#000000" font-family="sans-serif" font-size="14" lengthAdjust="spacing" textLength="31.3428" x="231.5547" y="45.1279">Web</text><rect fill="#E2E2F0" height="30.2969" rx="2.5" ry="2.5" style="stroke:#181818;stroke-width:0.5;" width="45.3428" x="224.5547" y="1191.5391"/><text fill="#000000" font-family="sans-serif" font-size="14" lengthAdjust="spacing" textLength="31.3428" x="231.5547" y="1211.5342">Web</text><rect fill="#E2E2F0" height="30.2969" rx="2.5" ry="2.5" style="stroke:#181818;stroke-width:0.5;" width="110.1064" x="443.3979" y="25.1328"/><text fill="#000000" font-family="sans-serif" font-size="14" lengthAdjust="spacing" textLength="96.1064" x="450.3979" y="45.1279">Infrastructure</text><rect fill="#E2E2F0" height="30.2969" rx="2.5" ry="2.5" style="stroke:#181818;stroke-width:0.5;" width="110.1064" x="443.3979" y="1191.5391"/><text fill="#000000" font-family="sans-serif" font-size="14" lengthAdjust="spacing" textLength="96.1064" x="450.3979" y="1211.5342">Infrastructure</text><rect fill="#E2E2F0" height="30.2969" rx="2.5" ry="2.5" style="stroke:#181818;stroke-width:0.5;" width="80.8008" x="635.438" y="25.1328"/><text fill="#000000" font-family="sans-serif" font-size="14" lengthAdjust="spacing" textLength="66.8008" x="642.438" y="45.1279">Database</text><rect fill="#E2E2F0" height="30.2969" rx="2.5" ry="2.5" style="stroke:#181818;stroke-width:0.5;" width="80.8008" x="635.438" y="1191.5391"/><text fill="#000000" font-family="sans-serif" font-size="14" lengthAdjust="spacing" textLength="66.8008" x="642.438" y="1211.5342">Database</text><rect fill="#FFFFFF" height="1071.8438" style="stroke:#181818;stroke-width:1;" width="10" x="242.2261" y="102.6953"/><rect fill="#FFFFFF" height="102.5313" style="stroke:#181818;stroke-width:1;" width="10" x="493.4512" y="146.9609"/><rect fill="#FFFFFF" height="102.5313" style="stroke:#181818;stroke-width:1;" width="10" x="493.4512" y="293.7578"/><rect fill="#FFFFFF" height="102.5313" style="stroke:#181818;stroke-width:1;" width="10" x="493.4512" y="440.5547"/><rect fill="#FFFFFF" height="102.5313" style="stroke:#181818;stroke-width:1;" width="10" x="493.4512" y="587.3516"/><rect fill="#FFFFFF" height="102.5313" style="stroke:#181818;stroke-width:1;" width="10" x="493.4512" y="734.1484"/><rect fill="#FFFFFF" height="102.5313" style="stroke:#181818;stroke-width:1;" width="10" x="493.4512" y="880.9453"/><rect fill="#FFFFFF" height="102.5313" style="stroke:#181818;stroke-width:1;" width="10" x="493.4512" y="1027.7422"/><rect fill="#FFFFFF" height="29.1328" style="stroke:#181818;stroke-width:1;" width="10" x="670.8384" y="191.2266"/><rect fill="#FFFFFF" height="29.1328" style="stroke:#181818;stroke-width:1;" width="10" x="670.8384" y="338.0234"/><rect fill="#FFFFFF" height="29.1328" style="stroke:#181818;stroke-width:1;" width="10" x="670.8384" y="484.8203"/><rect fill="#FFFFFF" height="29.1328" style="stroke:#181818;stroke-width:1;" width="10" x="670.8384" y="631.6172"/><rect fill="#FFFFFF" height="29.1328" style="stroke:#181818;stroke-width:1;" width="10" x="670.8384" y="778.4141"/><rect fill="#FFFFFF" height="29.1328" style="stroke:#181818;stroke-width:1;" width="10" x="670.8384" y="925.2109"/><rect fill="#FFFFFF" height="29.1328" style="stroke:#181818;stroke-width:1;" width="10" x="670.8384" y="1072.0078"/><polygon fill="#181818" points="230.2261,98.6953,240.2261,102.6953,230.2261,106.6953,234.2261,102.6953" style="stroke:#181818;stroke-width:1;"/><line style="stroke:#181818;stroke-width:1;" x1="32.2651" x2="236.2261" y1="102.6953" y2="102.6953"/><text fill="#000000" font-family="sans-serif" font-size="13" lengthAdjust="spacing" textLength="176.3315" x="49.0798" y="82.4966">HTTP/HTTPS - GET Request</text><text fill="#000000" font-family="sans-serif" font-size="13" font-weight="bold" lengthAdjust="spacing" textLength="118.8662" x="77.8125" y="97.6294">Path: /&lt;author&gt;</text><polygon fill="#181818" points="481.4512,142.9609,491.4512,146.9609,481.4512,150.9609,485.4512,146.9609" style="stroke:#181818;stroke-width:1;"/><line style="stroke:#181818;stroke-width:1;" x1="252.2261" x2="487.4512" y1="146.9609" y2="146.9609"/><text fill="#000000" font-family="sans-serif" font-size="13" lengthAdjust="spacing" textLength="108.1514" x="318.7629" y="126.7622">C# - Method call</text><text fill="#000000" font-family="sans-serif" font-size="13" font-weight="bold" lengthAdjust="spacing" textLength="87.7119" x="328.9827" y="141.895">GetAuthor()</text><polygon fill="#181818" points="658.8384,187.2266,668.8384,191.2266,658.8384,195.2266,662.8384,191.2266" style="stroke:#181818;stroke-width:1;"/><line style="stroke:#181818;stroke-width:1;" x1="503.4512" x2="664.8384" y1="191.2266" y2="191.2266"/><text fill="#000000" font-family="sans-serif" font-size="13" lengthAdjust="spacing" textLength="132.52" x="520.8848" y="171.0278">SQL Query - EF Core</text><text fill="#000000" font-family="sans-serif" font-size="13" font-weight="bold" lengthAdjust="spacing" textLength="117.0889" x="528.6003" y="186.1606">_context.Author</text><polygon fill="#181818" points="514.4512,216.3594,504.4512,220.3594,514.4512,224.3594,510.4512,220.3594" style="stroke:#181818;stroke-width:1;"/><line style="stroke:#181818;stroke-width:1;stroke-dasharray:2.0,2.0;" x1="508.4512" x2="674.8384" y1="220.3594" y2="220.3594"/><text fill="#000000" font-family="sans-serif" font-size="13" font-style="italic" lengthAdjust="spacing" textLength="43.7671" x="544.2749" y="215.2935">Author</text><text fill="#000000" font-family="sans-serif" font-size="13" lengthAdjust="spacing" textLength="42.8403" x="592.1743" y="215.2935">author</text><polygon fill="#181818" points="263.2261,245.4922,253.2261,249.4922,263.2261,253.4922,259.2261,249.4922" style="stroke:#181818;stroke-width:1;"/><line style="stroke:#181818;stroke-width:1;stroke-dasharray:2.0,2.0;" x1="257.2261" x2="497.4512" y1="249.4922" y2="249.4922"/><text fill="#000000" font-family="sans-serif" font-size="13" font-style="italic" lengthAdjust="spacing" textLength="43.7671" x="329.9688" y="244.4263">Author</text><text fill="#000000" font-family="sans-serif" font-size="13" lengthAdjust="spacing" textLength="42.8403" x="377.8682" y="244.4263">author</text><polygon fill="#181818" points="481.4512,289.7578,491.4512,293.7578,481.4512,297.7578,485.4512,293.7578" style="stroke:#181818;stroke-width:1;"/><line style="stroke:#181818;stroke-width:1;" x1="252.2261" x2="487.4512" y1="293.7578" y2="293.7578"/><text fill="#000000" font-family="sans-serif" font-size="13" lengthAdjust="spacing" textLength="108.1514" x="318.7629" y="273.5591">C# - Method call</text><text fill="#000000" font-family="sans-serif" font-size="13" font-weight="bold" lengthAdjust="spacing" textLength="153.7275" x="295.9749" y="288.6919">GetCheepsTimeline()</text><polygon fill="#181818" points="658.8384,334.0234,668.8384,338.0234,658.8384,342.0234,662.8384,338.0234" style="stroke:#181818;stroke-width:1;"/><line style="stroke:#181818;stroke-width:1;" x1="503.4512" x2="664.8384" y1="338.0234" y2="338.0234"/><text fill="#000000" font-family="sans-serif" font-size="13" lengthAdjust="spacing" textLength="132.52" x="520.8848" y="317.8247">SQL Query - EF Core</text><text fill="#000000" font-family="sans-serif" font-size="13" font-weight="bold" lengthAdjust="spacing" textLength="120.4341" x="526.9277" y="332.9575">_context.Cheeps</text><polygon fill="#181818" points="514.4512,363.1563,504.4512,367.1563,514.4512,371.1563,510.4512,367.1563" style="stroke:#181818;stroke-width:1;"/><line style="stroke:#181818;stroke-width:1;stroke-dasharray:2.0,2.0;" x1="508.4512" x2="674.8384" y1="367.1563" y2="367.1563"/><text fill="#000000" font-family="sans-serif" font-size="13" font-style="italic" lengthAdjust="spacing" textLength="92.8472" x="517.9512" y="362.0903">List&lt;Cheeps&gt;</text><text fill="#000000" font-family="sans-serif" font-size="13" lengthAdjust="spacing" textLength="46.4077" x="614.9307" y="362.0903">cheeps</text><polygon fill="#181818" points="263.2261,392.2891,253.2261,396.2891,263.2261,400.2891,259.2261,396.2891" style="stroke:#181818;stroke-width:1;"/><line style="stroke:#181818;stroke-width:1;stroke-dasharray:2.0,2.0;" x1="257.2261" x2="497.4512" y1="396.2891" y2="396.2891"/><text fill="#000000" font-family="sans-serif" font-size="13" font-style="italic" lengthAdjust="spacing" textLength="92.8472" x="303.645" y="391.2231">List&lt;Cheeps&gt;</text><text fill="#000000" font-family="sans-serif" font-size="13" lengthAdjust="spacing" textLength="46.4077" x="400.6245" y="391.2231">cheeps</text><polygon fill="#181818" points="481.4512,436.5547,491.4512,440.5547,481.4512,444.5547,485.4512,440.5547" style="stroke:#181818;stroke-width:1;"/><line style="stroke:#181818;stroke-width:1;" x1="252.2261" x2="487.4512" y1="440.5547" y2="440.5547"/><text fill="#000000" font-family="sans-serif" font-size="13" lengthAdjust="spacing" textLength="108.1514" x="318.7629" y="420.356">C# - Method call</text><text fill="#000000" font-family="sans-serif" font-size="13" font-weight="bold" lengthAdjust="spacing" textLength="196.9233" x="274.377" y="435.4888">GetCheepsTimelineCount()</text><polygon fill="#181818" points="658.8384,480.8203,668.8384,484.8203,658.8384,488.8203,662.8384,484.8203" style="stroke:#181818;stroke-width:1;"/><line style="stroke:#181818;stroke-width:1;" x1="503.4512" x2="664.8384" y1="484.8203" y2="484.8203"/><text fill="#000000" font-family="sans-serif" font-size="13" lengthAdjust="spacing" textLength="132.52" x="520.8848" y="464.6216">SQL Query - EF Core</text><text fill="#000000" font-family="sans-serif" font-size="13" font-weight="bold" lengthAdjust="spacing" textLength="120.4341" x="526.9277" y="479.7544">_context.Cheeps</text><polygon fill="#181818" points="514.4512,509.9531,504.4512,513.9531,514.4512,517.9531,510.4512,513.9531" style="stroke:#181818;stroke-width:1;"/><line style="stroke:#181818;stroke-width:1;stroke-dasharray:2.0,2.0;" x1="508.4512" x2="674.8384" y1="513.9531" y2="513.9531"/><text fill="#000000" font-family="sans-serif" font-size="13" font-style="italic" lengthAdjust="spacing" textLength="16.9482" x="536.5974" y="508.8872">int</text><text fill="#000000" font-family="sans-serif" font-size="13" lengthAdjust="spacing" textLength="85.0142" x="557.678" y="508.8872">cheepsCount</text><polygon fill="#181818" points="263.2261,539.0859,253.2261,543.0859,263.2261,547.0859,259.2261,543.0859" style="stroke:#181818;stroke-width:1;"/><line style="stroke:#181818;stroke-width:1;stroke-dasharray:2.0,2.0;" x1="257.2261" x2="497.4512" y1="543.0859" y2="543.0859"/><text fill="#000000" font-family="sans-serif" font-size="13" font-style="italic" lengthAdjust="spacing" textLength="16.9482" x="322.2913" y="538.02">int</text><text fill="#000000" font-family="sans-serif" font-size="13" lengthAdjust="spacing" textLength="85.0142" x="343.3718" y="538.02">cheepsCount</text><polygon fill="#181818" points="481.4512,583.3516,491.4512,587.3516,481.4512,591.3516,485.4512,587.3516" style="stroke:#181818;stroke-width:1;"/><line style="stroke:#181818;stroke-width:1;" x1="252.2261" x2="487.4512" y1="587.3516" y2="587.3516"/><text fill="#000000" font-family="sans-serif" font-size="13" lengthAdjust="spacing" textLength="108.1514" x="318.7629" y="567.1528">C# - Method call</text><text fill="#000000" font-family="sans-serif" font-size="13" font-weight="bold" lengthAdjust="spacing" textLength="120.2881" x="312.6946" y="582.2856">GetLikedCount()</text><polygon fill="#181818" points="658.8384,627.6172,668.8384,631.6172,658.8384,635.6172,662.8384,631.6172" style="stroke:#181818;stroke-width:1;"/><line style="stroke:#181818;stroke-width:1;" x1="503.4512" x2="664.8384" y1="631.6172" y2="631.6172"/><text fill="#000000" font-family="sans-serif" font-size="13" lengthAdjust="spacing" textLength="132.52" x="520.8848" y="611.4185">SQL Query - EF Core</text><text fill="#000000" font-family="sans-serif" font-size="13" font-weight="bold" lengthAdjust="spacing" textLength="117.0889" x="528.6003" y="626.5513">_context.Author</text><polygon fill="#181818" points="514.4512,656.75,504.4512,660.75,514.4512,664.75,510.4512,660.75" style="stroke:#181818;stroke-width:1;"/><line style="stroke:#181818;stroke-width:1;stroke-dasharray:2.0,2.0;" x1="508.4512" x2="674.8384" y1="660.75" y2="660.75"/><text fill="#000000" font-family="sans-serif" font-size="13" font-style="italic" lengthAdjust="spacing" textLength="16.9482" x="536.5974" y="655.6841">int</text><text fill="#000000" font-family="sans-serif" font-size="13" lengthAdjust="spacing" textLength="85.0142" x="557.678" y="655.6841">cheepsCount</text><polygon fill="#181818" points="263.2261,685.8828,253.2261,689.8828,263.2261,693.8828,259.2261,689.8828" style="stroke:#181818;stroke-width:1;"/><line style="stroke:#181818;stroke-width:1;stroke-dasharray:2.0,2.0;" x1="257.2261" x2="497.4512" y1="689.8828" y2="689.8828"/><text fill="#000000" font-family="sans-serif" font-size="13" font-style="italic" lengthAdjust="spacing" textLength="16.9482" x="308.4502" y="684.8169">int</text><text fill="#000000" font-family="sans-serif" font-size="13" lengthAdjust="spacing" textLength="112.6963" x="329.5308" y="684.8169">totalLikedCheeps</text><polygon fill="#181818" points="481.4512,730.1484,491.4512,734.1484,481.4512,738.1484,485.4512,734.1484" style="stroke:#181818;stroke-width:1;"/><line style="stroke:#181818;stroke-width:1;" x1="252.2261" x2="487.4512" y1="734.1484" y2="734.1484"/><text fill="#000000" font-family="sans-serif" font-size="13" lengthAdjust="spacing" textLength="108.1514" x="318.7629" y="713.9497">C# - Method call</text><text fill="#000000" font-family="sans-serif" font-size="13" font-weight="bold" lengthAdjust="spacing" textLength="222.2251" x="261.7261" y="729.0825">GetCheepsCommentedCount()</text><polygon fill="#181818" points="658.8384,774.4141,668.8384,778.4141,658.8384,782.4141,662.8384,778.4141" style="stroke:#181818;stroke-width:1;"/><line style="stroke:#181818;stroke-width:1;" x1="503.4512" x2="664.8384" y1="778.4141" y2="778.4141"/><text fill="#000000" font-family="sans-serif" font-size="13" lengthAdjust="spacing" textLength="132.52" x="520.8848" y="758.2153">SQL Query - EF Core</text><text fill="#000000" font-family="sans-serif" font-size="13" font-weight="bold" lengthAdjust="spacing" textLength="117.0889" x="528.6003" y="773.3481">_context.Author</text><polygon fill="#181818" points="514.4512,803.5469,504.4512,807.5469,514.4512,811.5469,510.4512,807.5469" style="stroke:#181818;stroke-width:1;"/><line style="stroke:#181818;stroke-width:1;stroke-dasharray:2.0,2.0;" x1="508.4512" x2="674.8384" y1="807.5469" y2="807.5469"/><text fill="#000000" font-family="sans-serif" font-size="13" font-style="italic" lengthAdjust="spacing" textLength="16.9482" x="536.5974" y="802.481">int</text><text fill="#000000" font-family="sans-serif" font-size="13" lengthAdjust="spacing" textLength="85.0142" x="557.678" y="802.481">cheepsCount</text><polygon fill="#181818" points="263.2261,832.6797,253.2261,836.6797,263.2261,840.6797,259.2261,836.6797" style="stroke:#181818;stroke-width:1;"/><line style="stroke:#181818;stroke-width:1;stroke-dasharray:2.0,2.0;" x1="257.2261" x2="497.4512" y1="836.6797" y2="836.6797"/><text fill="#000000" font-family="sans-serif" font-size="13" font-style="italic" lengthAdjust="spacing" textLength="16.9482" x="285.7954" y="831.6138">int</text><text fill="#000000" font-family="sans-serif" font-size="13" lengthAdjust="spacing" textLength="158.0059" x="306.876" y="831.6138">totalCommentedCheeps</text><polygon fill="#181818" points="481.4512,876.9453,491.4512,880.9453,481.4512,884.9453,485.4512,880.9453" style="stroke:#181818;stroke-width:1;"/><line style="stroke:#181818;stroke-width:1;" x1="252.2261" x2="487.4512" y1="880.9453" y2="880.9453"/><text fill="#000000" font-family="sans-serif" font-size="13" lengthAdjust="spacing" textLength="108.1514" x="318.7629" y="860.7466">C# - Method call</text><text fill="#000000" font-family="sans-serif" font-size="13" font-weight="bold" lengthAdjust="spacing" textLength="108.2656" x="318.7058" y="875.8794">GetFollowing()</text><polygon fill="#181818" points="658.8384,921.2109,668.8384,925.2109,658.8384,929.2109,662.8384,925.2109" style="stroke:#181818;stroke-width:1;"/><line style="stroke:#181818;stroke-width:1;" x1="503.4512" x2="664.8384" y1="925.2109" y2="925.2109"/><text fill="#000000" font-family="sans-serif" font-size="13" lengthAdjust="spacing" textLength="132.52" x="520.8848" y="905.0122">SQL Query - EF Core</text><text fill="#000000" font-family="sans-serif" font-size="13" font-weight="bold" lengthAdjust="spacing" textLength="117.0889" x="528.6003" y="920.145">_context.Author</text><polygon fill="#181818" points="514.4512,950.3438,504.4512,954.3438,514.4512,958.3438,510.4512,954.3438" style="stroke:#181818;stroke-width:1;"/><line style="stroke:#181818;stroke-width:1;stroke-dasharray:2.0,2.0;" x1="508.4512" x2="674.8384" y1="954.3438" y2="954.3438"/><text fill="#000000" font-family="sans-serif" font-size="13" font-style="italic" lengthAdjust="spacing" textLength="88.2769" x="518.6335" y="949.2778">List&lt;Author&gt;</text><text fill="#000000" font-family="sans-serif" font-size="13" lengthAdjust="spacing" textLength="49.6133" x="611.0427" y="949.2778">authors</text><polygon fill="#181818" points="263.2261,979.4766,253.2261,983.4766,263.2261,987.4766,259.2261,983.4766" style="stroke:#181818;stroke-width:1;"/><line style="stroke:#181818;stroke-width:1;stroke-dasharray:2.0,2.0;" x1="257.2261" x2="497.4512" y1="983.4766" y2="983.4766"/><text fill="#000000" font-family="sans-serif" font-size="13" font-style="italic" lengthAdjust="spacing" textLength="88.2769" x="299.9126" y="978.4106">List&lt;Author&gt;</text><text fill="#000000" font-family="sans-serif" font-size="13" lengthAdjust="spacing" textLength="58.4429" x="392.3218" y="978.4106">following</text><polygon fill="#181818" points="481.4512,1023.7422,491.4512,1027.7422,481.4512,1031.7422,485.4512,1027.7422" style="stroke:#181818;stroke-width:1;"/><line style="stroke:#181818;stroke-width:1;" x1="252.2261" x2="487.4512" y1="1027.7422" y2="1027.7422"/><text fill="#000000" font-family="sans-serif" font-size="13" lengthAdjust="spacing" textLength="108.1514" x="318.7629" y="1007.5435">C# - Method call</text><text fill="#000000" font-family="sans-serif" font-size="13" font-weight="bold" lengthAdjust="spacing" textLength="108.2148" x="318.7312" y="1022.6763">GetFollowers()</text><polygon fill="#181818" points="658.8384,1068.0078,668.8384,1072.0078,658.8384,1076.0078,662.8384,1072.0078" style="stroke:#181818;stroke-width:1;"/><line style="stroke:#181818;stroke-width:1;" x1="503.4512" x2="664.8384" y1="1072.0078" y2="1072.0078"/><text fill="#000000" font-family="sans-serif" font-size="13" lengthAdjust="spacing" textLength="132.52" x="520.8848" y="1051.8091">SQL Query - EF Core</text><text fill="#000000" font-family="sans-serif" font-size="13" font-weight="bold" lengthAdjust="spacing" textLength="117.0889" x="528.6003" y="1066.9419">_context.Author</text><polygon fill="#181818" points="514.4512,1097.1406,504.4512,1101.1406,514.4512,1105.1406,510.4512,1101.1406" style="stroke:#181818;stroke-width:1;"/><line style="stroke:#181818;stroke-width:1;stroke-dasharray:2.0,2.0;" x1="508.4512" x2="674.8384" y1="1101.1406" y2="1101.1406"/><text fill="#000000" font-family="sans-serif" font-size="13" font-style="italic" lengthAdjust="spacing" textLength="88.2769" x="518.6335" y="1096.0747">List&lt;Author&gt;</text><text fill="#000000" font-family="sans-serif" font-size="13" lengthAdjust="spacing" textLength="49.6133" x="611.0427" y="1096.0747">authors</text><polygon fill="#181818" points="263.2261,1126.2734,253.2261,1130.2734,263.2261,1134.2734,259.2261,1130.2734" style="stroke:#181818;stroke-width:1;"/><line style="stroke:#181818;stroke-width:1;stroke-dasharray:2.0,2.0;" x1="257.2261" x2="497.4512" y1="1130.2734" y2="1130.2734"/><text fill="#000000" font-family="sans-serif" font-size="13" font-style="italic" lengthAdjust="spacing" textLength="88.2769" x="299.9063" y="1125.2075">List&lt;Author&gt;</text><text fill="#000000" font-family="sans-serif" font-size="13" lengthAdjust="spacing" textLength="58.4556" x="392.3154" y="1125.2075">followers</text><polygon fill="#181818" points="43.2651,1170.5391,33.2651,1174.5391,43.2651,1178.5391,39.2651,1174.5391" style="stroke:#181818;stroke-width:1;"/><line style="stroke:#181818;stroke-width:1;stroke-dasharray:2.0,2.0;" x1="37.2651" x2="246.2261" y1="1174.5391" y2="1174.5391"/><text fill="#000000" font-family="sans-serif" font-size="13" lengthAdjust="spacing" textLength="185.9609" x="46.7651" y="1154.3403">HTTP/HTTPS - GET Response</text><text fill="#000000" font-family="sans-serif" font-size="13" font-weight="bold" lengthAdjust="spacing" textLength="118.8662" x="80.3125" y="1169.4731">Path: /&lt;author&gt;</text><!--SRC=[pPHTQy8m58RlyoiEx6QhkDwB2DAf6oZeBEncC68zsc2RTCafS_z-IODVKnJy06zAUZwUyxwq9mNN919HS4aGPG8bCJPHIuXIeGjMR6K_SBBp_YPdcXlIPKAbnftK2oS-uGOPoYbO6cDc8QIju3aO_2vH9ZX0O_WSsvcOIqZiNDICUGLGRxbfKAj10rxZU1YwnnZgqEl4yEu0XZvb40mvfGq8cxoaLEbM433c-cpxhZXFYXuiOO2sT0e9pp97w26rg-R79zVzhys2LbOyOZpgmwX4_Mj9dIv4IgEZV2NAwb_IisTPaaOBa126FXA6u3Mo8vapj4SfOc5YaMCc95x7WsTkU-WBGqqVRbczINLY9_CN-ubKAUbMfeIajTPg43kQEyDCNonmUaKF-p_NQG-aY6TUoALV9L9vxjRqBYnjn9nlgwkoJFq8ER-LbselVBYrtlEznTaKp5Q2Bh23sjoN7TmgEN2Ncq99WmSlypy0]--></g></svg>