<svg xmlns="http://www.w3.org/2000/svg" xmlns:xlink="http://www.w3.org/1999/xlink" contentStyleType="text/css" height="1359px" preserveAspectRatio="none" style="width:665px;height:1359px;background:#FFFFFF;" version="1.1" viewBox="0 0 665 1359" width="665px" zoomAndPan="magnify"><defs/><g><rect fill="#DDDDDD" height="1347.3186" style="stroke:#181818;stroke-width:0.5;" width="452.5761" x="207.2992" y="6"/><text fill="#000000" font-family="sans-serif" font-size="13" font-weight="bold" lengthAdjust="spacing" textLength="34.71" x="416.2322" y="19.897">Chirp</text><rect fill="#FFFFFF" height="1185.0647" style="stroke:#181818;stroke-width:1;" width="10" x="228.0621" y="113.186"/><rect fill="#FFFFFF" height="112.8241" style="stroke:#181818;stroke-width:1;" width="10" x="454.4152" y="162.598"/><rect fill="#FFFFFF" height="112.8241" style="stroke:#181818;stroke-width:1;" width="10" x="454.4152" y="324.8341"/><rect fill="#FFFFFF" height="112.8241" style="stroke:#181818;stroke-width:1;" width="10" x="454.4152" y="487.0702"/><rect fill="#FFFFFF" height="112.8241" style="stroke:#181818;stroke-width:1;" width="10" x="454.4152" y="649.3063"/><rect fill="#FFFFFF" height="112.8241" style="stroke:#181818;stroke-width:1;" width="10" x="454.4152" y="811.5424"/><rect fill="#FFFFFF" height="112.8241" style="stroke:#181818;stroke-width:1;" width="10" x="454.4152" y="973.7785"/><rect fill="#FFFFFF" height="112.8241" style="stroke:#181818;stroke-width:1;" width="10" x="454.4152" y="1136.0146"/><rect fill="#FFFFFF" height="31.706" style="stroke:#181818;stroke-width:1;" width="10" x="612.8514" y="212.01"/><rect fill="#FFFFFF" height="31.706" style="stroke:#181818;stroke-width:1;" width="10" x="612.8514" y="374.2461"/><rect fill="#FFFFFF" height="31.706" style="stroke:#181818;stroke-width:1;" width="10" x="612.8514" y="536.4822"/><rect fill="#FFFFFF" height="31.706" style="stroke:#181818;stroke-width:1;" width="10" x="612.8514" y="698.7183"/><rect fill="#FFFFFF" height="31.706" style="stroke:#181818;stroke-width:1;" width="10" x="612.8514" y="860.9544"/><rect fill="#FFFFFF" height="31.706" style="stroke:#181818;stroke-width:1;" width="10" x="612.8514" y="1023.1905"/><rect fill="#FFFFFF" height="31.706" style="stroke:#181818;stroke-width:1;" width="10" x="612.8514" y="1185.4266"/><line style="stroke:#181818;stroke-width:0.5;stroke-dasharray:5.0,5.0;" x1="30" x2="30" y1="61.7739" y2="1316.2507"/><line style="stroke:#181818;stroke-width:0.5;stroke-dasharray:5.0,5.0;" x1="232.2992" x2="232.2992" y1="61.7739" y2="1316.2507"/><line style="stroke:#181818;stroke-width:0.5;stroke-dasharray:5.0,5.0;" x1="459.3414" x2="459.3414" y1="61.7739" y2="1316.2507"/><line style="stroke:#181818;stroke-width:0.5;stroke-dasharray:5.0,5.0;" x1="617.8275" x2="617.8275" y1="61.7739" y2="1316.2507"/><rect fill="#E2E2F0" height="33.0679" rx="2.5" ry="2.5" style="stroke:#181818;stroke-width:0.5;" width="51.6738" x="5" y="27.706"/><text fill="#000000" font-family="sans-serif" font-size="14" lengthAdjust="spacing" textLength="37.6738" x="12" y="49.672">Client</text><rect fill="#E2E2F0" height="33.0679" rx="2.5" ry="2.5" style="stroke:#181818;stroke-width:0.5;" width="51.6738" x="5" y="1315.2507"/><text fill="#000000" font-family="sans-serif" font-size="14" lengthAdjust="spacing" textLength="37.6738" x="12" y="1337.2166">Client</text><rect fill="#E2E2F0" height="33.0679" rx="2.5" ry="2.5" style="stroke:#181818;stroke-width:0.5;" width="43.5259" x="211.2992" y="27.706"/><text fill="#000000" font-family="sans-serif" font-size="14" lengthAdjust="spacing" textLength="29.5259" x="218.2992" y="49.672">Web</text><rect fill="#E2E2F0" height="33.0679" rx="2.5" ry="2.5" style="stroke:#181818;stroke-width:0.5;" width="43.5259" x="211.2992" y="1315.2507"/><text fill="#000000" font-family="sans-serif" font-size="14" lengthAdjust="spacing" textLength="29.5259" x="218.2992" y="1337.2166">Web</text><rect fill="#E2E2F0" height="33.0679" rx="2.5" ry="2.5" style="stroke:#181818;stroke-width:0.5;" width="106.1477" x="406.3414" y="27.706"/><text fill="#000000" font-family="sans-serif" font-size="14" lengthAdjust="spacing" textLength="92.1477" x="413.3414" y="49.672">Infrastructure</text><rect fill="#E2E2F0" height="33.0679" rx="2.5" ry="2.5" style="stroke:#181818;stroke-width:0.5;" width="106.1477" x="406.3414" y="1315.2507"/><text fill="#000000" font-family="sans-serif" font-size="14" lengthAdjust="spacing" textLength="92.1477" x="413.3414" y="1337.2166">Infrastructure</text><rect fill="#E2E2F0" height="33.0679" rx="2.5" ry="2.5" style="stroke:#181818;stroke-width:0.5;" width="76.0478" x="579.8275" y="27.706"/><text fill="#000000" font-family="sans-serif" font-size="14" lengthAdjust="spacing" textLength="62.0478" x="586.8275" y="49.672">Database</text><rect fill="#E2E2F0" height="33.0679" rx="2.5" ry="2.5" style="stroke:#181818;stroke-width:0.5;" width="76.0478" x="579.8275" y="1315.2507"/><text fill="#000000" font-family="sans-serif" font-size="14" lengthAdjust="spacing" textLength="62.0478" x="586.8275" y="1337.2166">Database</text><rect fill="#FFFFFF" height="1185.0647" style="stroke:#181818;stroke-width:1;" width="10" x="228.0621" y="113.186"/><rect fill="#FFFFFF" height="112.8241" style="stroke:#181818;stroke-width:1;" width="10" x="454.4152" y="162.598"/><rect fill="#FFFFFF" height="112.8241" style="stroke:#181818;stroke-width:1;" width="10" x="454.4152" y="324.8341"/><rect fill="#FFFFFF" height="112.8241" style="stroke:#181818;stroke-width:1;" width="10" x="454.4152" y="487.0702"/><rect fill="#FFFFFF" height="112.8241" style="stroke:#181818;stroke-width:1;" width="10" x="454.4152" y="649.3063"/><rect fill="#FFFFFF" height="112.8241" style="stroke:#181818;stroke-width:1;" width="10" x="454.4152" y="811.5424"/><rect fill="#FFFFFF" height="112.8241" style="stroke:#181818;stroke-width:1;" width="10" x="454.4152" y="973.7785"/><rect fill="#FFFFFF" height="112.8241" style="stroke:#181818;stroke-width:1;" width="10" x="454.4152" y="1136.0146"/><rect fill="#FFFFFF" height="31.706" style="stroke:#181818;stroke-width:1;" width="10" x="612.8514" y="212.01"/><rect fill="#FFFFFF" height="31.706" style="stroke:#181818;stroke-width:1;" width="10" x="612.8514" y="374.2461"/><rect fill="#FFFFFF" height="31.706" style="stroke:#181818;stroke-width:1;" width="10" x="612.8514" y="536.4822"/><rect fill="#FFFFFF" height="31.706" style="stroke:#181818;stroke-width:1;" width="10" x="612.8514" y="698.7183"/><rect fill="#FFFFFF" height="31.706" style="stroke:#181818;stroke-width:1;" width="10" x="612.8514" y="860.9544"/><rect fill="#FFFFFF" height="31.706" style="stroke:#181818;stroke-width:1;" width="10" x="612.8514" y="1023.1905"/><rect fill="#FFFFFF" height="31.706" style="stroke:#181818;stroke-width:1;" width="10" x="612.8514" y="1185.4266"/><polygon fill="#181818" points="216.0621,109.186,226.0621,113.186,216.0621,117.186,220.0621,113.186" style="stroke:#181818;stroke-width:1;"/><line style="stroke:#181818;stroke-width:1;" x1="30.8369" x2="222.0621" y1="113.186" y2="113.186"/><text fill="#000000" font-family="sans-serif" font-size="13" lengthAdjust="spacing" textLength="163.8262" x="47.5364" y="89.6709">HTTP/HTTPS - GET Request</text><text fill="#000000" font-family="sans-serif" font-size="13" font-weight="bold" lengthAdjust="spacing" textLength="101.5171" x="78.691" y="107.377">Path: /&lt;author&gt;</text><polygon fill="#181818" points="442.4152,158.598,452.4152,162.598,442.4152,166.598,446.4152,162.598" style="stroke:#181818;stroke-width:1;"/><line style="stroke:#181818;stroke-width:1;" x1="238.0621" x2="448.4152" y1="162.598" y2="162.598"/><text fill="#000000" font-family="sans-serif" font-size="13" lengthAdjust="spacing" textLength="98.8911" x="296.7931" y="139.083">C# - Method call</text><text fill="#000000" font-family="sans-serif" font-size="13" font-weight="bold" lengthAdjust="spacing" textLength="77.103" x="307.6872" y="156.789">GetAuthor()</text><polygon fill="#181818" points="600.8514,208.01,610.8514,212.01,600.8514,216.01,604.8514,212.01" style="stroke:#181818;stroke-width:1;"/><line style="stroke:#181818;stroke-width:1;" x1="464.4152" x2="606.8514" y1="212.01" y2="212.01"/><text fill="#000000" font-family="sans-serif" font-size="13" lengthAdjust="spacing" textLength="122.0831" x="477.5917" y="188.495">SQL Query - EF Core</text><text fill="#000000" font-family="sans-serif" font-size="13" font-weight="bold" lengthAdjust="spacing" textLength="104.3121" x="486.4773" y="206.201">_context.Author</text><polygon fill="#181818" points="475.4152,239.716,465.4152,243.716,475.4152,247.716,471.4152,243.716" style="stroke:#181818;stroke-width:1;"/><line style="stroke:#181818;stroke-width:1;stroke-dasharray:2.0,2.0;" x1="469.4152" x2="616.8514" y1="243.716" y2="243.716"/><text fill="#000000" font-family="sans-serif" font-size="13" font-style="italic" lengthAdjust="spacing" textLength="39.169" x="499.2148" y="237.907">Author</text><text fill="#000000" font-family="sans-serif" font-size="13" lengthAdjust="spacing" textLength="41.288" x="541.7638" y="237.907">author</text><polygon fill="#181818" points="249.0621,271.4221,239.0621,275.4221,249.0621,279.4221,245.0621,275.4221" style="stroke:#181818;stroke-width:1;"/><line style="stroke:#181818;stroke-width:1;stroke-dasharray:2.0,2.0;" x1="243.0621" x2="458.4152" y1="275.4221" y2="275.4221"/><text fill="#000000" font-family="sans-serif" font-size="13" font-style="italic" lengthAdjust="spacing" textLength="39.169" x="306.8201" y="269.6131">Author</text><text fill="#000000" font-family="sans-serif" font-size="13" lengthAdjust="spacing" textLength="41.288" x="349.3692" y="269.6131">author</text><polygon fill="#181818" points="442.4152,320.8341,452.4152,324.8341,442.4152,328.8341,446.4152,324.8341" style="stroke:#181818;stroke-width:1;"/><line style="stroke:#181818;stroke-width:1;" x1="238.0621" x2="448.4152" y1="324.8341" y2="324.8341"/><text fill="#000000" font-family="sans-serif" font-size="13" lengthAdjust="spacing" textLength="98.8911" x="296.7931" y="301.3191">C# - Method call</text><text fill="#000000" font-family="sans-serif" font-size="13" font-weight="bold" lengthAdjust="spacing" textLength="134.4851" x="278.9961" y="319.0251">GetCheepsTimeline()</text><polygon fill="#181818" points="600.8514,370.2461,610.8514,374.2461,600.8514,378.2461,604.8514,374.2461" style="stroke:#181818;stroke-width:1;"/><line style="stroke:#181818;stroke-width:1;" x1="464.4152" x2="606.8514" y1="374.2461" y2="374.2461"/><text fill="#000000" font-family="sans-serif" font-size="13" lengthAdjust="spacing" textLength="122.0831" x="477.5917" y="350.7311">SQL Query - EF Core</text><text fill="#000000" font-family="sans-serif" font-size="13" font-weight="bold" lengthAdjust="spacing" textLength="105.8981" x="485.6843" y="368.4371">_context.Cheeps</text><polygon fill="#181818" points="475.4152,401.9521,465.4152,405.9521,475.4152,409.9521,471.4152,405.9521" style="stroke:#181818;stroke-width:1;"/><line style="stroke:#181818;stroke-width:1;stroke-dasharray:2.0,2.0;" x1="469.4152" x2="616.8514" y1="405.9521" y2="405.9521"/><text fill="#000000" font-family="sans-serif" font-size="13" font-style="italic" lengthAdjust="spacing" textLength="75.6471" x="480.0397" y="400.1431">List&lt;Cheeps&gt;</text><text fill="#000000" font-family="sans-serif" font-size="13" lengthAdjust="spacing" textLength="43.16" x="559.0668" y="400.1431">cheeps</text><polygon fill="#181818" points="249.0621,433.6582,239.0621,437.6582,249.0621,441.6582,245.0621,437.6582" style="stroke:#181818;stroke-width:1;"/><line style="stroke:#181818;stroke-width:1;stroke-dasharray:2.0,2.0;" x1="243.0621" x2="458.4152" y1="437.6582" y2="437.6582"/><text fill="#000000" font-family="sans-serif" font-size="13" font-style="italic" lengthAdjust="spacing" textLength="75.6471" x="287.6451" y="431.8492">List&lt;Cheeps&gt;</text><text fill="#000000" font-family="sans-serif" font-size="13" lengthAdjust="spacing" textLength="43.16" x="366.6722" y="431.8492">cheeps</text><polygon fill="#181818" points="442.4152,483.0702,452.4152,487.0702,442.4152,491.0702,446.4152,487.0702" style="stroke:#181818;stroke-width:1;"/><line style="stroke:#181818;stroke-width:1;" x1="238.0621" x2="448.4152" y1="487.0702" y2="487.0702"/><text fill="#000000" font-family="sans-serif" font-size="13" lengthAdjust="spacing" textLength="98.8911" x="296.7931" y="463.5552">C# - Method call</text><text fill="#000000" font-family="sans-serif" font-size="13" font-weight="bold" lengthAdjust="spacing" textLength="173.4981" x="259.4896" y="481.2612">GetCheepsTimelineCount()</text><polygon fill="#181818" points="600.8514,532.4822,610.8514,536.4822,600.8514,540.4822,604.8514,536.4822" style="stroke:#181818;stroke-width:1;"/><line style="stroke:#181818;stroke-width:1;" x1="464.4152" x2="606.8514" y1="536.4822" y2="536.4822"/><text fill="#000000" font-family="sans-serif" font-size="13" lengthAdjust="spacing" textLength="122.0831" x="477.5917" y="512.9672">SQL Query - EF Core</text><text fill="#000000" font-family="sans-serif" font-size="13" font-weight="bold" lengthAdjust="spacing" textLength="105.8981" x="485.6843" y="530.6732">_context.Cheeps</text><polygon fill="#181818" points="475.4152,564.1882,465.4152,568.1882,475.4152,572.1882,471.4152,568.1882" style="stroke:#181818;stroke-width:1;"/><line style="stroke:#181818;stroke-width:1;stroke-dasharray:2.0,2.0;" x1="469.4152" x2="616.8514" y1="568.1882" y2="568.1882"/><text fill="#000000" font-family="sans-serif" font-size="13" font-style="italic" lengthAdjust="spacing" textLength="15.197" x="491.8437" y="562.3792">int</text><text fill="#000000" font-family="sans-serif" font-size="13" lengthAdjust="spacing" textLength="80.0021" x="510.4208" y="562.3792">cheepsCount</text><polygon fill="#181818" points="249.0621,595.8943,239.0621,599.8943,249.0621,603.8943,245.0621,599.8943" style="stroke:#181818;stroke-width:1;"/><line style="stroke:#181818;stroke-width:1;stroke-dasharray:2.0,2.0;" x1="243.0621" x2="458.4152" y1="599.8943" y2="599.8943"/><text fill="#000000" font-family="sans-serif" font-size="13" font-style="italic" lengthAdjust="spacing" textLength="15.197" x="299.4491" y="594.0853">int</text><text fill="#000000" font-family="sans-serif" font-size="13" lengthAdjust="spacing" textLength="80.0021" x="318.0261" y="594.0853">cheepsCount</text><polygon fill="#181818" points="442.4152,645.3063,452.4152,649.3063,442.4152,653.3063,446.4152,649.3063" style="stroke:#181818;stroke-width:1;"/><line style="stroke:#181818;stroke-width:1;" x1="238.0621" x2="448.4152" y1="649.3063" y2="649.3063"/><text fill="#000000" font-family="sans-serif" font-size="13" lengthAdjust="spacing" textLength="98.8911" x="296.7931" y="625.7913">C# - Method call</text><text fill="#000000" font-family="sans-serif" font-size="13" font-weight="bold" lengthAdjust="spacing" textLength="105.8331" x="293.3221" y="643.4973">GetLikedCount()</text><polygon fill="#181818" points="600.8514,694.7183,610.8514,698.7183,600.8514,702.7183,604.8514,698.7183" style="stroke:#181818;stroke-width:1;"/><line style="stroke:#181818;stroke-width:1;" x1="464.4152" x2="606.8514" y1="698.7183" y2="698.7183"/><text fill="#000000" font-family="sans-serif" font-size="13" lengthAdjust="spacing" textLength="122.0831" x="477.5917" y="675.2033">SQL Query - EF Core</text><text fill="#000000" font-family="sans-serif" font-size="13" font-weight="bold" lengthAdjust="spacing" textLength="104.3121" x="486.4773" y="692.9093">_context.Author</text><polygon fill="#181818" points="475.4152,726.4243,465.4152,730.4243,475.4152,734.4243,471.4152,730.4243" style="stroke:#181818;stroke-width:1;"/><line style="stroke:#181818;stroke-width:1;stroke-dasharray:2.0,2.0;" x1="469.4152" x2="616.8514" y1="730.4243" y2="730.4243"/><text fill="#000000" font-family="sans-serif" font-size="13" font-style="italic" lengthAdjust="spacing" textLength="15.197" x="491.8437" y="724.6153">int</text><text fill="#000000" font-family="sans-serif" font-size="13" lengthAdjust="spacing" textLength="80.0021" x="510.4208" y="724.6153">cheepsCount</text><polygon fill="#181818" points="249.0621,758.1304,239.0621,762.1304,249.0621,766.1304,245.0621,762.1304" style="stroke:#181818;stroke-width:1;"/><line style="stroke:#181818;stroke-width:1;stroke-dasharray:2.0,2.0;" x1="243.0621" x2="458.4152" y1="762.1304" y2="762.1304"/><text fill="#000000" font-family="sans-serif" font-size="13" font-style="italic" lengthAdjust="spacing" textLength="15.197" x="286.7156" y="756.3214">int</text><text fill="#000000" font-family="sans-serif" font-size="13" lengthAdjust="spacing" textLength="105.4691" x="305.2926" y="756.3214">totalLikedCheeps</text><polygon fill="#181818" points="442.4152,807.5424,452.4152,811.5424,442.4152,815.5424,446.4152,811.5424" style="stroke:#181818;stroke-width:1;"/><line style="stroke:#181818;stroke-width:1;" x1="238.0621" x2="448.4152" y1="811.5424" y2="811.5424"/><text fill="#000000" font-family="sans-serif" font-size="13" lengthAdjust="spacing" textLength="98.8911" x="296.7931" y="788.0274">C# - Method call</text><text fill="#000000" font-family="sans-serif" font-size="13" font-weight="bold" lengthAdjust="spacing" textLength="197.3531" x="247.5621" y="805.7334">GetCheepsCommentedCount()</text><polygon fill="#181818" points="600.8514,856.9544,610.8514,860.9544,600.8514,864.9544,604.8514,860.9544" style="stroke:#181818;stroke-width:1;"/><line style="stroke:#181818;stroke-width:1;" x1="464.4152" x2="606.8514" y1="860.9544" y2="860.9544"/><text fill="#000000" font-family="sans-serif" font-size="13" lengthAdjust="spacing" textLength="122.0831" x="477.5917" y="837.4394">SQL Query - EF Core</text><text fill="#000000" font-family="sans-serif" font-size="13" font-weight="bold" lengthAdjust="spacing" textLength="104.3121" x="486.4773" y="855.1454">_context.Author</text><polygon fill="#181818" points="475.4152,888.6604,465.4152,892.6604,475.4152,896.6604,471.4152,892.6604" style="stroke:#181818;stroke-width:1;"/><line style="stroke:#181818;stroke-width:1;stroke-dasharray:2.0,2.0;" x1="469.4152" x2="616.8514" y1="892.6604" y2="892.6604"/><text fill="#000000" font-family="sans-serif" font-size="13" font-style="italic" lengthAdjust="spacing" textLength="15.197" x="491.8437" y="886.8514">int</text><text fill="#000000" font-family="sans-serif" font-size="13" lengthAdjust="spacing" textLength="80.0021" x="510.4208" y="886.8514">cheepsCount</text><polygon fill="#181818" points="249.0621,920.3665,239.0621,924.3665,249.0621,928.3665,245.0621,924.3665" style="stroke:#181818;stroke-width:1;"/><line style="stroke:#181818;stroke-width:1;stroke-dasharray:2.0,2.0;" x1="243.0621" x2="458.4152" y1="924.3665" y2="924.3665"/><text fill="#000000" font-family="sans-serif" font-size="13" font-style="italic" lengthAdjust="spacing" textLength="15.197" x="265.0446" y="918.5575">int</text><text fill="#000000" font-family="sans-serif" font-size="13" lengthAdjust="spacing" textLength="148.8111" x="283.6216" y="918.5575">totalCommentedCheeps</text><polygon fill="#181818" points="442.4152,969.7785,452.4152,973.7785,442.4152,977.7785,446.4152,973.7785" style="stroke:#181818;stroke-width:1;"/><line style="stroke:#181818;stroke-width:1;" x1="238.0621" x2="448.4152" y1="973.7785" y2="973.7785"/><text fill="#000000" font-family="sans-serif" font-size="13" lengthAdjust="spacing" textLength="98.8911" x="296.7931" y="950.2635">C# - Method call</text><text fill="#000000" font-family="sans-serif" font-size="13" font-weight="bold" lengthAdjust="spacing" textLength="94.4451" x="299.0161" y="967.9695">GetFollowing()</text><polygon fill="#181818" points="600.8514,1019.1905,610.8514,1023.1905,600.8514,1027.1905,604.8514,1023.1905" style="stroke:#181818;stroke-width:1;"/><line style="stroke:#181818;stroke-width:1;" x1="464.4152" x2="606.8514" y1="1023.1905" y2="1023.1905"/><text fill="#000000" font-family="sans-serif" font-size="13" lengthAdjust="spacing" textLength="122.0831" x="477.5917" y="999.6755">SQL Query - EF Core</text><text fill="#000000" font-family="sans-serif" font-size="13" font-weight="bold" lengthAdjust="spacing" textLength="104.3121" x="486.4773" y="1017.3815">_context.Author</text><polygon fill="#181818" points="475.4152,1050.8965,465.4152,1054.8965,475.4152,1058.8965,471.4152,1054.8965" style="stroke:#181818;stroke-width:1;"/><line style="stroke:#181818;stroke-width:1;stroke-dasharray:2.0,2.0;" x1="469.4152" x2="616.8514" y1="1054.8965" y2="1054.8965"/><text fill="#000000" font-family="sans-serif" font-size="13" font-style="italic" lengthAdjust="spacing" textLength="73.5411" x="478.9152" y="1049.0875">List&lt;Author&gt;</text><text fill="#000000" font-family="sans-serif" font-size="13" lengthAdjust="spacing" textLength="47.515" x="555.8363" y="1049.0875">authors</text><polygon fill="#181818" points="249.0621,1082.6026,239.0621,1086.6026,249.0621,1090.6026,245.0621,1086.6026" style="stroke:#181818;stroke-width:1;"/><line style="stroke:#181818;stroke-width:1;stroke-dasharray:2.0,2.0;" x1="243.0621" x2="458.4152" y1="1086.6026" y2="1086.6026"/><text fill="#000000" font-family="sans-serif" font-size="13" font-style="italic" lengthAdjust="spacing" textLength="73.5411" x="282.0226" y="1080.7936">List&lt;Author&gt;</text><text fill="#000000" font-family="sans-serif" font-size="13" lengthAdjust="spacing" textLength="56.511" x="358.9437" y="1080.7936">following</text><polygon fill="#181818" points="442.4152,1132.0146,452.4152,1136.0146,442.4152,1140.0146,446.4152,1136.0146" style="stroke:#181818;stroke-width:1;"/><line style="stroke:#181818;stroke-width:1;" x1="238.0621" x2="448.4152" y1="1136.0146" y2="1136.0146"/><text fill="#000000" font-family="sans-serif" font-size="13" lengthAdjust="spacing" textLength="98.8911" x="296.7931" y="1112.4996">C# - Method call</text><text fill="#000000" font-family="sans-serif" font-size="13" font-weight="bold" lengthAdjust="spacing" textLength="93.99" x="299.2437" y="1130.2056">GetFollowers()</text><polygon fill="#181818" points="600.8514,1181.4266,610.8514,1185.4266,600.8514,1189.4266,604.8514,1185.4266" style="stroke:#181818;stroke-width:1;"/><line style="stroke:#181818;stroke-width:1;" x1="464.4152" x2="606.8514" y1="1185.4266" y2="1185.4266"/><text fill="#000000" font-family="sans-serif" font-size="13" lengthAdjust="spacing" textLength="122.0831" x="477.5917" y="1161.9116">SQL Query - EF Core</text><text fill="#000000" font-family="sans-serif" font-size="13" font-weight="bold" lengthAdjust="spacing" textLength="104.3121" x="486.4773" y="1179.6176">_context.Author</text><polygon fill="#181818" points="475.4152,1213.1326,465.4152,1217.1326,475.4152,1221.1326,471.4152,1217.1326" style="stroke:#181818;stroke-width:1;"/><line style="stroke:#181818;stroke-width:1;stroke-dasharray:2.0,2.0;" x1="469.4152" x2="616.8514" y1="1217.1326" y2="1217.1326"/><text fill="#000000" font-family="sans-serif" font-size="13" font-style="italic" lengthAdjust="spacing" textLength="73.5411" x="478.9152" y="1211.3236">List&lt;Author&gt;</text><text fill="#000000" font-family="sans-serif" font-size="13" lengthAdjust="spacing" textLength="47.515" x="555.8363" y="1211.3236">authors</text><polygon fill="#181818" points="249.0621,1244.8387,239.0621,1248.8387,249.0621,1252.8387,245.0621,1248.8387" style="stroke:#181818;stroke-width:1;"/><line style="stroke:#181818;stroke-width:1;stroke-dasharray:2.0,2.0;" x1="243.0621" x2="458.4152" y1="1248.8387" y2="1248.8387"/><text fill="#000000" font-family="sans-serif" font-size="13" font-style="italic" lengthAdjust="spacing" textLength="73.5411" x="282.2501" y="1243.0297">List&lt;Author&gt;</text><text fill="#000000" font-family="sans-serif" font-size="13" lengthAdjust="spacing" textLength="56.056" x="359.1712" y="1243.0297">followers</text><polygon fill="#181818" points="41.8369,1294.2507,31.8369,1298.2507,41.8369,1302.2507,37.8369,1298.2507" style="stroke:#181818;stroke-width:1;"/><line style="stroke:#181818;stroke-width:1;stroke-dasharray:2.0,2.0;" x1="35.8369" x2="232.0621" y1="1298.2507" y2="1298.2507"/><text fill="#000000" font-family="sans-serif" font-size="13" lengthAdjust="spacing" textLength="173.2252" x="45.3369" y="1274.7357">HTTP/HTTPS - GET Response</text><text fill="#000000" font-family="sans-serif" font-size="13" font-weight="bold" lengthAdjust="spacing" textLength="101.5171" x="81.191" y="1292.4417">Path: /&lt;author&gt;</text><!--SRC=[pPHTQy8m58RlyoiEx6QhkDwB2DAf6oZeBEncC68zsc2RTCafS_z-IODVKnJy06zAUZwUyxwq9mNN919HS4aGPG8bCJPHIuXIeGjMR6K_SBBp_YPdcXlIPKAbnftK2oS-uGOPoYbO6cDc8QIju3aO_2vH9ZX0O_WSsvcOIqZiNDICUGLGRxbfKAj10rxZU1YwnnZgqEl4yEu0XZvb40mvfGq8cxoaLEbM433c-cpxhZXFYXuiOO2sT0e9pp97w26rg-R79zVzhys2LbOyOZpgmwX4_Mj9dIv4IgEZV2NAwb_IisTPaaOBa126FXA6u3Mo8vapj4SfOc5YaMCc95x7WsTkU-WBGqqVRbczINLY9_CN-ubKAUbMfeIajTPg43kQEyDCNonmUaKF-p_NQG-aY6TUoALV9L9vxjRqBYnjn9nlgwkoJFq8ER-LbselVBYrtlEznTaKp5Q2Bh23sjoN7TmgEN2Ncq99WmSlypy0]--></g></svg>