<svg xmlns="http://www.w3.org/2000/svg" xmlns:xlink="http://www.w3.org/1999/xlink" contentStyleType="text/css" height="1359px" preserveAspectRatio="none" style="width:621px;height:1359px;background:#FFFFFF;" version="1.1" viewBox="0 0 621 1359" width="621px" zoomAndPan="magnify"><defs/><g><rect fill="#DDDDDD" height="1347.3186" style="stroke:#181818;stroke-width:0.5;" width="452.5761" x="163.3721" y="6"/><text fill="#000000" font-family="sans-serif" font-size="13" font-weight="bold" lengthAdjust="spacing" textLength="34.71" x="372.3051" y="19.897">Chirp</text><rect fill="#FFFFFF" height="1185.0647" style="stroke:#181818;stroke-width:1;" width="10" x="184.1351" y="113.186"/><rect fill="#FFFFFF" height="112.8241" style="stroke:#181818;stroke-width:1;" width="10" x="410.4882" y="162.598"/><rect fill="#FFFFFF" height="112.8241" style="stroke:#181818;stroke-width:1;" width="10" x="410.4882" y="324.8341"/><rect fill="#FFFFFF" height="112.8241" style="stroke:#181818;stroke-width:1;" width="10" x="410.4882" y="487.0702"/><rect fill="#FFFFFF" height="112.8241" style="stroke:#181818;stroke-width:1;" width="10" x="410.4882" y="649.3063"/><rect fill="#FFFFFF" height="112.8241" style="stroke:#181818;stroke-width:1;" width="10" x="410.4882" y="811.5424"/><rect fill="#FFFFFF" height="112.8241" style="stroke:#181818;stroke-width:1;" width="10" x="410.4882" y="973.7785"/><rect fill="#FFFFFF" height="112.8241" style="stroke:#181818;stroke-width:1;" width="10" x="410.4882" y="1136.0146"/><rect fill="#FFFFFF" height="31.706" style="stroke:#181818;stroke-width:1;" width="10" x="568.9243" y="212.01"/><rect fill="#FFFFFF" height="31.706" style="stroke:#181818;stroke-width:1;" width="10" x="568.9243" y="374.2461"/><rect fill="#FFFFFF" height="31.706" style="stroke:#181818;stroke-width:1;" width="10" x="568.9243" y="536.4822"/><rect fill="#FFFFFF" height="31.706" style="stroke:#181818;stroke-width:1;" width="10" x="568.9243" y="698.7183"/><rect fill="#FFFFFF" height="31.706" style="stroke:#181818;stroke-width:1;" width="10" x="568.9243" y="860.9544"/><rect fill="#FFFFFF" height="31.706" style="stroke:#181818;stroke-width:1;" width="10" x="568.9243" y="1023.1905"/><rect fill="#FFFFFF" height="31.706" style="stroke:#181818;stroke-width:1;" width="10" x="568.9243" y="1185.4266"/><line style="stroke:#181818;stroke-width:0.5;stroke-dasharray:5.0,5.0;" x1="30" x2="30" y1="61.7739" y2="1316.2507"/><line style="stroke:#181818;stroke-width:0.5;stroke-dasharray:5.0,5.0;" x1="188.3721" x2="188.3721" y1="61.7739" y2="1316.2507"/><line style="stroke:#181818;stroke-width:0.5;stroke-dasharray:5.0,5.0;" x1="415.4144" x2="415.4144" y1="61.7739" y2="1316.2507"/><line style="stroke:#181818;stroke-width:0.5;stroke-dasharray:5.0,5.0;" x1="573.9004" x2="573.9004" y1="61.7739" y2="1316.2507"/><rect fill="#E2E2F0" height="33.0679" rx="2.5" ry="2.5" style="stroke:#181818;stroke-width:0.5;" width="51.6738" x="5" y="27.706"/><text fill="#000000" font-family="sans-serif" font-size="14" lengthAdjust="spacing" textLength="37.6738" x="12" y="49.672">Client</text><rect fill="#E2E2F0" height="33.0679" rx="2.5" ry="2.5" style="stroke:#181818;stroke-width:0.5;" width="51.6738" x="5" y="1315.2507"/><text fill="#000000" font-family="sans-serif" font-size="14" lengthAdjust="spacing" textLength="37.6738" x="12" y="1337.2166">Client</text><rect fill="#E2E2F0" height="33.0679" rx="2.5" ry="2.5" style="stroke:#181818;stroke-width:0.5;" width="43.5259" x="167.3721" y="27.706"/><text fill="#000000" font-family="sans-serif" font-size="14" lengthAdjust="spacing" textLength="29.5259" x="174.3721" y="49.672">Web</text><rect fill="#E2E2F0" height="33.0679" rx="2.5" ry="2.5" style="stroke:#181818;stroke-width:0.5;" width="43.5259" x="167.3721" y="1315.2507"/><text fill="#000000" font-family="sans-serif" font-size="14" lengthAdjust="spacing" textLength="29.5259" x="174.3721" y="1337.2166">Web</text><rect fill="#E2E2F0" height="33.0679" rx="2.5" ry="2.5" style="stroke:#181818;stroke-width:0.5;" width="106.1477" x="362.4144" y="27.706"/><text fill="#000000" font-family="sans-serif" font-size="14" lengthAdjust="spacing" textLength="92.1477" x="369.4144" y="49.672">Infrastructure</text><rect fill="#E2E2F0" height="33.0679" rx="2.5" ry="2.5" style="stroke:#181818;stroke-width:0.5;" width="106.1477" x="362.4144" y="1315.2507"/><text fill="#000000" font-family="sans-serif" font-size="14" lengthAdjust="spacing" textLength="92.1477" x="369.4144" y="1337.2166">Infrastructure</text><rect fill="#E2E2F0" height="33.0679" rx="2.5" ry="2.5" style="stroke:#181818;stroke-width:0.5;" width="76.0478" x="535.9004" y="27.706"/><text fill="#000000" font-family="sans-serif" font-size="14" lengthAdjust="spacing" textLength="62.0478" x="542.9004" y="49.672">Database</text><rect fill="#E2E2F0" height="33.0679" rx="2.5" ry="2.5" style="stroke:#181818;stroke-width:0.5;" width="76.0478" x="535.9004" y="1315.2507"/><text fill="#000000" font-family="sans-serif" font-size="14" lengthAdjust="spacing" textLength="62.0478" x="542.9004" y="1337.2166">Database</text><rect fill="#FFFFFF" height="1185.0647" style="stroke:#181818;stroke-width:1;" width="10" x="184.1351" y="113.186"/><rect fill="#FFFFFF" height="112.8241" style="stroke:#181818;stroke-width:1;" width="10" x="410.4882" y="162.598"/><rect fill="#FFFFFF" height="112.8241" style="stroke:#181818;stroke-width:1;" width="10" x="410.4882" y="324.8341"/><rect fill="#FFFFFF" height="112.8241" style="stroke:#181818;stroke-width:1;" width="10" x="410.4882" y="487.0702"/><rect fill="#FFFFFF" height="112.8241" style="stroke:#181818;stroke-width:1;" width="10" x="410.4882" y="649.3063"/><rect fill="#FFFFFF" height="112.8241" style="stroke:#181818;stroke-width:1;" width="10" x="410.4882" y="811.5424"/><rect fill="#FFFFFF" height="112.8241" style="stroke:#181818;stroke-width:1;" width="10" x="410.4882" y="973.7785"/><rect fill="#FFFFFF" height="112.8241" style="stroke:#181818;stroke-width:1;" width="10" x="410.4882" y="1136.0146"/><rect fill="#FFFFFF" height="31.706" style="stroke:#181818;stroke-width:1;" width="10" x="568.9243" y="212.01"/><rect fill="#FFFFFF" height="31.706" style="stroke:#181818;stroke-width:1;" width="10" x="568.9243" y="374.2461"/><rect fill="#FFFFFF" height="31.706" style="stroke:#181818;stroke-width:1;" width="10" x="568.9243" y="536.4822"/><rect fill="#FFFFFF" height="31.706" style="stroke:#181818;stroke-width:1;" width="10" x="568.9243" y="698.7183"/><rect fill="#FFFFFF" height="31.706" style="stroke:#181818;stroke-width:1;" width="10" x="568.9243" y="860.9544"/><rect fill="#FFFFFF" height="31.706" style="stroke:#181818;stroke-width:1;" width="10" x="568.9243" y="1023.1905"/><rect fill="#FFFFFF" height="31.706" style="stroke:#181818;stroke-width:1;" width="10" x="568.9243" y="1185.4266"/><polygon fill="#181818" points="172.1351,109.186,182.1351,113.186,172.1351,117.186,176.1351,113.186" style="stroke:#181818;stroke-width:1;"/><line style="stroke:#181818;stroke-width:1;" x1="30.8369" x2="178.1351" y1="113.186" y2="113.186"/><text fill="#000000" font-family="sans-serif" font-size="13" lengthAdjust="spacing" textLength="119.8991" x="47.5364" y="89.6709">HTTP - GET Request</text><text fill="#000000" font-family="sans-serif" font-size="13" font-weight="bold" lengthAdjust="spacing" textLength="101.5171" x="56.7275" y="107.377">Path: /&lt;author&gt;</text><polygon fill="#181818" points="398.4882,158.598,408.4882,162.598,398.4882,166.598,402.4882,162.598" style="stroke:#181818;stroke-width:1;"/><line style="stroke:#181818;stroke-width:1;" x1="194.1351" x2="404.4882" y1="162.598" y2="162.598"/><text fill="#000000" font-family="sans-serif" font-size="13" lengthAdjust="spacing" textLength="98.8911" x="252.8661" y="139.083">C# - Method call</text><text fill="#000000" font-family="sans-serif" font-size="13" font-weight="bold" lengthAdjust="spacing" textLength="77.103" x="263.7601" y="156.789">GetAuthor()</text><polygon fill="#181818" points="556.9243,208.01,566.9243,212.01,556.9243,216.01,560.9243,212.01" style="stroke:#181818;stroke-width:1;"/><line style="stroke:#181818;stroke-width:1;" x1="420.4882" x2="562.9243" y1="212.01" y2="212.01"/><text fill="#000000" font-family="sans-serif" font-size="13" lengthAdjust="spacing" textLength="122.0831" x="433.6647" y="188.495">SQL Query - EF Core</text><text fill="#000000" font-family="sans-serif" font-size="13" font-weight="bold" lengthAdjust="spacing" textLength="104.3121" x="442.5502" y="206.201">_context.Author</text><polygon fill="#181818" points="431.4882,239.716,421.4882,243.716,431.4882,247.716,427.4882,243.716" style="stroke:#181818;stroke-width:1;"/><line style="stroke:#181818;stroke-width:1;stroke-dasharray:2.0,2.0;" x1="425.4882" x2="572.9243" y1="243.716" y2="243.716"/><text fill="#000000" font-family="sans-serif" font-size="13" font-style="italic" lengthAdjust="spacing" textLength="39.169" x="455.2877" y="237.907">Author</text><text fill="#000000" font-family="sans-serif" font-size="13" lengthAdjust="spacing" textLength="41.288" x="497.8367" y="237.907">author</text><polygon fill="#181818" points="205.1351,271.4221,195.1351,275.4221,205.1351,279.4221,201.1351,275.4221" style="stroke:#181818;stroke-width:1;"/><line style="stroke:#181818;stroke-width:1;stroke-dasharray:2.0,2.0;" x1="199.1351" x2="414.4882" y1="275.4221" y2="275.4221"/><text fill="#000000" font-family="sans-serif" font-size="13" font-style="italic" lengthAdjust="spacing" textLength="39.169" x="262.8931" y="269.6131">Author</text><text fill="#000000" font-family="sans-serif" font-size="13" lengthAdjust="spacing" textLength="41.288" x="305.4421" y="269.6131">author</text><polygon fill="#181818" points="398.4882,320.8341,408.4882,324.8341,398.4882,328.8341,402.4882,324.8341" style="stroke:#181818;stroke-width:1;"/><line style="stroke:#181818;stroke-width:1;" x1="194.1351" x2="404.4882" y1="324.8341" y2="324.8341"/><text fill="#000000" font-family="sans-serif" font-size="13" lengthAdjust="spacing" textLength="98.8911" x="252.8661" y="301.3191">C# - Method call</text><text fill="#000000" font-family="sans-serif" font-size="13" font-weight="bold" lengthAdjust="spacing" textLength="134.4851" x="235.0691" y="319.0251">GetCheepsTimeline()</text><polygon fill="#181818" points="556.9243,370.2461,566.9243,374.2461,556.9243,378.2461,560.9243,374.2461" style="stroke:#181818;stroke-width:1;"/><line style="stroke:#181818;stroke-width:1;" x1="420.4882" x2="562.9243" y1="374.2461" y2="374.2461"/><text fill="#000000" font-family="sans-serif" font-size="13" lengthAdjust="spacing" textLength="122.0831" x="433.6647" y="350.7311">SQL Query - EF Core</text><text fill="#000000" font-family="sans-serif" font-size="13" font-weight="bold" lengthAdjust="spacing" textLength="105.8981" x="441.7572" y="368.4371">_context.Cheeps</text><polygon fill="#181818" points="431.4882,401.9521,421.4882,405.9521,431.4882,409.9521,427.4882,405.9521" style="stroke:#181818;stroke-width:1;"/><line style="stroke:#181818;stroke-width:1;stroke-dasharray:2.0,2.0;" x1="425.4882" x2="572.9243" y1="405.9521" y2="405.9521"/><text fill="#000000" font-family="sans-serif" font-size="13" font-style="italic" lengthAdjust="spacing" textLength="75.6471" x="436.1127" y="400.1431">List&lt;Cheeps&gt;</text><text fill="#000000" font-family="sans-serif" font-size="13" lengthAdjust="spacing" textLength="43.16" x="515.1398" y="400.1431">cheeps</text><polygon fill="#181818" points="205.1351,433.6582,195.1351,437.6582,205.1351,441.6582,201.1351,437.6582" style="stroke:#181818;stroke-width:1;"/><line style="stroke:#181818;stroke-width:1;stroke-dasharray:2.0,2.0;" x1="199.1351" x2="414.4882" y1="437.6582" y2="437.6582"/><text fill="#000000" font-family="sans-serif" font-size="13" font-style="italic" lengthAdjust="spacing" textLength="75.6471" x="243.7181" y="431.8492">List&lt;Cheeps&gt;</text><text fill="#000000" font-family="sans-serif" font-size="13" lengthAdjust="spacing" textLength="43.16" x="322.7451" y="431.8492">cheeps</text><polygon fill="#181818" points="398.4882,483.0702,408.4882,487.0702,398.4882,491.0702,402.4882,487.0702" style="stroke:#181818;stroke-width:1;"/><line style="stroke:#181818;stroke-width:1;" x1="194.1351" x2="404.4882" y1="487.0702" y2="487.0702"/><text fill="#000000" font-family="sans-serif" font-size="13" lengthAdjust="spacing" textLength="98.8911" x="252.8661" y="463.5552">C# - Method call</text><text fill="#000000" font-family="sans-serif" font-size="13" font-weight="bold" lengthAdjust="spacing" textLength="173.4981" x="215.5626" y="481.2612">GetCheepsTimelineCount()</text><polygon fill="#181818" points="556.9243,532.4822,566.9243,536.4822,556.9243,540.4822,560.9243,536.4822" style="stroke:#181818;stroke-width:1;"/><line style="stroke:#181818;stroke-width:1;" x1="420.4882" x2="562.9243" y1="536.4822" y2="536.4822"/><text fill="#000000" font-family="sans-serif" font-size="13" lengthAdjust="spacing" textLength="122.0831" x="433.6647" y="512.9672">SQL Query - EF Core</text><text fill="#000000" font-family="sans-serif" font-size="13" font-weight="bold" lengthAdjust="spacing" textLength="105.8981" x="441.7572" y="530.6732">_context.Cheeps</text><polygon fill="#181818" points="431.4882,564.1882,421.4882,568.1882,431.4882,572.1882,427.4882,568.1882" style="stroke:#181818;stroke-width:1;"/><line style="stroke:#181818;stroke-width:1;stroke-dasharray:2.0,2.0;" x1="425.4882" x2="572.9243" y1="568.1882" y2="568.1882"/><text fill="#000000" font-family="sans-serif" font-size="13" font-style="italic" lengthAdjust="spacing" textLength="15.197" x="447.9167" y="562.3792">int</text><text fill="#000000" font-family="sans-serif" font-size="13" lengthAdjust="spacing" textLength="80.0021" x="466.4937" y="562.3792">cheepsCount</text><polygon fill="#181818" points="205.1351,595.8943,195.1351,599.8943,205.1351,603.8943,201.1351,599.8943" style="stroke:#181818;stroke-width:1;"/><line style="stroke:#181818;stroke-width:1;stroke-dasharray:2.0,2.0;" x1="199.1351" x2="414.4882" y1="599.8943" y2="599.8943"/><text fill="#000000" font-family="sans-serif" font-size="13" font-style="italic" lengthAdjust="spacing" textLength="15.197" x="255.5221" y="594.0853">int</text><text fill="#000000" font-family="sans-serif" font-size="13" lengthAdjust="spacing" textLength="80.0021" x="274.0991" y="594.0853">cheepsCount</text><polygon fill="#181818" points="398.4882,645.3063,408.4882,649.3063,398.4882,653.3063,402.4882,649.3063" style="stroke:#181818;stroke-width:1;"/><line style="stroke:#181818;stroke-width:1;" x1="194.1351" x2="404.4882" y1="649.3063" y2="649.3063"/><text fill="#000000" font-family="sans-serif" font-size="13" lengthAdjust="spacing" textLength="98.8911" x="252.8661" y="625.7913">C# - Method call</text><text fill="#000000" font-family="sans-serif" font-size="13" font-weight="bold" lengthAdjust="spacing" textLength="105.8331" x="249.3951" y="643.4973">GetLikedCount()</text><polygon fill="#181818" points="556.9243,694.7183,566.9243,698.7183,556.9243,702.7183,560.9243,698.7183" style="stroke:#181818;stroke-width:1;"/><line style="stroke:#181818;stroke-width:1;" x1="420.4882" x2="562.9243" y1="698.7183" y2="698.7183"/><text fill="#000000" font-family="sans-serif" font-size="13" lengthAdjust="spacing" textLength="122.0831" x="433.6647" y="675.2033">SQL Query - EF Core</text><text fill="#000000" font-family="sans-serif" font-size="13" font-weight="bold" lengthAdjust="spacing" textLength="104.3121" x="442.5502" y="692.9093">_context.Author</text><polygon fill="#181818" points="431.4882,726.4243,421.4882,730.4243,431.4882,734.4243,427.4882,730.4243" style="stroke:#181818;stroke-width:1;"/><line style="stroke:#181818;stroke-width:1;stroke-dasharray:2.0,2.0;" x1="425.4882" x2="572.9243" y1="730.4243" y2="730.4243"/><text fill="#000000" font-family="sans-serif" font-size="13" font-style="italic" lengthAdjust="spacing" textLength="15.197" x="447.9167" y="724.6153">int</text><text fill="#000000" font-family="sans-serif" font-size="13" lengthAdjust="spacing" textLength="80.0021" x="466.4937" y="724.6153">cheepsCount</text><polygon fill="#181818" points="205.1351,758.1304,195.1351,762.1304,205.1351,766.1304,201.1351,762.1304" style="stroke:#181818;stroke-width:1;"/><line style="stroke:#181818;stroke-width:1;stroke-dasharray:2.0,2.0;" x1="199.1351" x2="414.4882" y1="762.1304" y2="762.1304"/><text fill="#000000" font-family="sans-serif" font-size="13" font-style="italic" lengthAdjust="spacing" textLength="15.197" x="242.7886" y="756.3214">int</text><text fill="#000000" font-family="sans-serif" font-size="13" lengthAdjust="spacing" textLength="105.4691" x="261.3656" y="756.3214">totalLikedCheeps</text><polygon fill="#181818" points="398.4882,807.5424,408.4882,811.5424,398.4882,815.5424,402.4882,811.5424" style="stroke:#181818;stroke-width:1;"/><line style="stroke:#181818;stroke-width:1;" x1="194.1351" x2="404.4882" y1="811.5424" y2="811.5424"/><text fill="#000000" font-family="sans-serif" font-size="13" lengthAdjust="spacing" textLength="98.8911" x="252.8661" y="788.0274">C# - Method call</text><text fill="#000000" font-family="sans-serif" font-size="13" font-weight="bold" lengthAdjust="spacing" textLength="197.3531" x="203.6351" y="805.7334">GetCheepsCommentedCount()</text><polygon fill="#181818" points="556.9243,856.9544,566.9243,860.9544,556.9243,864.9544,560.9243,860.9544" style="stroke:#181818;stroke-width:1;"/><line style="stroke:#181818;stroke-width:1;" x1="420.4882" x2="562.9243" y1="860.9544" y2="860.9544"/><text fill="#000000" font-family="sans-serif" font-size="13" lengthAdjust="spacing" textLength="122.0831" x="433.6647" y="837.4394">SQL Query - EF Core</text><text fill="#000000" font-family="sans-serif" font-size="13" font-weight="bold" lengthAdjust="spacing" textLength="104.3121" x="442.5502" y="855.1454">_context.Author</text><polygon fill="#181818" points="431.4882,888.6604,421.4882,892.6604,431.4882,896.6604,427.4882,892.6604" style="stroke:#181818;stroke-width:1;"/><line style="stroke:#181818;stroke-width:1;stroke-dasharray:2.0,2.0;" x1="425.4882" x2="572.9243" y1="892.6604" y2="892.6604"/><text fill="#000000" font-family="sans-serif" font-size="13" font-style="italic" lengthAdjust="spacing" textLength="15.197" x="447.9167" y="886.8514">int</text><text fill="#000000" font-family="sans-serif" font-size="13" lengthAdjust="spacing" textLength="80.0021" x="466.4937" y="886.8514">cheepsCount</text><polygon fill="#181818" points="205.1351,920.3665,195.1351,924.3665,205.1351,928.3665,201.1351,924.3665" style="stroke:#181818;stroke-width:1;"/><line style="stroke:#181818;stroke-width:1;stroke-dasharray:2.0,2.0;" x1="199.1351" x2="414.4882" y1="924.3665" y2="924.3665"/><text fill="#000000" font-family="sans-serif" font-size="13" font-style="italic" lengthAdjust="spacing" textLength="15.197" x="221.1175" y="918.5575">int</text><text fill="#000000" font-family="sans-serif" font-size="13" lengthAdjust="spacing" textLength="148.8111" x="239.6946" y="918.5575">totalCommentedCheeps</text><polygon fill="#181818" points="398.4882,969.7785,408.4882,973.7785,398.4882,977.7785,402.4882,973.7785" style="stroke:#181818;stroke-width:1;"/><line style="stroke:#181818;stroke-width:1;" x1="194.1351" x2="404.4882" y1="973.7785" y2="973.7785"/><text fill="#000000" font-family="sans-serif" font-size="13" lengthAdjust="spacing" textLength="98.8911" x="252.8661" y="950.2635">C# - Method call</text><text fill="#000000" font-family="sans-serif" font-size="13" font-weight="bold" lengthAdjust="spacing" textLength="94.4451" x="255.0891" y="967.9695">GetFollowing()</text><polygon fill="#181818" points="556.9243,1019.1905,566.9243,1023.1905,556.9243,1027.1905,560.9243,1023.1905" style="stroke:#181818;stroke-width:1;"/><line style="stroke:#181818;stroke-width:1;" x1="420.4882" x2="562.9243" y1="1023.1905" y2="1023.1905"/><text fill="#000000" font-family="sans-serif" font-size="13" lengthAdjust="spacing" textLength="122.0831" x="433.6647" y="999.6755">SQL Query - EF Core</text><text fill="#000000" font-family="sans-serif" font-size="13" font-weight="bold" lengthAdjust="spacing" textLength="104.3121" x="442.5502" y="1017.3815">_context.Author</text><polygon fill="#181818" points="431.4882,1050.8965,421.4882,1054.8965,431.4882,1058.8965,427.4882,1054.8965" style="stroke:#181818;stroke-width:1;"/><line style="stroke:#181818;stroke-width:1;stroke-dasharray:2.0,2.0;" x1="425.4882" x2="572.9243" y1="1054.8965" y2="1054.8965"/><text fill="#000000" font-family="sans-serif" font-size="13" font-style="italic" lengthAdjust="spacing" textLength="73.5411" x="434.9882" y="1049.0875">List&lt;Author&gt;</text><text fill="#000000" font-family="sans-serif" font-size="13" lengthAdjust="spacing" textLength="47.515" x="511.9093" y="1049.0875">authors</text><polygon fill="#181818" points="205.1351,1082.6026,195.1351,1086.6026,205.1351,1090.6026,201.1351,1086.6026" style="stroke:#181818;stroke-width:1;"/><line style="stroke:#181818;stroke-width:1;stroke-dasharray:2.0,2.0;" x1="199.1351" x2="414.4882" y1="1086.6026" y2="1086.6026"/><text fill="#000000" font-family="sans-serif" font-size="13" font-style="italic" lengthAdjust="spacing" textLength="73.5411" x="238.0956" y="1080.7936">List&lt;Author&gt;</text><text fill="#000000" font-family="sans-serif" font-size="13" lengthAdjust="spacing" textLength="56.511" x="315.0166" y="1080.7936">following</text><polygon fill="#181818" points="398.4882,1132.0146,408.4882,1136.0146,398.4882,1140.0146,402.4882,1136.0146" style="stroke:#181818;stroke-width:1;"/><line style="stroke:#181818;stroke-width:1;" x1="194.1351" x2="404.4882" y1="1136.0146" y2="1136.0146"/><text fill="#000000" font-family="sans-serif" font-size="13" lengthAdjust="spacing" textLength="98.8911" x="252.8661" y="1112.4996">C# - Method call</text><text fill="#000000" font-family="sans-serif" font-size="13" font-weight="bold" lengthAdjust="spacing" textLength="93.99" x="255.3166" y="1130.2056">GetFollowers()</text><polygon fill="#181818" points="556.9243,1181.4266,566.9243,1185.4266,556.9243,1189.4266,560.9243,1185.4266" style="stroke:#181818;stroke-width:1;"/><line style="stroke:#181818;stroke-width:1;" x1="420.4882" x2="562.9243" y1="1185.4266" y2="1185.4266"/><text fill="#000000" font-family="sans-serif" font-size="13" lengthAdjust="spacing" textLength="122.0831" x="433.6647" y="1161.9116">SQL Query - EF Core</text><text fill="#000000" font-family="sans-serif" font-size="13" font-weight="bold" lengthAdjust="spacing" textLength="104.3121" x="442.5502" y="1179.6176">_context.Author</text><polygon fill="#181818" points="431.4882,1213.1326,421.4882,1217.1326,431.4882,1221.1326,427.4882,1217.1326" style="stroke:#181818;stroke-width:1;"/><line style="stroke:#181818;stroke-width:1;stroke-dasharray:2.0,2.0;" x1="425.4882" x2="572.9243" y1="1217.1326" y2="1217.1326"/><text fill="#000000" font-family="sans-serif" font-size="13" font-style="italic" lengthAdjust="spacing" textLength="73.5411" x="434.9882" y="1211.3236">List&lt;Author&gt;</text><text fill="#000000" font-family="sans-serif" font-size="13" lengthAdjust="spacing" textLength="47.515" x="511.9093" y="1211.3236">authors</text><polygon fill="#181818" points="205.1351,1244.8387,195.1351,1248.8387,205.1351,1252.8387,201.1351,1248.8387" style="stroke:#181818;stroke-width:1;"/><line style="stroke:#181818;stroke-width:1;stroke-dasharray:2.0,2.0;" x1="199.1351" x2="414.4882" y1="1248.8387" y2="1248.8387"/><text fill="#000000" font-family="sans-serif" font-size="13" font-style="italic" lengthAdjust="spacing" textLength="73.5411" x="238.3231" y="1243.0297">List&lt;Author&gt;</text><text fill="#000000" font-family="sans-serif" font-size="13" lengthAdjust="spacing" textLength="56.056" x="315.2441" y="1243.0297">followers</text><polygon fill="#181818" points="41.8369,1294.2507,31.8369,1298.2507,41.8369,1302.2507,37.8369,1298.2507" style="stroke:#181818;stroke-width:1;"/><line style="stroke:#181818;stroke-width:1;stroke-dasharray:2.0,2.0;" x1="35.8369" x2="188.1351" y1="1298.2507" y2="1298.2507"/><text fill="#000000" font-family="sans-serif" font-size="13" lengthAdjust="spacing" textLength="129.2981" x="45.3369" y="1274.7357">HTTP - GET Response</text><text fill="#000000" font-family="sans-serif" font-size="13" font-weight="bold" lengthAdjust="spacing" textLength="101.5171" x="59.2275" y="1292.4417">Path: /&lt;author&gt;</text><!--SRC=[pPHRQy9048NVzrSCzALLRDv50fAgBIXe6-XBeQnnD8kRtNHtGks_xoQBbzIYu0LyItRcd3aVoMpE3Ob4v5mHH5AW8iQcUWLHAapEyftgEqvhxozgRhWbKoHK6AoLdZZnARV8KCt0kJ5cbqAv3fw1nQy2LO8Zj9Oli2l5Ga7Yvg9Xp2U0LbXEWsOJsl0SnsDemQ0NmsifjVIX6eqnfxGDGOSNb6eJDXgCbGedhCVo7j6TSnYXQvr1mgKi7GP8tKfy_r2g_yYSqHh2MxnDXZ0fqFmufruV8csmTFbCj4k-eaVlvPmCEWC5GU1FWW1yHdQWSaBsA4NCRImob4BXPHYyvox3K5Zg-EFGvKsg9tQqVZPFf0j5ru8IYZPPgq7iOEq4cA5Ouko23Fi_rt46qiIb3tBkLubqbfKBUXD8sp2dO_MrbFfRgCMrMAgzyCVXPi_t5cVRC5y7EWC7ZRqj7DnfgTtYDjVAuh_N-2y0]--></g></svg>