<svg xmlns="http://www.w3.org/2000/svg" xmlns:xlink="http://www.w3.org/1999/xlink" contentStyleType="text/css" height="840px" preserveAspectRatio="none" style="width:343px;height:840px;background:#FFFFFF;" version="1.1" viewBox="0 0 343 840" width="343px" zoomAndPan="magnify"><defs/><g><ellipse cx="149.1984" cy="20" fill="#222222" rx="10" ry="10" style="stroke:#222222;stroke-width:1;"/><rect fill="#F1F1F1" height="36.3441" rx="12.5" ry="12.5" style="stroke:#181818;stroke-width:0.5;" width="210.6934" x="43.8517" y="50"/><text fill="#000000" font-family="sans-serif" font-size="12" lengthAdjust="spacing" textLength="190.6934" x="53.8517" y="72.8281">Requirement is seen/bug is found</text><rect fill="#F1F1F1" height="36.3441" rx="12.5" ry="12.5" style="stroke:#181818;stroke-width:0.5;" width="204.7894" x="46.8037" y="155.8351"/><text fill="#000000" font-family="sans-serif" font-size="12" lengthAdjust="spacing" textLength="184.7894" x="56.8037" y="178.6631">Some team member writes issue</text><polygon fill="#F1F1F1" points="77.9299,106.3441,220.4669,106.3441,232.4669,118.3441,220.4669,130.3441,77.9299,130.3441,65.9299,118.3441,77.9299,106.3441" style="stroke:#181818;stroke-width:0.5;"/><text fill="#000000" font-family="sans-serif" font-size="11" lengthAdjust="spacing" textLength="15.0149" x="153.1984" y="142.103">No</text><text fill="#000000" font-family="sans-serif" font-size="11" lengthAdjust="spacing" textLength="142.537" x="77.9299" y="122.6121">Does an issue exist for this?</text><text fill="#000000" font-family="sans-serif" font-size="11" lengthAdjust="spacing" textLength="17.6989" x="232.4669" y="115.1211">Yes</text><polygon fill="#F1F1F1" points="149.1984,212.1792,161.1984,224.1792,149.1984,236.1792,137.1984,224.1792,149.1984,212.1792" style="stroke:#181818;stroke-width:0.5;"/><rect fill="#F1F1F1" height="69.0323" rx="12.5" ry="12.5" style="stroke:#181818;stroke-width:0.5;" width="152.6609" x="72.8679" y="256.1792"/><text fill="#000000" font-family="sans-serif" font-size="12" lengthAdjust="spacing" textLength="115.4408" x="82.8679" y="279.0073">Some team member</text><text fill="#000000" font-family="sans-serif" font-size="12" lengthAdjust="spacing" textLength="124.2849" x="82.8679" y="295.3514">assigns themselves or</text><text fill="#000000" font-family="sans-serif" font-size="12" lengthAdjust="spacing" textLength="132.6609" x="82.8679" y="311.6955">is assigned by the team</text><rect fill="#F1F1F1" height="36.3441" rx="12.5" ry="12.5" style="stroke:#181818;stroke-width:0.5;" width="169.3651" x="64.5159" y="345.2115"/><text fill="#000000" font-family="sans-serif" font-size="12" lengthAdjust="spacing" textLength="149.3651" x="74.5159" y="368.0396">Feature is developed/fixed</text><rect fill="#F1F1F1" height="36.3441" rx="12.5" ry="12.5" style="stroke:#181818;stroke-width:0.5;" width="133.7968" x="82.3" y="451.0466"/><text fill="#000000" font-family="sans-serif" font-size="12" lengthAdjust="spacing" textLength="113.7968" x="92.3" y="473.8747">Test may be created</text><polygon fill="#F1F1F1" points="65.4945,401.5556,232.9023,401.5556,244.9023,413.5556,232.9023,425.5556,65.4945,425.5556,53.4945,413.5556,65.4945,401.5556" style="stroke:#181818;stroke-width:0.5;"/><text fill="#000000" font-family="sans-serif" font-size="11" lengthAdjust="spacing" textLength="15.0149" x="153.1984" y="437.3145">No</text><text fill="#000000" font-family="sans-serif" font-size="11" lengthAdjust="spacing" textLength="167.4078" x="65.4945" y="417.8236">Does a test exist for the feature?</text><text fill="#000000" font-family="sans-serif" font-size="11" lengthAdjust="spacing" textLength="17.6989" x="244.9023" y="410.3327">Yes</text><polygon fill="#F1F1F1" points="149.1984,507.3907,161.1984,519.3907,149.1984,531.3907,137.1984,519.3907,149.1984,507.3907" style="stroke:#181818;stroke-width:0.5;"/><rect fill="#F1F1F1" height="36.3441" rx="12.5" ry="12.5" style="stroke:#181818;stroke-width:0.5;" width="127.7368" x="85.33" y="551.3907"/><text fill="#000000" font-family="sans-serif" font-size="12" lengthAdjust="spacing" textLength="107.7368" x="95.33" y="574.2188">Create pull request</text><polygon fill="#F1F1F1" points="89.7823,664.0789,208.6145,664.0789,220.6145,676.0789,208.6145,688.0789,89.7823,688.0789,77.7823,676.0789,89.7823,664.0789" style="stroke:#181818;stroke-width:0.5;"/><text fill="#000000" font-family="sans-serif" font-size="11" lengthAdjust="spacing" textLength="118.8322" x="89.7823" y="680.3469">Pull request approved?</text><text fill="#000000" font-family="sans-serif" font-size="11" lengthAdjust="spacing" textLength="17.6989" x="60.0835" y="672.8559">Yes</text><text fill="#000000" font-family="sans-serif" font-size="11" lengthAdjust="spacing" textLength="15.0149" x="220.6145" y="672.8559">No</text><rect fill="#F1F1F1" height="36.3441" rx="12.5" ry="12.5" style="stroke:#181818;stroke-width:0.5;" width="113.5647" x="11" y="698.0789"/><text fill="#000000" font-family="sans-serif" font-size="12" lengthAdjust="spacing" textLength="93.5647" x="21" y="720.907">Merge into main</text><ellipse cx="67.7823" cy="764.423" fill="none" rx="10" ry="10" style="stroke:#222222;stroke-width:1.5;"/><line style="stroke:#222222;stroke-width:2.5;" x1="61.5951" x2="73.9695" y1="758.2358" y2="770.6102"/><line style="stroke:#222222;stroke-width:2.5;" x1="73.9695" x2="61.5951" y1="758.2358" y2="770.6102"/><rect fill="#F1F1F1" height="36.3441" rx="12.5" ry="12.5" style="stroke:#181818;stroke-width:0.5;" width="146.7209" x="157.254" y="698.0789"/><text fill="#000000" font-family="sans-serif" font-size="12" lengthAdjust="spacing" textLength="126.7209" x="167.254" y="720.907">Rework feature/bugfix</text><rect fill="#F1F1F1" height="36.3441" rx="12.5" ry="12.5" style="stroke:#181818;stroke-width:0.5;" width="200.3613" x="49.0177" y="607.7348"/><text fill="#000000" font-family="sans-serif" font-size="12" lengthAdjust="spacing" textLength="180.3613" x="59.0177" y="630.5629">Assign team member for review</text><line style="stroke:#181818;stroke-width:1;" x1="149.1984" x2="149.1984" y1="30" y2="50"/><polygon fill="#181818" points="145.1984,40,149.1984,50,153.1984,40,149.1984,44" style="stroke:#181818;stroke-width:1;"/><line style="stroke:#181818;stroke-width:1;" x1="149.1984" x2="149.1984" y1="130.3441" y2="155.8351"/><polygon fill="#181818" points="145.1984,145.8351,149.1984,155.8351,153.1984,145.8351,149.1984,149.8351" style="stroke:#181818;stroke-width:1;"/><line style="stroke:#181818;stroke-width:1;" x1="232.4669" x2="261.5931" y1="118.3441" y2="118.3441"/><polygon fill="#181818" points="257.5931,164.0071,261.5931,174.0071,265.5931,164.0071,261.5931,168.0071" style="stroke:#181818;stroke-width:1;"/><line style="stroke:#181818;stroke-width:1;" x1="261.5931" x2="261.5931" y1="118.3441" y2="224.1792"/><line style="stroke:#181818;stroke-width:1;" x1="261.5931" x2="161.1984" y1="224.1792" y2="224.1792"/><polygon fill="#181818" points="171.1984,220.1792,161.1984,224.1792,171.1984,228.1792,167.1984,224.1792" style="stroke:#181818;stroke-width:1;"/><line style="stroke:#181818;stroke-width:1;" x1="149.1984" x2="149.1984" y1="192.1792" y2="212.1792"/><polygon fill="#181818" points="145.1984,202.1792,149.1984,212.1792,153.1984,202.1792,149.1984,206.1792" style="stroke:#181818;stroke-width:1;"/><line style="stroke:#181818;stroke-width:1;" x1="149.1984" x2="149.1984" y1="86.3441" y2="106.3441"/><polygon fill="#181818" points="145.1984,96.3441,149.1984,106.3441,153.1984,96.3441,149.1984,100.3441" style="stroke:#181818;stroke-width:1;"/><line style="stroke:#181818;stroke-width:1;" x1="149.1984" x2="149.1984" y1="236.1792" y2="256.1792"/><polygon fill="#181818" points="145.1984,246.1792,149.1984,256.1792,153.1984,246.1792,149.1984,250.1792" style="stroke:#181818;stroke-width:1;"/><line style="stroke:#181818;stroke-width:1;" x1="149.1984" x2="149.1984" y1="325.2115" y2="345.2115"/><polygon fill="#181818" points="145.1984,335.2115,149.1984,345.2115,153.1984,335.2115,149.1984,339.2115" style="stroke:#181818;stroke-width:1;"/><line style="stroke:#181818;stroke-width:1;" x1="149.1984" x2="149.1984" y1="425.5556" y2="451.0466"/><polygon fill="#181818" points="145.1984,441.0466,149.1984,451.0466,153.1984,441.0466,149.1984,445.0466" style="stroke:#181818;stroke-width:1;"/><line style="stroke:#181818;stroke-width:1;" x1="244.9023" x2="256.9023" y1="413.5556" y2="413.5556"/><polygon fill="#181818" points="252.9023,459.2186,256.9023,469.2186,260.9023,459.2186,256.9023,463.2186" style="stroke:#181818;stroke-width:1;"/><line style="stroke:#181818;stroke-width:1;" x1="256.9023" x2="256.9023" y1="413.5556" y2="519.3907"/><line style="stroke:#181818;stroke-width:1;" x1="256.9023" x2="161.1984" y1="519.3907" y2="519.3907"/><polygon fill="#181818" points="171.1984,515.3907,161.1984,519.3907,171.1984,523.3907,167.1984,519.3907" style="stroke:#181818;stroke-width:1;"/><line style="stroke:#181818;stroke-width:1;" x1="149.1984" x2="149.1984" y1="487.3907" y2="507.3907"/><polygon fill="#181818" points="145.1984,497.3907,149.1984,507.3907,153.1984,497.3907,149.1984,501.3907" style="stroke:#181818;stroke-width:1;"/><line style="stroke:#181818;stroke-width:1;" x1="149.1984" x2="149.1984" y1="381.5556" y2="401.5556"/><polygon fill="#181818" points="145.1984,391.5556,149.1984,401.5556,153.1984,391.5556,149.1984,395.5556" style="stroke:#181818;stroke-width:1;"/><line style="stroke:#181818;stroke-width:1;" x1="149.1984" x2="149.1984" y1="531.3907" y2="551.3907"/><polygon fill="#181818" points="145.1984,541.3907,149.1984,551.3907,153.1984,541.3907,149.1984,545.3907" style="stroke:#181818;stroke-width:1;"/><line style="stroke:#181818;stroke-width:1;" x1="67.7823" x2="67.7823" y1="734.423" y2="754.423"/><polygon fill="#181818" points="63.7823,744.423,67.7823,754.423,71.7823,744.423,67.7823,748.423" style="stroke:#181818;stroke-width:1;"/><line style="stroke:#181818;stroke-width:1;" x1="77.7823" x2="67.7823" y1="676.0789" y2="676.0789"/><line style="stroke:#181818;stroke-width:1;" x1="67.7823" x2="67.7823" y1="676.0789" y2="698.0789"/><polygon fill="#181818" points="63.7823,688.0789,67.7823,698.0789,71.7823,688.0789,67.7823,692.0789" style="stroke:#181818;stroke-width:1;"/><line style="stroke:#181818;stroke-width:1;" x1="220.6145" x2="230.6145" y1="676.0789" y2="676.0789"/><line style="stroke:#181818;stroke-width:1;" x1="230.6145" x2="230.6145" y1="676.0789" y2="698.0789"/><polygon fill="#181818" points="226.6145,688.0789,230.6145,698.0789,234.6145,688.0789,230.6145,692.0789" style="stroke:#181818;stroke-width:1;"/><line style="stroke:#181818;stroke-width:1;" x1="230.6145" x2="230.6145" y1="734.423" y2="780.423"/><line style="stroke:#181818;stroke-width:1;" x1="230.6145" x2="149.1984" y1="780.423" y2="780.423"/><line style="stroke:#181818;stroke-width:1;" x1="149.1984" x2="149.1984" y1="780.423" y2="828.423"/><line style="stroke:#181818;stroke-width:1;" x1="149.1984" x2="149.1984" y1="644.0789" y2="664.0789"/><polygon fill="#181818" points="145.1984,654.0789,149.1984,664.0789,153.1984,654.0789,149.1984,658.0789" style="stroke:#181818;stroke-width:1;"/><line style="stroke:#181818;stroke-width:1;" x1="149.1984" x2="317.9749" y1="828.423" y2="828.423"/><polygon fill="#181818" points="313.9749,730.6649,317.9749,720.6649,321.9749,730.6649,317.9749,726.6649" style="stroke:#181818;stroke-width:1;"/><line style="stroke:#181818;stroke-width:1;" x1="317.9749" x2="317.9749" y1="625.9069" y2="828.423"/><line style="stroke:#181818;stroke-width:1;" x1="317.9749" x2="249.3791" y1="625.9069" y2="625.9069"/><polygon fill="#181818" points="259.3791,621.9069,249.3791,625.9069,259.3791,629.9069,255.3791,625.9069" style="stroke:#181818;stroke-width:1;"/><line style="stroke:#181818;stroke-width:1;" x1="149.1984" x2="149.1984" y1="587.7348" y2="607.7348"/><polygon fill="#181818" points="145.1984,597.7348,149.1984,607.7348,153.1984,597.7348,149.1984,601.7348" style="stroke:#181818;stroke-width:1;"/><!--SRC=[TP6zJiGm48HxFyMMINLzKY04eWEXWuRI8PDW4TjXrqdktfvr0b8YHEMVtPdznfPaEPdgZA_9CJn28YSaG3WrKv_tNPn2MnlNKN4V8MI3tie4miL9qZ9J-d1oK-g2GCKRf3GO15GynT9KBz634gmd3z-0QM6Nr6SrgGr2wxg_NSQAk3v8DlM2OLP5PACyMm4jDTTSN4MrgHvWqyJ8n2rc3754U-hS1GTsxLRcFJcesvJ_1dZD4c-lr83UMPkpvG_stNgcSHe6Odr3RQqDOzHRgcvNqaFsF9CnEomRrVDEI7OSESveZoJL8xZNN255fN1XdRtdEsE9_FaR8t-Rngw_0G00]--></g></svg>