<svg xmlns="http://www.w3.org/2000/svg" xmlns:xlink="http://www.w3.org/1999/xlink" contentStyleType="text/css" height="826px" preserveAspectRatio="none" style="width:329px;height:826px;background:#FFFFFF;" version="1.1" viewBox="0 0 329 826" width="329px" zoomAndPan="magnify"><defs/><g><ellipse cx="142.5852" cy="20" fill="#222222" rx="10" ry="10" style="stroke:#222222;stroke-width:1;"/><rect fill="#F1F1F1" height="35.0938" rx="12.5" ry="12.5" style="stroke:#181818;stroke-width:0.5;" width="198.7754" x="43.1975" y="50"/><text fill="#000000" font-family="sans-serif" font-size="12" lengthAdjust="spacing" textLength="178.7754" x="53.1975" y="72.457">Requirement is seen/bug is found</text><rect fill="#F1F1F1" height="35.0938" rx="12.5" ry="12.5" style="stroke:#181818;stroke-width:0.5;" width="194.7207" x="45.2249" y="154.0117"/><text fill="#000000" font-family="sans-serif" font-size="12" lengthAdjust="spacing" textLength="174.7207" x="55.2249" y="176.4688">Some team member writes issue</text><polygon fill="#F1F1F1" points="73.803,105.0938,211.3674,105.0938,223.3674,117.0938,211.3674,129.0938,73.803,129.0938,61.803,117.0938,73.803,105.0938" style="stroke:#181818;stroke-width:0.5;"/><text fill="#000000" font-family="sans-serif" font-size="11" lengthAdjust="spacing" textLength="14.0615" x="146.5852" y="140.5127">No</text><text fill="#000000" font-family="sans-serif" font-size="11" lengthAdjust="spacing" textLength="137.5645" x="73.803" y="121.5947">Does an issue exist for this?</text><text fill="#000000" font-family="sans-serif" font-size="11" lengthAdjust="spacing" textLength="18.9546" x="223.3674" y="114.6768">Yes</text><polygon fill="#F1F1F1" points="142.5852,209.1055,154.5852,221.1055,142.5852,233.1055,130.5852,221.1055,142.5852,209.1055" style="stroke:#181818;stroke-width:0.5;"/><rect fill="#F1F1F1" height="65.2813" rx="12.5" ry="12.5" style="stroke:#181818;stroke-width:0.5;" width="146.0703" x="69.55" y="253.1055"/><text fill="#000000" font-family="sans-serif" font-size="12" lengthAdjust="spacing" textLength="108.7031" x="79.55" y="275.5625">Some team member</text><text fill="#000000" font-family="sans-serif" font-size="12" lengthAdjust="spacing" textLength="118.7168" x="79.55" y="290.6563">assigns themselves or</text><text fill="#000000" font-family="sans-serif" font-size="12" lengthAdjust="spacing" textLength="126.0703" x="79.55" y="305.75">is assigned by the team</text><rect fill="#F1F1F1" height="35.0938" rx="12.5" ry="12.5" style="stroke:#181818;stroke-width:0.5;" width="160.7539" x="62.2083" y="338.3867"/><text fill="#000000" font-family="sans-serif" font-size="12" lengthAdjust="spacing" textLength="140.7539" x="72.2083" y="360.8438">Feature is developed/fixed</text><rect fill="#F1F1F1" height="35.0938" rx="12.5" ry="12.5" style="stroke:#181818;stroke-width:0.5;" width="129.3828" x="77.8938" y="442.3984"/><text fill="#000000" font-family="sans-serif" font-size="12" lengthAdjust="spacing" textLength="109.3828" x="87.8938" y="464.8555">Test may be created</text><polygon fill="#F1F1F1" points="63.0984,393.4805,222.072,393.4805,234.072,405.4805,222.072,417.4805,63.0984,417.4805,51.0984,405.4805,63.0984,393.4805" style="stroke:#181818;stroke-width:0.5;"/><text fill="#000000" font-family="sans-serif" font-size="11" lengthAdjust="spacing" textLength="14.0615" x="146.5852" y="428.8994">No</text><text fill="#000000" font-family="sans-serif" font-size="11" lengthAdjust="spacing" textLength="158.9736" x="63.0984" y="409.9814">Does a test exist for the feature?</text><text fill="#000000" font-family="sans-serif" font-size="11" lengthAdjust="spacing" textLength="18.9546" x="234.072" y="403.0635">Yes</text><polygon fill="#F1F1F1" points="142.5852,497.4922,154.5852,509.4922,142.5852,521.4922,130.5852,509.4922,142.5852,497.4922" style="stroke:#181818;stroke-width:0.5;"/><rect fill="#F1F1F1" height="35.0938" rx="12.5" ry="12.5" style="stroke:#181818;stroke-width:0.5;" width="121.3906" x="81.8899" y="541.4922"/><text fill="#000000" font-family="sans-serif" font-size="12" lengthAdjust="spacing" textLength="101.3906" x="91.8899" y="563.9492">Create pull request</text><polygon fill="#F1F1F1" points="86.0195,651.6797,199.1509,651.6797,211.1509,663.6797,199.1509,675.6797,86.0195,675.6797,74.0195,663.6797,86.0195,651.6797" style="stroke:#181818;stroke-width:0.5;"/><text fill="#000000" font-family="sans-serif" font-size="11" lengthAdjust="spacing" textLength="113.1313" x="86.0195" y="668.1807">Pull request approved?</text><text fill="#000000" font-family="sans-serif" font-size="11" lengthAdjust="spacing" textLength="18.9546" x="55.0649" y="661.2627">Yes</text><text fill="#000000" font-family="sans-serif" font-size="11" lengthAdjust="spacing" textLength="14.0615" x="211.1509" y="661.2627">No</text><rect fill="#F1F1F1" height="35.0938" rx="12.5" ry="12.5" style="stroke:#181818;stroke-width:0.5;" width="106.0391" x="11" y="685.6797"/><text fill="#000000" font-family="sans-serif" font-size="12" lengthAdjust="spacing" textLength="86.0391" x="21" y="708.1367">Merge into main</text><ellipse cx="64.0195" cy="750.7734" fill="none" rx="10" ry="10" style="stroke:#222222;stroke-width:1.5;"/><line style="stroke:#222222;stroke-width:2.5;" x1="57.8323" x2="70.2067" y1="744.5863" y2="756.9606"/><line style="stroke:#222222;stroke-width:2.5;" x1="70.2067" x2="57.8323" y1="744.5863" y2="756.9606"/><rect fill="#F1F1F1" height="35.0938" rx="12.5" ry="12.5" style="stroke:#181818;stroke-width:0.5;" width="136.7246" x="152.7886" y="685.6797"/><text fill="#000000" font-family="sans-serif" font-size="12" lengthAdjust="spacing" textLength="116.7246" x="162.7886" y="708.1367">Rework feature/bugfix</text><rect fill="#F1F1F1" height="35.0938" rx="12.5" ry="12.5" style="stroke:#181818;stroke-width:0.5;" width="188.7207" x="48.2249" y="596.5859"/><text fill="#000000" font-family="sans-serif" font-size="12" lengthAdjust="spacing" textLength="168.7207" x="58.2249" y="619.043">Assign team member for review</text><line style="stroke:#181818;stroke-width:1;" x1="142.5852" x2="142.5852" y1="30" y2="50"/><polygon fill="#181818" points="138.5852,40,142.5852,50,146.5852,40,142.5852,44" style="stroke:#181818;stroke-width:1;"/><line style="stroke:#181818;stroke-width:1;" x1="142.5852" x2="142.5852" y1="129.0938" y2="154.0117"/><polygon fill="#181818" points="138.5852,144.0117,142.5852,154.0117,146.5852,144.0117,142.5852,148.0117" style="stroke:#181818;stroke-width:1;"/><line style="stroke:#181818;stroke-width:1;" x1="223.3674" x2="249.9456" y1="117.0938" y2="117.0938"/><polygon fill="#181818" points="245.9456,161.5586,249.9456,171.5586,253.9456,161.5586,249.9456,165.5586" style="stroke:#181818;stroke-width:1;"/><line style="stroke:#181818;stroke-width:1;" x1="249.9456" x2="249.9456" y1="117.0938" y2="221.1055"/><line style="stroke:#181818;stroke-width:1;" x1="249.9456" x2="154.5852" y1="221.1055" y2="221.1055"/><polygon fill="#181818" points="164.5852,217.1055,154.5852,221.1055,164.5852,225.1055,160.5852,221.1055" style="stroke:#181818;stroke-width:1;"/><line style="stroke:#181818;stroke-width:1;" x1="142.5852" x2="142.5852" y1="189.1055" y2="209.1055"/><polygon fill="#181818" points="138.5852,199.1055,142.5852,209.1055,146.5852,199.1055,142.5852,203.1055" style="stroke:#181818;stroke-width:1;"/><line style="stroke:#181818;stroke-width:1;" x1="142.5852" x2="142.5852" y1="85.0938" y2="105.0938"/><polygon fill="#181818" points="138.5852,95.0938,142.5852,105.0938,146.5852,95.0938,142.5852,99.0938" style="stroke:#181818;stroke-width:1;"/><line style="stroke:#181818;stroke-width:1;" x1="142.5852" x2="142.5852" y1="233.1055" y2="253.1055"/><polygon fill="#181818" points="138.5852,243.1055,142.5852,253.1055,146.5852,243.1055,142.5852,247.1055" style="stroke:#181818;stroke-width:1;"/><line style="stroke:#181818;stroke-width:1;" x1="142.5852" x2="142.5852" y1="318.3867" y2="338.3867"/><polygon fill="#181818" points="138.5852,328.3867,142.5852,338.3867,146.5852,328.3867,142.5852,332.3867" style="stroke:#181818;stroke-width:1;"/><line style="stroke:#181818;stroke-width:1;" x1="142.5852" x2="142.5852" y1="417.4805" y2="442.3984"/><polygon fill="#181818" points="138.5852,432.3984,142.5852,442.3984,146.5852,432.3984,142.5852,436.3984" style="stroke:#181818;stroke-width:1;"/><line style="stroke:#181818;stroke-width:1;" x1="234.072" x2="246.072" y1="405.4805" y2="405.4805"/><polygon fill="#181818" points="242.072,449.9453,246.072,459.9453,250.072,449.9453,246.072,453.9453" style="stroke:#181818;stroke-width:1;"/><line style="stroke:#181818;stroke-width:1;" x1="246.072" x2="246.072" y1="405.4805" y2="509.4922"/><line style="stroke:#181818;stroke-width:1;" x1="246.072" x2="154.5852" y1="509.4922" y2="509.4922"/><polygon fill="#181818" points="164.5852,505.4922,154.5852,509.4922,164.5852,513.4922,160.5852,509.4922" style="stroke:#181818;stroke-width:1;"/><line style="stroke:#181818;stroke-width:1;" x1="142.5852" x2="142.5852" y1="477.4922" y2="497.4922"/><polygon fill="#181818" points="138.5852,487.4922,142.5852,497.4922,146.5852,487.4922,142.5852,491.4922" style="stroke:#181818;stroke-width:1;"/><line style="stroke:#181818;stroke-width:1;" x1="142.5852" x2="142.5852" y1="373.4805" y2="393.4805"/><polygon fill="#181818" points="138.5852,383.4805,142.5852,393.4805,146.5852,383.4805,142.5852,387.4805" style="stroke:#181818;stroke-width:1;"/><line style="stroke:#181818;stroke-width:1;" x1="142.5852" x2="142.5852" y1="521.4922" y2="541.4922"/><polygon fill="#181818" points="138.5852,531.4922,142.5852,541.4922,146.5852,531.4922,142.5852,535.4922" style="stroke:#181818;stroke-width:1;"/><line style="stroke:#181818;stroke-width:1;" x1="64.0195" x2="64.0195" y1="720.7734" y2="740.7734"/><polygon fill="#181818" points="60.0195,730.7734,64.0195,740.7734,68.0195,730.7734,64.0195,734.7734" style="stroke:#181818;stroke-width:1;"/><line style="stroke:#181818;stroke-width:1;" x1="74.0195" x2="64.0195" y1="663.6797" y2="663.6797"/><line style="stroke:#181818;stroke-width:1;" x1="64.0195" x2="64.0195" y1="663.6797" y2="685.6797"/><polygon fill="#181818" points="60.0195,675.6797,64.0195,685.6797,68.0195,675.6797,64.0195,679.6797" style="stroke:#181818;stroke-width:1;"/><line style="stroke:#181818;stroke-width:1;" x1="211.1509" x2="221.1509" y1="663.6797" y2="663.6797"/><line style="stroke:#181818;stroke-width:1;" x1="221.1509" x2="221.1509" y1="663.6797" y2="685.6797"/><polygon fill="#181818" points="217.1509,675.6797,221.1509,685.6797,225.1509,675.6797,221.1509,679.6797" style="stroke:#181818;stroke-width:1;"/><line style="stroke:#181818;stroke-width:1;" x1="221.1509" x2="221.1509" y1="720.7734" y2="766.7734"/><line style="stroke:#181818;stroke-width:1;" x1="221.1509" x2="142.5852" y1="766.7734" y2="766.7734"/><line style="stroke:#181818;stroke-width:1;" x1="142.5852" x2="142.5852" y1="766.7734" y2="814.7734"/><line style="stroke:#181818;stroke-width:1;" x1="142.5852" x2="142.5852" y1="631.6797" y2="651.6797"/><polygon fill="#181818" points="138.5852,641.6797,142.5852,651.6797,146.5852,641.6797,142.5852,645.6797" style="stroke:#181818;stroke-width:1;"/><line style="stroke:#181818;stroke-width:1;" x1="142.5852" x2="303.5132" y1="814.7734" y2="814.7734"/><polygon fill="#181818" points="299.5132,717.9531,303.5132,707.9531,307.5132,717.9531,303.5132,713.9531" style="stroke:#181818;stroke-width:1;"/><line style="stroke:#181818;stroke-width:1;" x1="303.5132" x2="303.5132" y1="614.1328" y2="814.7734"/><line style="stroke:#181818;stroke-width:1;" x1="303.5132" x2="236.9456" y1="614.1328" y2="614.1328"/><polygon fill="#181818" points="246.9456,610.1328,236.9456,614.1328,246.9456,618.1328,242.9456,614.1328" style="stroke:#181818;stroke-width:1;"/><line style="stroke:#181818;stroke-width:1;" x1="142.5852" x2="142.5852" y1="576.5859" y2="596.5859"/><polygon fill="#181818" points="138.5852,586.5859,142.5852,596.5859,146.5852,586.5859,142.5852,590.5859" style="stroke:#181818;stroke-width:1;"/><!--SRC=[TP6zJiGm48HxFyMMINLzKY04eWEXWuRI8PDW4TjXrqdktfvr0b8YHEMVtPdznfPaEPdgZA_9CJn28YSaG3WrKv_tNPn2MnlNKN4V8MI3tie4miL9qZ9J-d1oK-g2GCKRf3GO15GynT9KBz634gmd3z-0QM6Nr6SrgGr2wxg_NSQAk3v8DlM2OLP5PACyMm4jDTTSN4MrgHvWqyJ8n2rc3754U-hS1GTsxLRcFJcesvJ_1dZD4c-lr83UMPkpvG_stNgcSHe6Odr3RQqDOzHRgcvNqaFsF9CnEomRrVDEI7OSESveZoJL8xZNN255fN1XdRtdEsE9_FaR8t-Rngw_0G00]--></g></svg>